<?xml version="1.0" encoding="UTF-8" standalone="no"?>
<!-- Created with Inkscape (http://www.inkscape.org/) -->

<svg
   xmlns:dc="http://purl.org/dc/elements/1.1/"
   xmlns:cc="http://creativecommons.org/ns#"
   xmlns:rdf="http://www.w3.org/1999/02/22-rdf-syntax-ns#"
   xmlns:svg="http://www.w3.org/2000/svg"
   xmlns="http://www.w3.org/2000/svg"
   xmlns:sodipodi="http://sodipodi.sourceforge.net/DTD/sodipodi-0.dtd"
   xmlns:inkscape="http://www.inkscape.org/namespaces/inkscape"
   id="svg2816"
   version="1.1"
   inkscape:version="0.47 r22583"
   width="114.2627"
   height="485.88751"
   xml:space="preserve"
   sodipodi:docname="campanile.eps"><metadata
     id="metadata2822"><rdf:RDF><cc:Work
         rdf:about=""><dc:format>image/svg+xml</dc:format><dc:type
           rdf:resource="http://purl.org/dc/dcmitype/StillImage" /><dc:title></dc:title></cc:Work></rdf:RDF></metadata><defs
     id="defs2820"><inkscape:perspective
       sodipodi:type="inkscape:persp3d"
       inkscape:vp_x="0 : 0.5 : 1"
       inkscape:vp_y="0 : 1000 : 0"
       inkscape:vp_z="1 : 0.5 : 1"
       inkscape:persp3d-origin="0.5 : 0.33333333 : 1"
       id="perspective2824" /><clipPath
       clipPathUnits="userSpaceOnUse"
       id="clipPath2834"><path
         d="M 0,3900 0,0 l 930,0 0,3900 -930,0 z"
         id="path2836" /></clipPath></defs><sodipodi:namedview
     pagecolor="#ffffff"
     bordercolor="#666666"
     borderopacity="1"
     objecttolerance="10"
     gridtolerance="10"
     guidetolerance="10"
     inkscape:pageopacity="0"
     inkscape:pageshadow="2"
     inkscape:window-width="1920"
     inkscape:window-height="1150"
     id="namedview2818"
     showgrid="false"
     inkscape:zoom="0.47676768"
     inkscape:cx="35.16687"
     inkscape:cy="205.70023"
     inkscape:window-x="-8"
     inkscape:window-y="-8"
     inkscape:window-maximized="1"
     inkscape:current-layer="g2826" /><g
     id="g2826"
     inkscape:groupmode="layer"
     inkscape:label="ink_ext_XXXXXX"
     transform="matrix(1.25,0,0,-1.25,-0.643555,486.48125)"><g
       id="g2828"
       transform="scale(0.1,0.1)"><g
         id="g2830"><g
           id="g2832"
           clip-path="url(#clipPath2834)"><path
             d="M 461,3889.6 620.602,1111 691.398,1340.2 461,3889.6"
             style="fill:#000000;fill-opacity:1;fill-rule:evenodd;stroke:none"
             id="path2838" /><path
             d="M 461,3889.6 620.602,1111 691.398,1340.2 461,3889.6 z"
             style="fill:none;stroke:#000000;stroke-width:4.5;stroke-linecap:butt;stroke-linejoin:miter;stroke-miterlimit:10;stroke-opacity:1;stroke-dasharray:none"
             id="path2840" /><path
             d="M 461,1499.8 280.398,382.602 462.801,247 642.801,384.402 461,1499.8"
             style="fill:#000000;fill-opacity:1;fill-rule:evenodd;stroke:none"
             id="path2842" /><path
             d="M 461,1499.8 280.398,382.602 462.801,247 642.801,384.402 461,1499.8 z"
             style="fill:none;stroke:#000000;stroke-width:4.5;stroke-linecap:butt;stroke-linejoin:miter;stroke-miterlimit:10;stroke-opacity:1;stroke-dasharray:none"
             id="path2844" /><path
             d="M 303.199,1108.6 231.801,1338.4 461,3889.6 303.199,1108.6 233,1336"
             style="fill:#000000;fill-opacity:1;fill-rule:evenodd;stroke:none"
             id="path2846" /><path
             d="M 303.199,1108.6 231.801,1338.4 461,3889.6 303.199,1108.6 233,1336 303.199,1108.6 z"
             style="fill:none;stroke:#000000;stroke-width:4.5;stroke-linecap:butt;stroke-linejoin:miter;stroke-miterlimit:10;stroke-opacity:1;stroke-dasharray:none"
             id="path2848" /><path
             d="M 917,1889.2 917,564.398 635,379"
             style="fill:#000000;fill-opacity:1;fill-rule:evenodd;stroke:none"
             id="path2850" /><path
             d="M 917,1889.2 917,564.398 635,379 917,1889.2 z"
             style="fill:none;stroke:#000000;stroke-width:4.5;stroke-linecap:butt;stroke-linejoin:miter;stroke-miterlimit:10;stroke-opacity:1;stroke-dasharray:none"
             id="path2852" /><path
             d="M 916.398,372.402 461,7 8.60156,370.602 l 0,81.597 L 461,135.402 916.398,455.801"
             style="fill:#000000;fill-opacity:1;fill-rule:evenodd;stroke:none"
             id="path2854" /><path
             d="M 916.398,372.402 461,7 8.60156,370.602 l 0,81.597 L 461,135.402 l 455.398,320.399 0,-83.399 z"
             style="fill:none;stroke:#000000;stroke-width:4.5;stroke-linecap:butt;stroke-linejoin:miter;stroke-miterlimit:10;stroke-opacity:1;stroke-dasharray:none"
             id="path2856" /><path
             d="M 8,564.398 279.801,382.602 7.39844,1886.2"
             style="fill:#000000;fill-opacity:1;fill-rule:evenodd;stroke:none"
             id="path2858" /><path
             d="M 8,564.398 279.801,382.602 7.39844,1886.2 8,564.398 z"
             style="fill:none;stroke:#000000;stroke-width:4.5;stroke-linecap:butt;stroke-linejoin:miter;stroke-miterlimit:10;stroke-opacity:1;stroke-dasharray:none"
             id="path2860" /></g></g></g></g></svg>