<?xml version="1.0" encoding="UTF-8" standalone="no"?>
<!-- Created with Inkscape (http://www.inkscape.org/) -->

<svg
   xmlns:ns0="http://www.iki.fi/pav/software/textext/"
   xmlns:dc="http://purl.org/dc/elements/1.1/"
   xmlns:cc="http://creativecommons.org/ns#"
   xmlns:rdf="http://www.w3.org/1999/02/22-rdf-syntax-ns#"
   xmlns:svg="http://www.w3.org/2000/svg"
   xmlns="http://www.w3.org/2000/svg"
   xmlns:sodipodi="http://sodipodi.sourceforge.net/DTD/sodipodi-0.dtd"
   xmlns:inkscape="http://www.inkscape.org/namespaces/inkscape"
   width="368.366"
   height="238.15225"
   id="svg3265"
   version="1.1"
   inkscape:version="0.48.1 "
   sodipodi:docname="PRML_PCA_problem.svg">
  <sodipodi:namedview
     id="base"
     pagecolor="#ffffff"
     bordercolor="#666666"
     borderopacity="1.0"
     inkscape:pageopacity="0.0"
     inkscape:pageshadow="2"
     inkscape:zoom="1.979899"
     inkscape:cx="74.185222"
     inkscape:cy="128.15559"
     inkscape:document-units="px"
     inkscape:current-layer="layer1"
     showgrid="false"
     inkscape:window-width="1920"
     inkscape:window-height="1096"
     inkscape:window-x="-8"
     inkscape:window-y="-8"
     inkscape:window-maximized="1"
     fit-margin-top="0"
     fit-margin-left="0"
     fit-margin-right="0"
     fit-margin-bottom="0" />
  <defs
     id="defs3267">
    <marker
       style="overflow:visible"
       id="Arrow2Mend"
       refX="0"
       refY="0"
       orient="auto"
       inkscape:stockid="Arrow2Mend">
      <path
         inkscape:connector-curvature="0"
         transform="scale(-0.6,-0.6)"
         d="M 8.7185878,4.0337352 -2.2072895,0.01601326 8.7185884,-4.0017078 c -1.7454984,2.3720609 -1.7354408,5.6174519 -6e-7,8.035443 z"
         style="font-size:12px;fill-rule:evenodd;stroke-width:0.625;stroke-linejoin:round"
         id="path4404" />
    </marker>
    <marker
       style="overflow:visible"
       id="Arrow1Lend"
       refX="0"
       refY="0"
       orient="auto"
       inkscape:stockid="Arrow1Lend">
      <path
         transform="matrix(-0.8,0,0,-0.8,-10,0)"
         style="fill-rule:evenodd;stroke:#000000;stroke-width:1pt;marker-start:none"
         d="M 0,0 5,-5 -12.5,0 5,5 0,0 z"
         id="path3668"
         inkscape:connector-curvature="0" />
    </marker>
    <marker
       style="overflow:visible"
       id="marker3083"
       refX="0"
       refY="0"
       orient="auto"
       inkscape:stockid="Arrow1Lend">
      <path
         transform="matrix(-0.8,0,0,-0.8,-10,0)"
         style="fill-rule:evenodd;stroke:#000000;stroke-width:1pt;marker-start:none"
         d="M 0,0 5,-5 -12.5,0 5,5 0,0 z"
         id="path3085"
         inkscape:connector-curvature="0" />
    </marker>
    <marker
       style="overflow:visible"
       id="Arrow2Mendp"
       refX="0"
       refY="0"
       orient="auto"
       inkscape:stockid="Arrow2Mendp">
      <path
         inkscape:connector-curvature="0"
         transform="scale(-0.6,-0.6)"
         d="M 8.7185878,4.0337352 -2.2072895,0.01601326 8.7185884,-4.0017078 c -1.7454984,2.3720609 -1.7354408,5.6174519 -6e-7,8.035443 z"
         style="font-size:12px;fill:#00ffff;fill-rule:evenodd;stroke:#00ffff;stroke-width:0.625;stroke-linejoin:round"
         id="path4832" />
    </marker>
    <marker
       style="overflow:visible"
       id="Arrow2Mendpv"
       refX="0"
       refY="0"
       orient="auto"
       inkscape:stockid="Arrow2Mendpv">
      <path
         inkscape:connector-curvature="0"
         transform="scale(-0.6,-0.6)"
         d="M 8.7185878,4.0337352 -2.2072895,0.01601326 8.7185884,-4.0017078 c -1.7454984,2.3720609 -1.7354408,5.6174519 -6e-7,8.035443 z"
         style="font-size:12px;fill:#008000;fill-rule:evenodd;stroke:#008000;stroke-width:0.625;stroke-linejoin:round"
         id="path4909" />
    </marker>
    <marker
       style="overflow:visible"
       id="Arrow2MendpvG"
       refX="0"
       refY="0"
       orient="auto"
       inkscape:stockid="Arrow2MendpvG">
      <path
         inkscape:connector-curvature="0"
         transform="scale(-0.6,-0.6)"
         d="M 8.7185878,4.0337352 -2.2072895,0.01601326 8.7185884,-4.0017078 c -1.7454984,2.3720609 -1.7354408,5.6174519 -6e-7,8.035443 z"
         style="font-size:12px;fill:#0000ff;fill-rule:evenodd;stroke:#0000ff;stroke-width:0.625;stroke-linejoin:round"
         id="path4990" />
    </marker>
    <marker
       style="overflow:visible"
       id="Arrow2MendW"
       refX="0"
       refY="0"
       orient="auto"
       inkscape:stockid="Arrow2MendW">
      <path
         inkscape:connector-curvature="0"
         transform="scale(-0.6,-0.6)"
         d="M 8.7185878,4.0337352 -2.2072895,0.01601326 8.7185884,-4.0017078 c -1.7454984,2.3720609 -1.7354408,5.6174519 -6e-7,8.035443 z"
         style="font-size:12px;fill:#008000;fill-rule:evenodd;stroke:#008000;stroke-width:0.625;stroke-linejoin:round"
         id="path5267" />
    </marker>
    <marker
       style="overflow:visible"
       id="Arrow2MendB"
       refX="0"
       refY="0"
       orient="auto"
       inkscape:stockid="Arrow2MendB">
      <path
         inkscape:connector-curvature="0"
         transform="scale(-0.6,-0.6)"
         d="M 8.7185878,4.0337352 -2.2072895,0.01601326 8.7185884,-4.0017078 c -1.7454984,2.3720609 -1.7354408,5.6174519 -6e-7,8.035443 z"
         style="font-size:12px;fill:#ff0000;fill-rule:evenodd;stroke:#ff0000;stroke-width:0.625;stroke-linejoin:round"
         id="path5552" />
    </marker>
    <marker
       style="overflow:visible"
       id="Arrow2Menda"
       refX="0"
       refY="0"
       orient="auto"
       inkscape:stockid="Arrow2Menda">
      <path
         inkscape:connector-curvature="0"
         transform="scale(-0.6,-0.6)"
         d="M 8.7185878,4.0337352 -2.2072895,0.01601326 8.7185884,-4.0017078 c -1.7454984,2.3720609 -1.7354408,5.6174519 -6e-7,8.035443 z"
         style="font-size:12px;fill:#ff0000;fill-rule:evenodd;stroke:#ff0000;stroke-width:0.625;stroke-linejoin:round"
         id="path7969" />
    </marker>
    <marker
       style="overflow:visible"
       id="Arrow2MendpvGb"
       refX="0"
       refY="0"
       orient="auto"
       inkscape:stockid="Arrow2MendpvGb">
      <path
         inkscape:connector-curvature="0"
         transform="scale(-0.6,-0.6)"
         d="M 8.7185878,4.0337352 -2.2072895,0.01601326 8.7185884,-4.0017078 c -1.7454984,2.3720609 -1.7354408,5.6174519 -6e-7,8.035443 z"
         style="font-size:12px;fill:#ff0000;fill-rule:evenodd;stroke:#ff0000;stroke-width:0.625;stroke-linejoin:round"
         id="path8737" />
    </marker>
    <marker
       style="overflow:visible"
       id="Arrow2MendBg"
       refX="0"
       refY="0"
       orient="auto"
       inkscape:stockid="Arrow2MendBg">
      <path
         inkscape:connector-curvature="0"
         transform="scale(-0.6,-0.6)"
         d="M 8.7185878,4.0337352 -2.2072895,0.01601326 8.7185884,-4.0017078 c -1.7454984,2.3720609 -1.7354408,5.6174519 -6e-7,8.035443 z"
         style="font-size:12px;fill:#000000;fill-rule:evenodd;stroke:#000000;stroke-width:0.625;stroke-linejoin:round"
         id="path9224" />
    </marker>
    <marker
       style="overflow:visible"
       id="Arrow2MendW5"
       refX="0"
       refY="0"
       orient="auto"
       inkscape:stockid="Arrow2MendW5">
      <path
         inkscape:connector-curvature="0"
         transform="scale(-0.6,-0.6)"
         d="M 8.7185878,4.0337352 -2.2072895,0.01601326 8.7185884,-4.0017078 c -1.7454984,2.3720609 -1.7354408,5.6174519 -6e-7,8.035443 z"
         style="font-size:12px;fill:#000000;fill-rule:evenodd;stroke:#000000;stroke-width:0.625;stroke-linejoin:round"
         id="path9715" />
    </marker>
    <marker
       style="overflow:visible"
       id="Arrow2MendBg-9"
       refX="0"
       refY="0"
       orient="auto"
       inkscape:stockid="Arrow2MendBg">
      <path
         inkscape:connector-curvature="0"
         transform="scale(-0.6,-0.6)"
         d="M 8.7185878,4.0337352 -2.2072895,0.01601326 8.7185884,-4.0017078 c -1.7454984,2.3720609 -1.7354408,5.6174519 -6e-7,8.035443 z"
         style="font-size:12px;fill:#000000;fill-rule:evenodd;stroke:#000000;stroke-width:0.625;stroke-linejoin:round"
         id="path9224-9" />
    </marker>
    <marker
       style="overflow:visible"
       id="Arrow2MendBg-0"
       refX="0"
       refY="0"
       orient="auto"
       inkscape:stockid="Arrow2MendBg">
      <path
         inkscape:connector-curvature="0"
         transform="scale(-0.6,-0.6)"
         d="M 8.7185878,4.0337352 -2.2072895,0.01601326 8.7185884,-4.0017078 c -1.7454984,2.3720609 -1.7354408,5.6174519 -6e-7,8.035443 z"
         style="font-size:12px;fill:#000000;fill-rule:evenodd;stroke:#000000;stroke-width:0.625;stroke-linejoin:round"
         id="path9224-5" />
    </marker>
  </defs>
  <metadata
     id="metadata3270">
    <rdf:RDF>
      <cc:Work
         rdf:about="">
        <dc:format>image/svg+xml</dc:format>
        <dc:type
           rdf:resource="http://purl.org/dc/dcmitype/StillImage" />
        <dc:title />
      </cc:Work>
    </rdf:RDF>
  </metadata>
  <g
     transform="translate(-246.95333,-81.658424)"
     id="layer1"
     inkscape:groupmode="layer"
     inkscape:label="Layer 1">
    <path
       style="fill:none;stroke:#ff0000;stroke-width:1.5;stroke-linecap:butt;stroke-linejoin:miter;stroke-miterlimit:4;stroke-opacity:1;stroke-dasharray:1.5,1.5;stroke-dashoffset:0"
       d="m 396.70034,256.77851 -50.81725,-78.27348 0,0"
       id="path2820-3-7"
       inkscape:transform-center-x="38.911375"
       inkscape:transform-center-y="-13.300042"
       inkscape:connector-curvature="0"
       sodipodi:nodetypes="ccc" />
    <path
       style="fill:none;stroke:#000000;stroke-width:1.194417px;stroke-linecap:butt;stroke-linejoin:miter;stroke-opacity:1"
       d="m 251.74071,101.52908 0,207.55678 347.79699,0 0,0"
       id="path2820"
       inkscape:connector-curvature="0" />
    <path
       style="fill:none;stroke:#ff0000;stroke-width:1.5;stroke-linecap:butt;stroke-linejoin:miter;stroke-miterlimit:4;stroke-opacity:1;stroke-dasharray:1.5,1.5;stroke-dashoffset:0"
       d="m 247.75218,319.01183 300.66057,-196.89379 0,0"
       id="path2820-3"
       inkscape:transform-center-x="-51.087539"
       inkscape:transform-center-y="-150.76397"
       inkscape:connector-curvature="0"
       sodipodi:nodetypes="ccc" />
    <path
       sodipodi:type="arc"
       style="fill:#00ffff;fill-opacity:1;stroke:#008000;stroke-width:1.5;stroke-miterlimit:4;stroke-dasharray:none;stroke-dashoffset:0"
       id="path3197"
       sodipodi:cx="-305"
       sodipodi:cy="111.47723"
       sodipodi:rx="15.714286"
       sodipodi:ry="17.857143"
       d="m -289.28571,111.47723 c 0,9.86222 -7.03553,17.85714 -15.71429,17.85714 -8.67876,0 -15.71429,-7.99492 -15.71429,-17.85714 0,-9.86223 7.03553,-17.857147 15.71429,-17.857147 8.67876,0 15.71429,7.994917 15.71429,17.857147 z"
       transform="matrix(0.21318263,0,0,0.18760071,445.84239,210.61362)" />
    <path
       inkscape:connector-curvature="0"
       id="path5338"
       d="M 446.3235,189.3402 432.04161,170.32443"
       style="fill:none;stroke:#000000;stroke-width:0.71799999;stroke-linecap:butt;stroke-linejoin:miter;stroke-miterlimit:4;stroke-opacity:1;stroke-dasharray:none;marker-end:url(#Arrow2MendBg)" />
    <text
       transform="translate(124.41121,77.819619)"
       sodipodi:linespacing="125%"
       id="text10109"
       y="467.47379"
       x="82.832512"
       style="font-size:18px;font-style:normal;font-variant:normal;font-weight:normal;font-stretch:normal;text-align:start;line-height:125%;letter-spacing:0px;word-spacing:0px;writing-mode:lr-tb;text-anchor:start;fill:none;stroke:#000000;stroke-width:1px;stroke-linecap:butt;stroke-linejoin:miter;stroke-opacity:1;font-family:Times New Roman;-inkscape-font-specification:Times New Roman"
       xml:space="preserve"><tspan
         y="467.47379"
         x="82.832512"
         id="tspan10111"
         sodipodi:role="line" /></text>
    <g
       id="g5522"
       transform="matrix(1.8551201,-1.4105704,-1.4105704,-1.8551201,812.09988,1327.1607)"
       xml:space="preserve"
       stroke-miterlimit="10.433"
       font-style="normal"
       font-variant="normal"
       font-weight="normal"
       font-stretch="normal"
       font-size-adjust="none"
       letter-spacing="normal"
       word-spacing="normal"
       ns0:text="$u_1$\n\n"
       ns0:preamble=""
       style="font-style:normal;font-variant:normal;font-weight:normal;font-stretch:normal;letter-spacing:normal;word-spacing:normal;text-anchor:start;fill:#ff0000;fill-opacity:1;fill-rule:evenodd;stroke:#000000;stroke-linecap:butt;stroke-linejoin:miter;stroke-miterlimit:10.43299961;stroke-opacity:1;stroke-dasharray:none;stroke-dashoffset:0">
<path
   style="fill:#ff0000;stroke-width:0"
   d="m 226.92,477.79 0.01,-0.04 0.01,-0.03 0.02,-0.04 0.01,-0.03 0.02,-0.04 0.02,-0.03 0.02,-0.03 0.02,-0.03 0.02,-0.03 0.02,-0.03 0.02,-0.03 0.03,-0.03 0.02,-0.02 0.03,-0.03 0.03,-0.02 0.02,-0.02 0.03,-0.03 0.03,-0.01 0.04,-0.02 0.03,-0.02 0.03,-0.02 0.03,-0.01 0.04,-0.02 0.03,-0.01 0.04,-0.01 0.04,-0.01 0.03,-0.01 0.04,0 0.04,-0.01 0.04,0 0.04,0 0.04,0 c 0.35,0 0.58,0.22 0.74,0.54 0.16,0.36 0.3,0.97 0.3,0.99 0,0.1 -0.09,0.1 -0.12,0.1 -0.1,0 -0.11,-0.04 -0.14,-0.18 -0.14,-0.56 -0.33,-1.24 -0.75,-1.24 -0.21,0 -0.31,0.13 -0.31,0.46 0,0.22 0.12,0.69 0.2,1.04 l 0.28,1.07 c 0.03,0.15 0.13,0.53 0.17,0.68 0.05,0.23 0.15,0.61 0.15,0.67 0,0.17 -0.14,0.26 -0.29,0.26 -0.05,0 -0.31,0 -0.39,-0.34 -0.19,-0.73 -0.63,-2.47 -0.75,-3 -0.01,-0.04 -0.41,-0.84 -1.14,-0.84 -0.51,0 -0.61,0.45 -0.61,0.82 0,0.56 0.28,1.34 0.53,2.03 0.12,0.3 0.17,0.44 0.17,0.63 0,0.45 -0.31,0.81 -0.81,0.81 -0.95,0 -1.32,-1.44 -1.32,-1.53 0,-0.1 0.1,-0.1 0.12,-0.1 0.1,0 0.11,0.02 0.16,0.18 0.25,0.87 0.63,1.24 1.01,1.24 0.09,0 0.25,-0.02 0.25,-0.33 0,-0.24 -0.11,-0.53 -0.17,-0.68 -0.37,-0.99 -0.58,-1.6 -0.58,-2.09 0,-0.95 0.69,-1.19 1.23,-1.19 0.65,0 1.01,0.44 1.18,0.66 z"
   id="path5524"
   inkscape:connector-curvature="0" />
<path
   style="fill:#ff0000;stroke-width:0"
   d="m 231.47,480.16 0,0.01 0,0.01 0,0.01 0,0.01 0,0 0,0.01 0,0.01 0,0.01 0,0 0,0.01 0,0 0,0.01 -0.01,0.01 0,0 0,0.01 0,0 0,0.01 0,0 0,0.01 0,0.01 -0.01,0.01 0,0 0,0.01 -0.01,0.01 0,0 -0.01,0.01 -0.01,0 0,0 -0.01,0.01 -0.01,0 -0.01,0 -0.01,0 0,0 -0.01,0 0,0 -0.01,0.01 0,0 -0.01,0 -0.01,0 0,0 -0.01,0 -0.01,0 0,0 -0.01,0 -0.01,0 -0.01,0 0,0 -0.01,0 -0.01,0 -0.01,0 c -0.45,-0.44 -1.08,-0.45 -1.37,-0.45 v -0.25 c 0.17,0 0.63,0 1.01,0.2 v -3.55 c 0,-0.23 0,-0.32 -0.69,-0.32 h -0.27 v -0.25 c 0.13,0.01 0.99,0.03 1.24,0.03 0.22,0 1.1,-0.02 1.25,-0.03 v 0.25 h -0.27 c -0.69,0 -0.69,0.09 -0.69,0.32 z"
   id="path5526"
   inkscape:connector-curvature="0" />
</g>    <g
       id="content"
       transform="matrix(1.6311441,0.00126667,0.00126667,-1.6311441,51.160274,938.15916)"
       xml:space="preserve"
       stroke-miterlimit="10.433"
       font-style="normal"
       font-variant="normal"
       font-weight="normal"
       font-stretch="normal"
       font-size-adjust="none"
       letter-spacing="normal"
       word-spacing="normal"
       ns0:text="$\\mathbf{x}_1$\n\n\n"
       ns0:preamble=""
       style="font-style:normal;font-variant:normal;font-weight:normal;font-stretch:normal;letter-spacing:normal;word-spacing:normal;text-anchor:start;fill:#0000ff;fill-opacity:1;fill-rule:evenodd;stroke:#000000;stroke-linecap:butt;stroke-linejoin:miter;stroke-miterlimit:10.43299961;stroke-opacity:1;stroke-dasharray:none;stroke-dashoffset:0">
<path
   style="fill:#0000ff;stroke-width:0"
   inkscape:connector-curvature="0"
   d="m 226.88,479.68 1.17,1.3 c 0.13,0.14 0.19,0.21 1.01,0.21 v 0.46 c -0.35,-0.02 -0.86,-0.03 -0.91,-0.03 -0.25,0 -0.75,0.02 -1.03,0.03 v -0.46 c 0.14,0 0.26,-0.02 0.38,-0.09 -0.04,-0.06 -0.04,-0.08 -0.08,-0.12 l -0.84,-0.94 -0.98,1.15 h 0.4 v 0.46 c -0.26,-0.01 -0.88,-0.03 -1.2,-0.03 -0.32,0 -0.77,0.02 -1.1,0.03 v -0.46 h 0.71 l 1.55,-1.83 -1.3,-1.47 c -0.17,-0.19 -0.53,-0.19 -1.01,-0.19 v -0.47 c 0.35,0.03 0.87,0.04 0.92,0.04 0.25,0 0.83,-0.03 1.03,-0.04 v 0.47 c -0.18,0 -0.37,0.05 -0.37,0.11 0,0.01 0,0.02 0.07,0.1 l 0.96,1.09 1.1,-1.3 h -0.39 v -0.47 c 0.26,0.01 0.87,0.04 1.2,0.04 0.32,0 0.76,-0.03 1.09,-0.04 v 0.47 h -0.7 z"
   id="path3427" />
<path
   style="fill:#0000ff;stroke-width:0"
   inkscape:connector-curvature="0"
   d="m 231.81,480.16 0,0.01 0,0.01 0,0.01 0,0.01 0,0 0,0.01 0,0.01 0,0.01 0,0 0,0.01 0,0 0,0.01 0,0.01 0,0 0,0.01 0,0 0,0.01 -0.01,0 0,0.01 0,0.01 0,0.01 -0.01,0 0,0.01 0,0.01 -0.01,0 0,0.01 -0.01,0 -0.01,0 -0.01,0.01 0,0 -0.01,0 -0.01,0 -0.01,0 0,0 -0.01,0 0,0.01 -0.01,0 -0.01,0 0,0 -0.01,0 -0.01,0 0,0 -0.01,0 -0.01,0 0,0 -0.01,0 -0.01,0 -0.01,0 -0.01,0 -0.01,0 c -0.44,-0.44 -1.08,-0.45 -1.36,-0.45 v -0.25 c 0.16,0 0.63,0 1.01,0.2 v -3.55 c 0,-0.23 0,-0.32 -0.7,-0.32 h -0.26 v -0.25 c 0.12,0.01 0.98,0.03 1.24,0.03 0.21,0 1.09,-0.02 1.24,-0.03 v 0.25 h -0.26 c -0.7,0 -0.7,0.09 -0.7,0.32 z"
   id="path3429" />
</g>    <path
       sodipodi:type="arc"
       style="fill:#0000ff;fill-opacity:1;stroke:none"
       id="path3197-5"
       sodipodi:cx="-305"
       sodipodi:cy="111.47723"
       sodipodi:rx="15.714286"
       sodipodi:ry="17.857143"
       d="m -289.28571,111.47723 c 0,9.86222 -7.03553,17.85714 -15.71429,17.85714 -8.67876,0 -15.71429,-7.99492 -15.71429,-17.85714 0,-9.86223 7.03553,-17.857147 15.71429,-17.857147 8.67876,0 15.71429,7.994917 15.71429,17.857147 z"
       transform="matrix(0.22437946,0,0,0.19745393,498.60124,145.09983)" />
    <path
       sodipodi:type="arc"
       style="fill:#0000ff;fill-opacity:1;stroke:none"
       id="path3197-5-1"
       sodipodi:cx="-305"
       sodipodi:cy="111.47723"
       sodipodi:rx="15.714286"
       sodipodi:ry="17.857143"
       d="m -289.28571,111.47723 c 0,9.86222 -7.03553,17.85714 -15.71429,17.85714 -8.67876,0 -15.71429,-7.99492 -15.71429,-17.85714 0,-9.86223 7.03553,-17.857147 15.71429,-17.857147 8.67876,0 15.71429,7.994917 15.71429,17.857147 z"
       transform="matrix(0.22437946,0,0,0.19745393,556.37564,106.2362)" />
    <g
       id="g4394"
       transform="matrix(1.4499841,0.00112599,0.00112599,-1.4499841,159.13148,812.87119)"
       xml:space="preserve"
       stroke-miterlimit="10.433"
       font-style="normal"
       font-variant="normal"
       font-weight="normal"
       font-stretch="normal"
       font-size-adjust="none"
       letter-spacing="normal"
       word-spacing="normal"
       ns0:text="$\\mathbf{x}_2$\n\n\n\n"
       ns0:preamble=""
       style="font-style:normal;font-variant:normal;font-weight:normal;font-stretch:normal;letter-spacing:normal;word-spacing:normal;text-anchor:start;fill:#0000ff;fill-opacity:1;fill-rule:evenodd;stroke:#000000;stroke-linecap:butt;stroke-linejoin:miter;stroke-miterlimit:10.43299961;stroke-opacity:1;stroke-dasharray:none;stroke-dashoffset:0">
<path
   d="m 226.88,479.68 1.17,1.3 c 0.13,0.14 0.19,0.21 1.01,0.21 v 0.46 c -0.35,-0.02 -0.86,-0.03 -0.91,-0.03 -0.25,0 -0.75,0.02 -1.03,0.03 v -0.46 c 0.14,0 0.26,-0.02 0.38,-0.09 -0.04,-0.06 -0.04,-0.08 -0.08,-0.12 l -0.84,-0.94 -0.98,1.15 h 0.4 v 0.46 c -0.26,-0.01 -0.88,-0.03 -1.2,-0.03 -0.32,0 -0.77,0.02 -1.1,0.03 v -0.46 h 0.71 l 1.55,-1.83 -1.3,-1.47 c -0.17,-0.19 -0.53,-0.19 -1.01,-0.19 v -0.47 c 0.35,0.03 0.87,0.04 0.92,0.04 0.25,0 0.83,-0.03 1.03,-0.04 v 0.47 c -0.18,0 -0.37,0.05 -0.37,0.11 0,0.01 0,0.02 0.07,0.1 l 0.96,1.09 1.1,-1.3 h -0.39 v -0.47 c 0.26,0.01 0.87,0.04 1.2,0.04 0.32,0 0.76,-0.03 1.09,-0.04 v 0.47 h -0.7 z"
   id="path4396"
   inkscape:connector-curvature="0"
   style="fill:#0000ff;stroke-width:0" />
<path
   d="m 233,477.01 h -0.24 c -0.02,-0.16 -0.09,-0.57 -0.18,-0.64 -0.06,-0.04 -0.59,-0.04 -0.69,-0.04 h -1.28 c 0.73,0.65 0.97,0.84 1.39,1.17 0.51,0.41 1,0.84 1,1.5 0,0.84 -0.74,1.36 -1.63,1.36 -0.87,0 -1.45,-0.61 -1.45,-1.25 0,-0.35 0.3,-0.39 0.37,-0.39 0.16,0 0.37,0.12 0.37,0.37 0,0.13 -0.05,0.37 -0.42,0.37 0.22,0.49 0.69,0.65 1.02,0.65 0.7,0 1.06,-0.54 1.06,-1.11 0,-0.6 -0.43,-1.08 -0.65,-1.33 l -1.68,-1.66 c -0.07,-0.06 -0.07,-0.07 -0.07,-0.27 h 2.87 z"
   id="path4398"
   inkscape:connector-curvature="0"
   style="fill:#0000ff;stroke-width:0" />
</g>    <g
       style="font-style:normal;font-variant:normal;font-weight:normal;font-stretch:normal;letter-spacing:normal;word-spacing:normal;text-anchor:start;fill:#000000;fill-opacity:1;fill-rule:evenodd;stroke:#000000;stroke-linecap:butt;stroke-linejoin:miter;stroke-miterlimit:10.43299961;stroke-opacity:1;stroke-dasharray:none;stroke-dashoffset:0"
       ns0:preamble=""
       ns0:text="$\\mathbf{e}_1$\n\n\n\n"
       word-spacing="normal"
       letter-spacing="normal"
       font-size-adjust="none"
       font-stretch="normal"
       font-weight="normal"
       font-variant="normal"
       font-style="normal"
       stroke-miterlimit="10.433"
       xml:space="preserve"
       transform="matrix(1.1675296,-0.74201622,-0.74201622,-1.1675296,536.7053,904.13441)"
       id="g4846">
<path
   id="path4848"
   d="m 228.04,479.4 0.02,0.01 0.02,0 0.02,0 0.01,0 0.02,0 0.02,0 0.01,0 0.02,0 0.01,0 0.02,0 0.01,0.01 0.01,0 0.02,0 0.01,0.01 0.01,0 0.01,0.01 0.01,0.01 0.01,0 0.01,0.01 0,0.01 0.01,0.01 0.01,0.01 0,0.01 0,0 0,0.01 0.01,0.01 0,0.01 0,0 0,0.01 0.01,0.01 0,0.01 0,0.01 0,0.01 0,0 0,0.01 0,0.01 0,0.01 0,0.02 0.01,0.01 0,0.01 0,0.01 0,0.01 c 0,0.31 -0.06,1.04 -0.56,1.54 -0.37,0.35 -0.9,0.53 -1.59,0.53 -1.59,0 -2.46,-1.02 -2.46,-2.27 0,-1.33 1,-2.3 2.6,-2.3 1.58,0 2.01,1.06 2.01,1.23 0,0.18 -0.19,0.18 -0.24,0.18 -0.17,0 -0.19,-0.05 -0.25,-0.21 -0.21,-0.48 -0.78,-0.8 -1.43,-0.8 -1.4,0 -1.41,1.33 -1.41,1.83 v 0.33 c 0.02,0.39 0.03,0.81 0.24,1.14 0.25,0.4 0.65,0.52 0.94,0.52 1.17,0 1.19,-1.31 1.2,-1.66 h -2.38 v -0.33 z"
   inkscape:connector-curvature="0"
   style="fill:#000000;stroke-width:0" />
<path
   id="path4850"
   d="m 231.02,480.16 0,0.01 0,0.01 0,0.01 0,0.01 0,0 0,0.01 0,0.01 0,0.01 -0.01,0 0,0.01 0,0 0,0.01 0,0.01 0,0 0,0.01 0,0 0,0.01 0,0 0,0.01 -0.01,0.01 0,0.01 0,0 -0.01,0.01 0,0.01 -0.01,0 0,0.01 -0.01,0 0,0 -0.01,0.01 -0.01,0 -0.01,0 -0.01,0 0,0 -0.01,0 0,0 -0.01,0.01 -0.01,0 0,0 -0.01,0 0,0 -0.01,0 -0.01,0 -0.01,0 0,0 -0.01,0 -0.01,0 -0.01,0 -0.01,0 0,0 -0.01,0 c -0.45,-0.44 -1.08,-0.45 -1.37,-0.45 v -0.25 c 0.17,0 0.63,0 1.01,0.2 v -3.55 c 0,-0.23 0,-0.32 -0.69,-0.32 h -0.27 v -0.25 c 0.13,0.01 0.98,0.03 1.24,0.03 0.22,0 1.09,-0.02 1.25,-0.03 v 0.25 h -0.27 c -0.69,0 -0.69,0.09 -0.69,0.32 z"
   inkscape:connector-curvature="0"
   style="fill:#000000;stroke-width:0" />
</g>    <g
       id="g5324"
       transform="matrix(1.2206572,-0.77578108,-0.77578108,-1.2206572,598.32992,898.56067)"
       xml:space="preserve"
       stroke-miterlimit="10.433"
       font-style="normal"
       font-variant="normal"
       font-weight="normal"
       font-stretch="normal"
       font-size-adjust="none"
       letter-spacing="normal"
       word-spacing="normal"
       ns0:text="$\\mathbf{e}_2$\n\n\n\n\n"
       ns0:preamble=""
       style="font-style:normal;font-variant:normal;font-weight:normal;font-stretch:normal;letter-spacing:normal;word-spacing:normal;text-anchor:start;fill:#000000;fill-opacity:1;fill-rule:evenodd;stroke:#000000;stroke-linecap:butt;stroke-linejoin:miter;stroke-miterlimit:10.43299961;stroke-opacity:1;stroke-dasharray:none;stroke-dashoffset:0">
<path
   d="m 228.04,479.4 0.02,0.01 0.02,0 0.02,0 0.01,0 0.02,0 0.02,0 0.01,0 0.02,0 0.01,0 0.02,0 0.01,0.01 0.01,0 0.02,0 0.01,0.01 0.01,0 0.01,0.01 0.01,0.01 0.01,0 0.01,0.01 0,0.01 0.01,0.01 0.01,0.01 0,0.01 0,0 0,0.01 0.01,0.01 0,0.01 0,0 0,0.01 0.01,0.01 0,0.01 0,0.01 0,0.01 0,0 0,0.01 0,0.01 0,0.01 0,0.02 0.01,0.01 0,0.01 0,0.01 0,0.01 c 0,0.31 -0.06,1.04 -0.56,1.54 -0.37,0.35 -0.9,0.53 -1.59,0.53 -1.59,0 -2.46,-1.02 -2.46,-2.27 0,-1.33 1,-2.3 2.6,-2.3 1.58,0 2.01,1.06 2.01,1.23 0,0.18 -0.19,0.18 -0.24,0.18 -0.17,0 -0.19,-0.05 -0.25,-0.21 -0.21,-0.48 -0.78,-0.8 -1.43,-0.8 -1.4,0 -1.41,1.33 -1.41,1.83 v 0.33 c 0.02,0.39 0.03,0.81 0.24,1.14 0.25,0.4 0.65,0.52 0.94,0.52 1.17,0 1.19,-1.31 1.2,-1.66 h -2.38 v -0.33 z"
   id="path5326"
   inkscape:connector-curvature="0"
   style="fill:#000000;stroke-width:0" />
<path
   d="m 232.2,477.01 h -0.24 c -0.02,-0.16 -0.09,-0.57 -0.18,-0.64 -0.05,-0.04 -0.59,-0.04 -0.69,-0.04 h -1.28 c 0.73,0.65 0.98,0.84 1.39,1.17 0.52,0.41 1,0.84 1,1.5 0,0.84 -0.74,1.36 -1.63,1.36 -0.86,0 -1.45,-0.61 -1.45,-1.25 0,-0.35 0.3,-0.39 0.37,-0.39 0.17,0 0.37,0.12 0.37,0.37 0,0.13 -0.05,0.37 -0.41,0.37 0.21,0.49 0.69,0.65 1.02,0.65 0.69,0 1.05,-0.54 1.05,-1.11 0,-0.6 -0.43,-1.08 -0.65,-1.33 l -1.68,-1.66 c -0.07,-0.06 -0.07,-0.07 -0.07,-0.27 h 2.87 z"
   id="path5328"
   inkscape:connector-curvature="0"
   style="fill:#000000;stroke-width:0" />
</g>    <g
       style="font-style:normal;font-variant:normal;font-weight:normal;font-stretch:normal;letter-spacing:normal;word-spacing:normal;text-anchor:start;fill:#00ccff;fill-opacity:1;fill-rule:evenodd;stroke:#000000;stroke-linecap:butt;stroke-linejoin:miter;stroke-miterlimit:10.43299961000000000;stroke-opacity:1;stroke-dasharray:none;stroke-dashoffset:0"
       ns0:preamble=""
       ns0:text="$\\mu$\n\n\n\n"
       word-spacing="normal"
       letter-spacing="normal"
       font-size-adjust="none"
       font-stretch="normal"
       font-weight="normal"
       font-variant="normal"
       font-style="normal"
       stroke-miterlimit="10.433"
       xml:space="preserve"
       transform="matrix(2.3648765,0.00183645,0.00183645,-2.3648765,-147.26881,1370.4677)"
       id="g5808">
<path
   id="path5810"
   d="m 225.74,480.73 0,0.02 0,0.02 0.01,0.02 0.01,0.02 0,0.03 0.01,0.02 0.01,0.05 0.01,0.05 0.01,0.05 0.02,0.05 0.01,0.05 0,0.02 0.01,0.02 0,0.02 0.01,0.03 0,0.02 0.01,0.02 0,0.02 0.01,0.01 0,0.02 0,0.02 0.01,0.01 0,0.01 0,0.01 0,0.01 0,0.01 0,0 0,0 c 0,0.17 -0.12,0.27 -0.28,0.27 -0.03,0 -0.31,-0.01 -0.4,-0.35 l -1.44,-5.77 c -0.03,-0.12 -0.03,-0.14 -0.03,-0.16 0,-0.15 0.11,-0.27 0.28,-0.27 0.21,0 0.33,0.18 0.35,0.21 0.04,0.09 0.17,0.61 0.55,2.14 0.32,-0.26 0.77,-0.3 0.96,-0.3 0.7,0 1.09,0.44 1.33,0.72 0.09,-0.45 0.46,-0.72 0.9,-0.72 0.35,0 0.58,0.22 0.74,0.54 0.16,0.36 0.29,0.97 0.29,0.99 0,0.1 -0.09,0.1 -0.12,0.1 -0.1,0 -0.11,-0.04 -0.13,-0.18 -0.17,-0.65 -0.35,-1.24 -0.76,-1.24 -0.27,0 -0.3,0.26 -0.3,0.46 0,0.22 0.12,0.69 0.2,1.04 l 0.28,1.07 c 0.03,0.15 0.13,0.53 0.17,0.68 0.05,0.23 0.15,0.61 0.15,0.67 0,0.17 -0.14,0.26 -0.29,0.26 -0.05,0 -0.31,0 -0.39,-0.34 l -0.47,-1.86 c -0.12,-0.5 -0.23,-0.92 -0.26,-1.02 -0.01,-0.05 -0.49,-0.96 -1.3,-0.96 -0.49,0 -0.73,0.33 -0.73,0.87 0,0.29 0.07,0.57 0.14,0.85 z"
   inkscape:connector-curvature="0"
   style="fill:#00ccff;stroke-width:0" />
</g>    <path
       inkscape:connector-curvature="0"
       id="path5338-7"
       d="M 504.34613,150.92429 490.06424,131.90852"
       style="fill:none;stroke:#000000;stroke-width:0.71799999;stroke-linecap:butt;stroke-linejoin:miter;stroke-miterlimit:4;stroke-opacity:1;stroke-dasharray:none;marker-end:url(#Arrow2MendBg)" />
    <path
       sodipodi:type="arc"
       style="fill:#0000ff;fill-opacity:1;stroke:none"
       id="path3197-5-1-5"
       sodipodi:cx="-305"
       sodipodi:cy="111.47723"
       sodipodi:rx="15.714286"
       sodipodi:ry="17.857143"
       d="m -289.28571,111.47723 c 0,9.86222 -7.03553,17.85714 -15.71429,17.85714 -8.67876,0 -15.71429,-7.99492 -15.71429,-17.85714 0,-9.86223 7.03553,-17.857147 15.71429,-17.857147 8.67876,0 15.71429,7.994917 15.71429,17.857147 z"
       transform="matrix(0.22437946,0,0,0.19745393,422.52824,261.31785)" />
    <path
       sodipodi:type="arc"
       style="fill:#0000ff;fill-opacity:1;stroke:none"
       id="path3197-5-1-4"
       sodipodi:cx="-305"
       sodipodi:cy="111.47723"
       sodipodi:rx="15.714286"
       sodipodi:ry="17.857143"
       d="m -289.28571,111.47723 c 0,9.86222 -7.03553,17.85714 -15.71429,17.85714 -8.67876,0 -15.71429,-7.99492 -15.71429,-17.85714 0,-9.86223 7.03553,-17.857147 15.71429,-17.857147 8.67876,0 15.71429,7.994917 15.71429,17.857147 z"
       transform="matrix(0.22437946,0,0,0.19745393,374.546,234.04374)" />
    <path
       sodipodi:type="arc"
       style="fill:#0000ff;fill-opacity:1;stroke:none"
       id="path3197-5-1-7"
       sodipodi:cx="-305"
       sodipodi:cy="111.47723"
       sodipodi:rx="15.714286"
       sodipodi:ry="17.857143"
       d="m -289.28571,111.47723 c 0,9.86222 -7.03553,17.85714 -15.71429,17.85714 -8.67876,0 -15.71429,-7.99492 -15.71429,-17.85714 0,-9.86223 7.03553,-17.857147 15.71429,-17.857147 8.67876,0 15.71429,7.994917 15.71429,17.857147 z"
       transform="matrix(0.22437946,0,0,0.19745393,470.00541,180.00057)" />
    <path
       sodipodi:type="arc"
       style="fill:#0000ff;fill-opacity:1;stroke:none"
       id="path3197-5-1-2"
       sodipodi:cx="-305"
       sodipodi:cy="111.47723"
       sodipodi:rx="15.714286"
       sodipodi:ry="17.857143"
       d="m -289.28571,111.47723 c 0,9.86222 -7.03553,17.85714 -15.71429,17.85714 -8.67876,0 -15.71429,-7.99492 -15.71429,-17.85714 0,-9.86223 7.03553,-17.857147 15.71429,-17.857147 8.67876,0 15.71429,7.994917 15.71429,17.857147 z"
       transform="matrix(0.22437946,0,0,0.19745393,480.10693,161.31275)" />
    <path
       sodipodi:type="arc"
       style="fill:#0000ff;fill-opacity:1;stroke:none"
       id="path3197-5-1-8"
       sodipodi:cx="-305"
       sodipodi:cy="111.47723"
       sodipodi:rx="15.714286"
       sodipodi:ry="17.857143"
       d="m -289.28571,111.47723 c 0,9.86222 -7.03553,17.85714 -15.71429,17.85714 -8.67876,0 -15.71429,-7.99492 -15.71429,-17.85714 0,-9.86223 7.03553,-17.857147 15.71429,-17.857147 8.67876,0 15.71429,7.994917 15.71429,17.857147 z"
       transform="matrix(0.22437946,0,0,0.19745393,490.20846,208.78992)" />
    <path
       sodipodi:type="arc"
       style="fill:#0000ff;fill-opacity:1;stroke:none"
       id="path3197-5-1-54"
       sodipodi:cx="-305"
       sodipodi:cy="111.47723"
       sodipodi:rx="15.714286"
       sodipodi:ry="17.857143"
       d="m -289.28571,111.47723 c 0,9.86222 -7.03553,17.85714 -15.71429,17.85714 -8.67876,0 -15.71429,-7.99492 -15.71429,-17.85714 0,-9.86223 7.03553,-17.857147 15.71429,-17.857147 8.67876,0 15.71429,7.994917 15.71429,17.857147 z"
       transform="matrix(0.22437946,0,0,0.19745393,330.09928,276.97522)" />
    <path
       sodipodi:type="arc"
       style="fill:#0000ff;fill-opacity:1;stroke:none"
       id="path3197-5-1-9"
       sodipodi:cx="-305"
       sodipodi:cy="111.47723"
       sodipodi:rx="15.714286"
       sodipodi:ry="17.857143"
       d="m -289.28571,111.47723 c 0,9.86222 -7.03553,17.85714 -15.71429,17.85714 -8.67876,0 -15.71429,-7.99492 -15.71429,-17.85714 0,-9.86223 7.03553,-17.857147 15.71429,-17.857147 8.67876,0 15.71429,7.994917 15.71429,17.857147 z"
       transform="matrix(0.22437946,0,0,0.19745393,403.33534,204.24423)" />
    <path
       sodipodi:type="arc"
       style="fill:#0000ff;fill-opacity:1;stroke:none"
       id="path3197-5-1-88"
       sodipodi:cx="-305"
       sodipodi:cy="111.47723"
       sodipodi:rx="15.714286"
       sodipodi:ry="17.857143"
       d="m -289.28571,111.47723 c 0,9.86222 -7.03553,17.85714 -15.71429,17.85714 -8.67876,0 -15.71429,-7.99492 -15.71429,-17.85714 0,-9.86223 7.03553,-17.857147 15.71429,-17.857147 8.67876,0 15.71429,7.994917 15.71429,17.857147 z"
       transform="matrix(0.22437946,0,0,0.19745393,424.04347,232.5285)" />
    <path
       sodipodi:type="arc"
       style="fill:#0000ff;fill-opacity:1;stroke:none"
       id="path3197-5-1-3"
       sodipodi:cx="-305"
       sodipodi:cy="111.47723"
       sodipodi:rx="15.714286"
       sodipodi:ry="17.857143"
       d="m -289.28571,111.47723 c 0,9.86222 -7.03553,17.85714 -15.71429,17.85714 -8.67876,0 -15.71429,-7.99492 -15.71429,-17.85714 0,-9.86223 7.03553,-17.857147 15.71429,-17.857147 8.67876,0 15.71429,7.994917 15.71429,17.857147 z"
       transform="matrix(0.22437946,0,0,0.19745393,367.47492,266.87369)" />
    <path
       sodipodi:type="arc"
       style="fill:#0000ff;fill-opacity:1;stroke:none"
       id="path3197-5-1-0"
       sodipodi:cx="-305"
       sodipodi:cy="111.47723"
       sodipodi:rx="15.714286"
       sodipodi:ry="17.857143"
       d="m -289.28571,111.47723 c 0,9.86222 -7.03553,17.85714 -15.71429,17.85714 -8.67876,0 -15.71429,-7.99492 -15.71429,-17.85714 0,-9.86223 7.03553,-17.857147 15.71429,-17.857147 8.67876,0 15.71429,7.994917 15.71429,17.857147 z"
       transform="matrix(0.22437946,0,0,0.19745393,554.85822,159.29245)" />
    <path
       sodipodi:type="arc"
       style="fill:#0000ff;fill-opacity:1;stroke:none"
       id="path3197-5-1-04"
       sodipodi:cx="-305"
       sodipodi:cy="111.47723"
       sodipodi:rx="15.714286"
       sodipodi:ry="17.857143"
       d="m -289.28571,111.47723 c 0,9.86222 -7.03553,17.85714 -15.71429,17.85714 -8.67876,0 -15.71429,-7.99492 -15.71429,-17.85714 0,-9.86223 7.03553,-17.857147 15.71429,-17.857147 8.67876,0 15.71429,7.994917 15.71429,17.857147 z"
       transform="matrix(0.22437946,0,0,0.19745393,608.39631,117.87619)" />
    <path
       sodipodi:type="arc"
       style="fill:#0000ff;fill-opacity:1;stroke:none"
       id="path3197-5-1-1"
       sodipodi:cx="-305"
       sodipodi:cy="111.47723"
       sodipodi:rx="15.714286"
       sodipodi:ry="17.857143"
       d="m -289.28571,111.47723 c 0,9.86222 -7.03553,17.85714 -15.71429,17.85714 -8.67876,0 -15.71429,-7.99492 -15.71429,-17.85714 0,-9.86223 7.03553,-17.857147 15.71429,-17.857147 8.67876,0 15.71429,7.994917 15.71429,17.857147 z"
       transform="matrix(0.22437946,0,0,0.19745393,507.88614,182.52596)" />
    <path
       sodipodi:type="arc"
       style="fill:#0000ff;fill-opacity:1;stroke:none"
       id="path3197-5-1-44"
       sodipodi:cx="-305"
       sodipodi:cy="111.47723"
       sodipodi:rx="15.714286"
       sodipodi:ry="17.857143"
       d="m -289.28571,111.47723 c 0,9.86222 -7.03553,17.85714 -15.71429,17.85714 -8.67876,0 -15.71429,-7.99492 -15.71429,-17.85714 0,-9.86223 7.03553,-17.857147 15.71429,-17.857147 8.67876,0 15.71429,7.994917 15.71429,17.857147 z"
       transform="matrix(0.22437946,0,0,0.19745393,341.21096,237.57927)" />
    <g
       id="g7098"
       transform="matrix(2.7779827,-0.09520097,-0.09520097,-2.7779827,25.838753,1661.7725)"
       xml:space="preserve"
       stroke-miterlimit="10.433"
       font-style="normal"
       font-variant="normal"
       font-weight="normal"
       font-stretch="normal"
       font-size-adjust="none"
       letter-spacing="normal"
       word-spacing="normal"
       ns0:text="$x$\n\n\n\n"
       ns0:preamble=""
       style="font-style:normal;font-variant:normal;font-weight:normal;font-stretch:normal;letter-spacing:normal;word-spacing:normal;text-anchor:start;fill:none;stroke:#000000;stroke-linecap:butt;stroke-linejoin:miter;stroke-miterlimit:10.43299961;stroke-opacity:1;stroke-dasharray:none;stroke-dashoffset:0">
<path
   d="m 226.76,480.24 0.01,0.03 0,0.03 0.01,0.03 0.01,0.04 0.01,0.03 0.01,0.05 0.02,0.04 0.01,0.04 0.02,0.05 0.02,0.05 0.02,0.05 0.02,0.05 0.02,0.05 0.02,0.05 0.03,0.05 0.03,0.04 0.03,0.05 0.03,0.05 0.03,0.05 0.04,0.04 0.03,0.04 0.04,0.04 0.04,0.04 0.05,0.04 0.04,0.03 0.05,0.03 0.03,0.01 0.02,0.01 0.03,0.02 0.03,0.01 0.03,0 0.02,0.01 0.03,0.01 0.03,0 0.03,0.01 0.03,0 0.04,0 0.03,0.01 c 0.05,0 0.29,0 0.5,-0.13 -0.28,-0.05 -0.48,-0.3 -0.48,-0.54 0,-0.16 0.11,-0.35 0.38,-0.35 0.22,0 0.53,0.18 0.53,0.58 0,0.51 -0.58,0.65 -0.92,0.65 -0.58,0 -0.93,-0.52 -1.05,-0.75 -0.25,0.65 -0.79,0.75 -1.08,0.75 -1.03,0 -1.6,-1.28 -1.6,-1.53 0,-0.1 0.1,-0.1 0.12,-0.1 0.08,0 0.11,0.02 0.13,0.11 0.34,1.06 1,1.31 1.34,1.31 0.18,0 0.53,-0.09 0.53,-0.67 0,-0.31 -0.17,-0.98 -0.53,-2.37 -0.16,-0.62 -0.51,-1.04 -0.95,-1.04 -0.06,0 -0.29,0 -0.5,0.13 0.25,0.05 0.47,0.26 0.47,0.54 0,0.27 -0.22,0.35 -0.37,0.35 -0.3,0 -0.55,-0.26 -0.55,-0.58 0,-0.45 0.5,-0.65 0.94,-0.65 0.66,0 1.02,0.69 1.05,0.75 0.11,-0.37 0.47,-0.75 1.07,-0.75 1.03,0 1.6,1.28 1.6,1.53 0,0.1 -0.09,0.1 -0.12,0.1 -0.09,0 -0.11,-0.04 -0.13,-0.11 -0.33,-1.07 -1.01,-1.31 -1.33,-1.31 -0.39,0 -0.55,0.32 -0.55,0.66 0,0.22 0.06,0.44 0.17,0.88 z"
   id="path7100"
   inkscape:connector-curvature="0"
   style="fill:#000000;stroke-width:0" />
</g>    <g
       style="font-style:normal;font-variant:normal;font-weight:normal;font-stretch:normal;letter-spacing:normal;word-spacing:normal;text-anchor:start;fill:none;stroke:#000000;stroke-linecap:butt;stroke-linejoin:miter;stroke-miterlimit:10.43299961;stroke-opacity:1;stroke-dasharray:none;stroke-dashoffset:0"
       ns0:preamble=""
       ns0:text="$y$\n\n\n\n\n"
       word-spacing="normal"
       letter-spacing="normal"
       font-size-adjust="none"
       font-stretch="normal"
       font-weight="normal"
       font-variant="normal"
       font-style="normal"
       stroke-miterlimit="10.433"
       xml:space="preserve"
       transform="matrix(2.4971602,-0.08557723,-0.08557723,-2.4971602,-269.84662,1303.6255)"
       id="g7251">
<path
   id="path7253"
   d="m 228.28,481.03 0,0 0,0.01 0,0.01 0,0 0.01,0.01 0,0.01 0,0.01 0.01,0.01 0,0.01 0,0.01 0,0.01 0,0.01 0,0.01 0.01,0 0,0.01 0,0.01 0,0 0,0.01 0,0 0,0.01 0,0.01 0,0.01 0.01,0.01 0,0.01 0,0.01 0,0.01 0,0 0,0.01 0,0.01 c 0,0.17 -0.14,0.26 -0.29,0.26 -0.1,0 -0.26,-0.06 -0.35,-0.2 -0.02,-0.05 -0.1,-0.36 -0.14,-0.54 -0.07,-0.26 -0.14,-0.53 -0.2,-0.8 l -0.45,-1.79 c -0.04,-0.15 -0.47,-0.85 -1.13,-0.85 -0.5,0 -0.61,0.44 -0.61,0.81 0,0.46 0.17,1.08 0.5,1.95 0.16,0.41 0.2,0.52 0.2,0.72 0,0.45 -0.31,0.81 -0.81,0.81 -0.95,0 -1.32,-1.44 -1.32,-1.53 0,-0.1 0.1,-0.1 0.12,-0.1 0.1,0 0.11,0.02 0.16,0.18 0.27,0.94 0.67,1.24 1.01,1.24 0.08,0 0.25,0 0.25,-0.32 0,-0.25 -0.1,-0.51 -0.17,-0.7 -0.4,-1.05 -0.58,-1.62 -0.58,-2.09 0,-0.89 0.63,-1.18 1.22,-1.18 0.38,0 0.72,0.17 1,0.44 -0.13,-0.51 -0.25,-1 -0.65,-1.53 -0.26,-0.34 -0.63,-0.63 -1.09,-0.63 -0.14,0 -0.59,0.03 -0.76,0.42 0.16,0 0.29,0 0.43,0.12 0.1,0.09 0.2,0.22 0.2,0.41 0,0.31 -0.27,0.35 -0.37,0.35 -0.23,0 -0.56,-0.16 -0.56,-0.65 0,-0.5 0.44,-0.86 1.06,-0.86 1.02,0 2.05,0.9 2.33,2.03 z"
   inkscape:connector-curvature="0"
   style="fill:#000000;stroke-width:0" />
</g>    <g
       id="g7448"
       transform="matrix(1.8551201,-1.4105704,-1.4105704,-1.8551201,591.22572,1378.9838)"
       xml:space="preserve"
       stroke="black"
       stroke-linecap="butt"
       stroke-linejoin="miter"
       stroke-miterlimit="10.433"
       stroke-dasharray="none"
       stroke-dashoffset="0"
       stroke-opacity="1"
       fill="none"
       fill-rule="evenodd"
       fill-opacity="1"
       font-style="normal"
       font-variant="normal"
       font-weight="normal"
       font-stretch="normal"
       font-size-adjust="none"
       letter-spacing="normal"
       word-spacing="normal"
       text-anchor="start"
       ns0:text="$u_2$\n\n\n"
       ns0:preamble=""
       style="font-style:normal;font-variant:normal;font-weight:normal;font-stretch:normal;letter-spacing:normal;word-spacing:normal;text-anchor:start;fill:#ff0000;fill-opacity:1;fill-rule:evenodd;stroke:#000000;stroke-linecap:butt;stroke-linejoin:miter;stroke-miterlimit:10.43299961000000000;stroke-opacity:1;stroke-dasharray:none;stroke-dashoffset:0">
<path
   style="fill:#ff0000"
   d="M226.92,477.79 L226.93,477.75 L226.94,477.72 L226.96,477.68 L226.97,477.65 L226.99,477.61 L227.01,477.58 L227.03,477.55 L227.05,477.52 L227.07,477.49 L227.09,477.46 L227.11,477.43 L227.14,477.4 L227.16,477.38 L227.19,477.35 L227.22,477.33 L227.24,477.31 L227.27,477.28 L227.3,477.27 L227.34,477.25 L227.37,477.23 L227.4,477.21 L227.43,477.2 L227.47,477.18 L227.5,477.17 L227.54,477.16 L227.58,477.15 L227.61,477.14 L227.65,477.14 L227.69,477.13 L227.73,477.13 L227.77,477.13 L227.81,477.13 C228.16,477.13,228.39,477.35,228.55,477.67 C228.71,478.03,228.85,478.64,228.85,478.66 C228.85,478.76,228.76,478.76,228.73,478.76 C228.63,478.76,228.62,478.72,228.59,478.58 C228.45,478.02,228.26,477.34,227.84,477.34 C227.63,477.34,227.53,477.47,227.53,477.8 C227.53,478.02,227.65,478.49,227.73,478.84 L228.01,479.91 C228.04,480.06,228.14,480.44,228.18,480.59 C228.23,480.82,228.33,481.2,228.33,481.26 C228.33,481.43,228.19,481.52,228.04,481.52 C227.99,481.52,227.73,481.52,227.65,481.18 C227.46,480.45,227.02,478.71,226.9,478.18 C226.89,478.14,226.49,477.34,225.76,477.34 C225.25,477.34,225.15,477.79,225.15,478.16 C225.15,478.72,225.43,479.5,225.68,480.19 C225.8,480.49,225.85,480.63,225.85,480.82 C225.85,481.27,225.54,481.63,225.04,481.63 C224.09,481.63,223.72,480.19,223.72,480.1 C223.72,480,223.82,480,223.84,480 C223.94,480,223.95,480.02,224,480.18 C224.25,481.05,224.63,481.42,225.01,481.42 C225.1,481.42,225.26,481.4,225.26,481.09 C225.26,480.85,225.15,480.56,225.09,480.41 C224.72,479.42,224.51,478.81,224.51,478.32 C224.51,477.37,225.2,477.13,225.74,477.13 C226.39,477.13,226.75,477.57,226.92,477.79 Z "
   stroke-width="0"
   fill="black"
   id="path7450" />
<path
   style="fill:#ff0000"
   d="M232.65,477.01 H232.41 C232.39,476.85,232.32,476.44,232.23,476.37 C232.18,476.33,231.64,476.33,231.54,476.33 H230.26 C230.99,476.98,231.24,477.17,231.66,477.5 C232.17,477.91,232.65,478.34,232.65,479 C232.65,479.84,231.91,480.36,231.02,480.36 C230.16,480.36,229.57,479.75,229.57,479.11 C229.57,478.76,229.87,478.72,229.94,478.72 C230.11,478.72,230.31,478.84,230.31,479.09 C230.31,479.22,230.26,479.46,229.9,479.46 C230.12,479.95,230.59,480.11,230.92,480.11 C231.61,480.11,231.98,479.57,231.98,479 C231.98,478.4,231.54,477.92,231.32,477.67 L229.64,476.01 C229.57,475.95,229.57,475.94,229.57,475.74 H232.44 Z "
   stroke-width="0"
   fill="black"
   id="path7452" />
</g>    <g
       style="font-style:normal;font-variant:normal;font-weight:normal;font-stretch:normal;letter-spacing:normal;word-spacing:normal;text-anchor:start;fill:#0000ff;fill-opacity:1;fill-rule:evenodd;stroke:#000000;stroke-linecap:butt;stroke-linejoin:miter;stroke-miterlimit:10.43299961000000000;stroke-opacity:1;stroke-dasharray:none;stroke-dashoffset:0"
       ns0:preamble=""
       ns0:text="$\\mathbf{x}_i$\n\n\n\n"
       word-spacing="normal"
       letter-spacing="normal"
       font-size-adjust="none"
       font-stretch="normal"
       font-weight="normal"
       font-variant="normal"
       font-style="normal"
       stroke-miterlimit="10.433"
       xml:space="preserve"
       transform="matrix(1.6311441,0.00126667,0.00126667,-1.6311441,-2.6551627,1065.4918)"
       id="g3161">
<path
   id="path3163"
   d="m 226.88,479.68 1.17,1.3 c 0.13,0.14 0.19,0.21 1.01,0.21 v 0.46 c -0.35,-0.02 -0.86,-0.03 -0.91,-0.03 -0.25,0 -0.75,0.02 -1.03,0.03 v -0.46 c 0.14,0 0.26,-0.02 0.38,-0.09 -0.04,-0.06 -0.04,-0.08 -0.08,-0.12 l -0.84,-0.94 -0.98,1.15 h 0.4 v 0.46 c -0.26,-0.01 -0.88,-0.03 -1.2,-0.03 -0.32,0 -0.77,0.02 -1.1,0.03 v -0.46 h 0.71 l 1.55,-1.83 -1.3,-1.47 c -0.17,-0.19 -0.53,-0.19 -1.01,-0.19 v -0.47 c 0.35,0.03 0.87,0.04 0.92,0.04 0.25,0 0.83,-0.03 1.03,-0.04 v 0.47 c -0.18,0 -0.37,0.05 -0.37,0.11 0,0.01 0,0.02 0.07,0.1 l 0.96,1.09 1.1,-1.3 h -0.39 v -0.47 c 0.26,0.01 0.87,0.04 1.2,0.04 0.32,0 0.76,-0.03 1.09,-0.04 v 0.47 h -0.7 z"
   inkscape:connector-curvature="0"
   style="fill:#0000ff;stroke-width:0" />
<path
   id="path3165"
   d="m 231.74,480.09 -0.01,0.01 0,0.01 0,0.01 0,0.01 0,0.01 0,0.01 -0.01,0.01 0,0.02 -0.01,0.01 0,0.01 -0.01,0.01 0,0.01 -0.01,0.01 -0.01,0.01 0,0.01 -0.01,0.01 -0.01,0.01 -0.01,0.01 -0.01,0.01 -0.01,0.01 -0.01,0 -0.01,0.01 -0.01,0.01 -0.02,0.01 -0.01,0 -0.01,0.01 -0.02,0 -0.02,0 -0.01,0.01 -0.02,0 -0.02,0 -0.01,0 c -0.19,0 -0.39,-0.18 -0.39,-0.38 0,-0.12 0.09,-0.27 0.28,-0.27 0.2,0 0.39,0.2 0.39,0.39 z"
   inkscape:connector-curvature="0"
   style="fill:#0000ff;stroke-width:0" />
<path
   id="path3167"
   d="m 230.32,476.55 -0.01,-0.01 -0.01,-0.02 -0.01,-0.03 0,-0.02 -0.01,-0.02 0,-0.01 -0.01,-0.02 0,-0.02 -0.01,-0.02 0,-0.02 0,-0.01 0,-0.01 0,-0.01 -0.01,-0.01 0,-0.01 0,-0.02 0,-0.01 0,-0.01 0,-0.01 c 0,-0.32 0.28,-0.59 0.66,-0.59 0.7,0 1.01,0.96 1.01,1.06 0,0.1 -0.09,0.1 -0.12,0.1 -0.09,0 -0.1,-0.05 -0.13,-0.12 -0.16,-0.56 -0.46,-0.84 -0.74,-0.84 -0.14,0 -0.17,0.09 -0.17,0.24 0,0.16 0.05,0.29 0.11,0.44 0.07,0.19 0.15,0.38 0.23,0.56 0.06,0.17 0.31,0.8 0.34,0.88 0.02,0.07 0.04,0.16 0.04,0.23 0,0.32 -0.28,0.59 -0.66,0.59 -0.69,0 -1.01,-0.95 -1.01,-1.07 0,-0.09 0.09,-0.09 0.12,-0.09 0.09,0 0.1,0.04 0.12,0.11 0.18,0.6 0.49,0.85 0.74,0.85 0.12,0 0.18,-0.05 0.18,-0.24 0,-0.16 -0.04,-0.26 -0.22,-0.7 z"
   inkscape:connector-curvature="0"
   style="fill:#0000ff;stroke-width:0" />
</g>  </g>
</svg>
