<?xml version="1.0" encoding="UTF-8" standalone="no"?>
<!-- Created with Inkscape (http://www.inkscape.org/) -->

<svg
   xmlns:ns0="http://www.iki.fi/pav/software/textext/"
   xmlns:dc="http://purl.org/dc/elements/1.1/"
   xmlns:cc="http://creativecommons.org/ns#"
   xmlns:rdf="http://www.w3.org/1999/02/22-rdf-syntax-ns#"
   xmlns:svg="http://www.w3.org/2000/svg"
   xmlns="http://www.w3.org/2000/svg"
   xmlns:sodipodi="http://sodipodi.sourceforge.net/DTD/sodipodi-0.dtd"
   xmlns:inkscape="http://www.inkscape.org/namespaces/inkscape"
   sodipodi:docname="Quantization_MSE.svg"
   inkscape:version="0.48.1 "
   version="1.1"
   id="svg2"
   height="142.79712"
   width="271.63666">
  <sodipodi:namedview
     id="base"
     pagecolor="#ffffff"
     bordercolor="#666666"
     borderopacity="1.0"
     inkscape:pageopacity="0.0"
     inkscape:pageshadow="2"
     inkscape:zoom="5.6"
     inkscape:cx="113.4566"
     inkscape:cy="18.450149"
     inkscape:document-units="px"
     inkscape:current-layer="layer1"
     showgrid="false"
     inkscape:window-width="1600"
     inkscape:window-height="825"
     inkscape:window-x="-9"
     inkscape:window-y="-9"
     inkscape:window-maximized="1"
     inkscape:snap-global="false"
     fit-margin-top="0"
     fit-margin-left="0"
     fit-margin-right="0"
     fit-margin-bottom="0">
    <inkscape:grid
       id="grid3291"
       type="xygrid"
       empspacing="5"
       visible="true"
       enabled="true"
       snapvisiblegridlinesonly="true" />
  </sodipodi:namedview>
  <defs
     id="defs4">
    <marker
       inkscape:stockid="Arrow2Mstart"
       orient="auto"
       refY="0"
       refX="0"
       id="Arrow2Mstart"
       style="overflow:visible">
      <path
         inkscape:connector-curvature="0"
         id="path3904"
         style="font-size:12px;fill-rule:evenodd;stroke-width:0.625;stroke-linejoin:round"
         d="M 8.7185878,4.0337352 -2.2072895,0.01601326 8.7185884,-4.0017078 c -1.7454984,2.3720609 -1.7354408,5.6174519 -6e-7,8.035443 z"
         transform="scale(0.6,0.6)" />
    </marker>
    <marker
       inkscape:stockid="Arrow1Lstart"
       orient="auto"
       refY="0"
       refX="0"
       id="Arrow1Lstart"
       style="overflow:visible">
      <path
         inkscape:connector-curvature="0"
         id="path3880"
         d="M 0,0 5,-5 -12.5,0 5,5 0,0 z"
         style="fill-rule:evenodd;stroke:#000000;stroke-width:1pt;marker-start:none"
         transform="matrix(0.8,0,0,0.8,10,0)" />
    </marker>
    <inkscape:perspective
       sodipodi:type="inkscape:persp3d"
       inkscape:vp_x="0 : 526.18109 : 1"
       inkscape:vp_y="0 : 1000 : 0"
       inkscape:vp_z="744.09448 : 526.18109 : 1"
       inkscape:persp3d-origin="372.04724 : 350.78739 : 1"
       id="perspective10" />
    <inkscape:perspective
       id="perspective2895"
       inkscape:persp3d-origin="0.5 : 0.33333333 : 1"
       inkscape:vp_z="1 : 0.5 : 1"
       inkscape:vp_y="0 : 1000 : 0"
       inkscape:vp_x="0 : 0.5 : 1"
       sodipodi:type="inkscape:persp3d" />
    <inkscape:perspective
       sodipodi:type="inkscape:persp3d"
       inkscape:vp_x="0 : 0.5 : 1"
       inkscape:vp_y="0 : 1000 : 0"
       inkscape:vp_z="1 : 0.5 : 1"
       inkscape:persp3d-origin="0.5 : 0.33333333 : 1"
       id="perspective3009" />
    <inkscape:perspective
       sodipodi:type="inkscape:persp3d"
       inkscape:vp_x="0 : 0.5 : 1"
       inkscape:vp_y="0 : 1000 : 0"
       inkscape:vp_z="1 : 0.5 : 1"
       inkscape:persp3d-origin="0.5 : 0.33333333 : 1"
       id="perspective3040" />
    <inkscape:perspective
       id="perspective3127"
       inkscape:persp3d-origin="0.5 : 0.33333333 : 1"
       inkscape:vp_z="1 : 0.5 : 1"
       inkscape:vp_y="0 : 1000 : 0"
       inkscape:vp_x="0 : 0.5 : 1"
       sodipodi:type="inkscape:persp3d" />
    <inkscape:perspective
       id="perspective3127-1"
       inkscape:persp3d-origin="0.5 : 0.33333333 : 1"
       inkscape:vp_z="1 : 0.5 : 1"
       inkscape:vp_y="0 : 1000 : 0"
       inkscape:vp_x="0 : 0.5 : 1"
       sodipodi:type="inkscape:persp3d" />
    <inkscape:perspective
       id="perspective3158"
       inkscape:persp3d-origin="0.5 : 0.33333333 : 1"
       inkscape:vp_z="1 : 0.5 : 1"
       inkscape:vp_y="0 : 1000 : 0"
       inkscape:vp_x="0 : 0.5 : 1"
       sodipodi:type="inkscape:persp3d" />
    <inkscape:perspective
       sodipodi:type="inkscape:persp3d"
       inkscape:vp_x="0 : 0.5 : 1"
       inkscape:vp_y="0 : 1000 : 0"
       inkscape:vp_z="1 : 0.5 : 1"
       inkscape:persp3d-origin="0.5 : 0.33333333 : 1"
       id="perspective3277" />
    <inkscape:perspective
       sodipodi:type="inkscape:persp3d"
       inkscape:vp_x="0 : 0.5 : 1"
       inkscape:vp_y="0 : 1000 : 0"
       inkscape:vp_z="1 : 0.5 : 1"
       inkscape:persp3d-origin="0.5 : 0.33333333 : 1"
       id="perspective3277-7" />
    <inkscape:perspective
       sodipodi:type="inkscape:persp3d"
       inkscape:vp_x="0 : 0.5 : 1"
       inkscape:vp_y="0 : 1000 : 0"
       inkscape:vp_z="1 : 0.5 : 1"
       inkscape:persp3d-origin="0.5 : 0.33333333 : 1"
       id="perspective3310" />
    <inkscape:perspective
       sodipodi:type="inkscape:persp3d"
       inkscape:vp_x="0 : 0.5 : 1"
       inkscape:vp_y="0 : 1000 : 0"
       inkscape:vp_z="1 : 0.5 : 1"
       inkscape:persp3d-origin="0.5 : 0.33333333 : 1"
       id="perspective3332" />
    <inkscape:perspective
       sodipodi:type="inkscape:persp3d"
       inkscape:vp_x="0 : 0.5 : 1"
       inkscape:vp_y="0 : 1000 : 0"
       inkscape:vp_z="1 : 0.5 : 1"
       inkscape:persp3d-origin="0.5 : 0.33333333 : 1"
       id="perspective3354" />
    <inkscape:perspective
       sodipodi:type="inkscape:persp3d"
       inkscape:vp_x="0 : 0.5 : 1"
       inkscape:vp_y="0 : 1000 : 0"
       inkscape:vp_z="1 : 0.5 : 1"
       inkscape:persp3d-origin="0.5 : 0.33333333 : 1"
       id="perspective3354-3" />
    <inkscape:perspective
       sodipodi:type="inkscape:persp3d"
       inkscape:vp_x="0 : 0.5 : 1"
       inkscape:vp_y="0 : 1000 : 0"
       inkscape:vp_z="1 : 0.5 : 1"
       inkscape:persp3d-origin="0.5 : 0.33333333 : 1"
       id="perspective3385" />
    <inkscape:perspective
       sodipodi:type="inkscape:persp3d"
       inkscape:vp_x="0 : 0.5 : 1"
       inkscape:vp_y="0 : 1000 : 0"
       inkscape:vp_z="1 : 0.5 : 1"
       inkscape:persp3d-origin="0.5 : 0.33333333 : 1"
       id="perspective3407" />
    <inkscape:perspective
       sodipodi:type="inkscape:persp3d"
       inkscape:vp_x="0 : 0.5 : 1"
       inkscape:vp_y="0 : 1000 : 0"
       inkscape:vp_z="1 : 0.5 : 1"
       inkscape:persp3d-origin="0.5 : 0.33333333 : 1"
       id="perspective3407-8" />
    <inkscape:perspective
       sodipodi:type="inkscape:persp3d"
       inkscape:vp_x="0 : 0.5 : 1"
       inkscape:vp_y="0 : 1000 : 0"
       inkscape:vp_z="1 : 0.5 : 1"
       inkscape:persp3d-origin="0.5 : 0.33333333 : 1"
       id="perspective2878" />
    <inkscape:perspective
       sodipodi:type="inkscape:persp3d"
       inkscape:vp_x="0 : 0.5 : 1"
       inkscape:vp_y="0 : 1000 : 0"
       inkscape:vp_z="1 : 0.5 : 1"
       inkscape:persp3d-origin="0.5 : 0.33333333 : 1"
       id="perspective2878-7" />
    <inkscape:perspective
       sodipodi:type="inkscape:persp3d"
       inkscape:vp_x="0 : 0.5 : 1"
       inkscape:vp_y="0 : 1000 : 0"
       inkscape:vp_z="1 : 0.5 : 1"
       inkscape:persp3d-origin="0.5 : 0.33333333 : 1"
       id="perspective2909" />
    <inkscape:perspective
       sodipodi:type="inkscape:persp3d"
       inkscape:vp_x="0 : 0.5 : 1"
       inkscape:vp_y="0 : 1000 : 0"
       inkscape:vp_z="1 : 0.5 : 1"
       inkscape:persp3d-origin="0.5 : 0.33333333 : 1"
       id="perspective2909-9" />
    <inkscape:perspective
       sodipodi:type="inkscape:persp3d"
       inkscape:vp_x="0 : 0.5 : 1"
       inkscape:vp_y="0 : 1000 : 0"
       inkscape:vp_z="1 : 0.5 : 1"
       inkscape:persp3d-origin="0.5 : 0.33333333 : 1"
       id="perspective2909-8" />
    <inkscape:perspective
       sodipodi:type="inkscape:persp3d"
       inkscape:vp_x="0 : 0.5 : 1"
       inkscape:vp_y="0 : 1000 : 0"
       inkscape:vp_z="1 : 0.5 : 1"
       inkscape:persp3d-origin="0.5 : 0.33333333 : 1"
       id="perspective2909-2" />
    <inkscape:perspective
       sodipodi:type="inkscape:persp3d"
       inkscape:vp_x="0 : 0.5 : 1"
       inkscape:vp_y="0 : 1000 : 0"
       inkscape:vp_z="1 : 0.5 : 1"
       inkscape:persp3d-origin="0.5 : 0.33333333 : 1"
       id="perspective2909-5" />
    <inkscape:perspective
       sodipodi:type="inkscape:persp3d"
       inkscape:vp_x="0 : 0.5 : 1"
       inkscape:vp_y="0 : 1000 : 0"
       inkscape:vp_z="1 : 0.5 : 1"
       inkscape:persp3d-origin="0.5 : 0.33333333 : 1"
       id="perspective2909-7" />
    <inkscape:perspective
       sodipodi:type="inkscape:persp3d"
       inkscape:vp_x="0 : 0.5 : 1"
       inkscape:vp_y="0 : 1000 : 0"
       inkscape:vp_z="1 : 0.5 : 1"
       inkscape:persp3d-origin="0.5 : 0.33333333 : 1"
       id="perspective2976" />
    <inkscape:perspective
       sodipodi:type="inkscape:persp3d"
       inkscape:vp_x="0 : 0.5 : 1"
       inkscape:vp_y="0 : 1000 : 0"
       inkscape:vp_z="1 : 0.5 : 1"
       inkscape:persp3d-origin="0.5 : 0.33333333 : 1"
       id="perspective2998" />
    <inkscape:perspective
       id="perspective3176"
       inkscape:persp3d-origin="0.5 : 0.33333333 : 1"
       inkscape:vp_z="1 : 0.5 : 1"
       inkscape:vp_y="0 : 1000 : 0"
       inkscape:vp_x="0 : 0.5 : 1"
       sodipodi:type="inkscape:persp3d" />
    <inkscape:perspective
       sodipodi:type="inkscape:persp3d"
       inkscape:vp_x="0 : 0.5 : 1"
       inkscape:vp_y="0 : 1000 : 0"
       inkscape:vp_z="1 : 0.5 : 1"
       inkscape:persp3d-origin="0.5 : 0.33333333 : 1"
       id="perspective3382" />
    <inkscape:perspective
       sodipodi:type="inkscape:persp3d"
       inkscape:vp_x="0 : 0.5 : 1"
       inkscape:vp_y="0 : 1000 : 0"
       inkscape:vp_z="1 : 0.5 : 1"
       inkscape:persp3d-origin="0.5 : 0.33333333 : 1"
       id="perspective4176" />
    <inkscape:perspective
       id="perspective4380"
       inkscape:persp3d-origin="0.5 : 0.33333333 : 1"
       inkscape:vp_z="1 : 0.5 : 1"
       inkscape:vp_y="0 : 1000 : 0"
       inkscape:vp_x="0 : 0.5 : 1"
       sodipodi:type="inkscape:persp3d" />
    <inkscape:perspective
       id="perspective2967"
       inkscape:persp3d-origin="0.5 : 0.33333333 : 1"
       inkscape:vp_z="1 : 0.5 : 1"
       inkscape:vp_y="0 : 1000 : 0"
       inkscape:vp_x="0 : 0.5 : 1"
       sodipodi:type="inkscape:persp3d" />
    <inkscape:perspective
       id="perspective3770"
       inkscape:persp3d-origin="0.5 : 0.33333333 : 1"
       inkscape:vp_z="1 : 0.5 : 1"
       inkscape:vp_y="0 : 1000 : 0"
       inkscape:vp_x="0 : 0.5 : 1"
       sodipodi:type="inkscape:persp3d" />
    <inkscape:perspective
       id="perspective3770-4"
       inkscape:persp3d-origin="0.5 : 0.33333333 : 1"
       inkscape:vp_z="1 : 0.5 : 1"
       inkscape:vp_y="0 : 1000 : 0"
       inkscape:vp_x="0 : 0.5 : 1"
       sodipodi:type="inkscape:persp3d" />
    <inkscape:perspective
       id="perspective3770-8"
       inkscape:persp3d-origin="0.5 : 0.33333333 : 1"
       inkscape:vp_z="1 : 0.5 : 1"
       inkscape:vp_y="0 : 1000 : 0"
       inkscape:vp_x="0 : 0.5 : 1"
       sodipodi:type="inkscape:persp3d" />
    <inkscape:perspective
       id="perspective3770-45"
       inkscape:persp3d-origin="0.5 : 0.33333333 : 1"
       inkscape:vp_z="1 : 0.5 : 1"
       inkscape:vp_y="0 : 1000 : 0"
       inkscape:vp_x="0 : 0.5 : 1"
       sodipodi:type="inkscape:persp3d" />
    <inkscape:perspective
       id="perspective3770-1"
       inkscape:persp3d-origin="0.5 : 0.33333333 : 1"
       inkscape:vp_z="1 : 0.5 : 1"
       inkscape:vp_y="0 : 1000 : 0"
       inkscape:vp_x="0 : 0.5 : 1"
       sodipodi:type="inkscape:persp3d" />
    <inkscape:perspective
       id="perspective3770-11"
       inkscape:persp3d-origin="0.5 : 0.33333333 : 1"
       inkscape:vp_z="1 : 0.5 : 1"
       inkscape:vp_y="0 : 1000 : 0"
       inkscape:vp_x="0 : 0.5 : 1"
       sodipodi:type="inkscape:persp3d" />
    <inkscape:perspective
       id="perspective3770-7"
       inkscape:persp3d-origin="0.5 : 0.33333333 : 1"
       inkscape:vp_z="1 : 0.5 : 1"
       inkscape:vp_y="0 : 1000 : 0"
       inkscape:vp_x="0 : 0.5 : 1"
       sodipodi:type="inkscape:persp3d" />
    <inkscape:perspective
       id="perspective3846"
       inkscape:persp3d-origin="0.5 : 0.33333333 : 1"
       inkscape:vp_z="1 : 0.5 : 1"
       inkscape:vp_y="0 : 1000 : 0"
       inkscape:vp_x="0 : 0.5 : 1"
       sodipodi:type="inkscape:persp3d" />
    <inkscape:perspective
       sodipodi:type="inkscape:persp3d"
       inkscape:vp_x="0 : 0.5 : 1"
       inkscape:vp_y="0 : 1000 : 0"
       inkscape:vp_z="1 : 0.5 : 1"
       inkscape:persp3d-origin="0.5 : 0.33333333 : 1"
       id="perspective4201" />
    <inkscape:perspective
       id="perspective4589"
       inkscape:persp3d-origin="0.5 : 0.33333333 : 1"
       inkscape:vp_z="1 : 0.5 : 1"
       inkscape:vp_y="0 : 1000 : 0"
       inkscape:vp_x="0 : 0.5 : 1"
       sodipodi:type="inkscape:persp3d" />
    <inkscape:perspective
       id="perspective4611"
       inkscape:persp3d-origin="0.5 : 0.33333333 : 1"
       inkscape:vp_z="1 : 0.5 : 1"
       inkscape:vp_y="0 : 1000 : 0"
       inkscape:vp_x="0 : 0.5 : 1"
       sodipodi:type="inkscape:persp3d" />
    <inkscape:perspective
       id="perspective4633"
       inkscape:persp3d-origin="0.5 : 0.33333333 : 1"
       inkscape:vp_z="1 : 0.5 : 1"
       inkscape:vp_y="0 : 1000 : 0"
       inkscape:vp_x="0 : 0.5 : 1"
       sodipodi:type="inkscape:persp3d" />
    <inkscape:perspective
       id="perspective4655"
       inkscape:persp3d-origin="0.5 : 0.33333333 : 1"
       inkscape:vp_z="1 : 0.5 : 1"
       inkscape:vp_y="0 : 1000 : 0"
       inkscape:vp_x="0 : 0.5 : 1"
       sodipodi:type="inkscape:persp3d" />
    <inkscape:perspective
       id="perspective4655-8"
       inkscape:persp3d-origin="0.5 : 0.33333333 : 1"
       inkscape:vp_z="1 : 0.5 : 1"
       inkscape:vp_y="0 : 1000 : 0"
       inkscape:vp_x="0 : 0.5 : 1"
       sodipodi:type="inkscape:persp3d" />
    <inkscape:perspective
       id="perspective4696"
       inkscape:persp3d-origin="0.5 : 0.33333333 : 1"
       inkscape:vp_z="1 : 0.5 : 1"
       inkscape:vp_y="0 : 1000 : 0"
       inkscape:vp_x="0 : 0.5 : 1"
       sodipodi:type="inkscape:persp3d" />
    <inkscape:perspective
       id="perspective5448"
       inkscape:persp3d-origin="0.5 : 0.33333333 : 1"
       inkscape:vp_z="1 : 0.5 : 1"
       inkscape:vp_y="0 : 1000 : 0"
       inkscape:vp_x="0 : 0.5 : 1"
       sodipodi:type="inkscape:persp3d" />
    <inkscape:perspective
       id="perspective5448-4"
       inkscape:persp3d-origin="0.5 : 0.33333333 : 1"
       inkscape:vp_z="1 : 0.5 : 1"
       inkscape:vp_y="0 : 1000 : 0"
       inkscape:vp_x="0 : 0.5 : 1"
       sodipodi:type="inkscape:persp3d" />
    <inkscape:perspective
       id="perspective5448-1"
       inkscape:persp3d-origin="0.5 : 0.33333333 : 1"
       inkscape:vp_z="1 : 0.5 : 1"
       inkscape:vp_y="0 : 1000 : 0"
       inkscape:vp_x="0 : 0.5 : 1"
       sodipodi:type="inkscape:persp3d" />
    <inkscape:perspective
       id="perspective5448-3"
       inkscape:persp3d-origin="0.5 : 0.33333333 : 1"
       inkscape:vp_z="1 : 0.5 : 1"
       inkscape:vp_y="0 : 1000 : 0"
       inkscape:vp_x="0 : 0.5 : 1"
       sodipodi:type="inkscape:persp3d" />
    <inkscape:perspective
       id="perspective5497"
       inkscape:persp3d-origin="0.5 : 0.33333333 : 1"
       inkscape:vp_z="1 : 0.5 : 1"
       inkscape:vp_y="0 : 1000 : 0"
       inkscape:vp_x="0 : 0.5 : 1"
       sodipodi:type="inkscape:persp3d" />
    <inkscape:perspective
       sodipodi:type="inkscape:persp3d"
       inkscape:vp_x="0 : 0.5 : 1"
       inkscape:vp_y="0 : 1000 : 0"
       inkscape:vp_z="1 : 0.5 : 1"
       inkscape:persp3d-origin="0.5 : 0.33333333 : 1"
       id="perspective5912" />
    <inkscape:perspective
       id="perspective6367"
       inkscape:persp3d-origin="0.5 : 0.33333333 : 1"
       inkscape:vp_z="1 : 0.5 : 1"
       inkscape:vp_y="0 : 1000 : 0"
       inkscape:vp_x="0 : 0.5 : 1"
       sodipodi:type="inkscape:persp3d" />
    <inkscape:perspective
       id="perspective6367-7"
       inkscape:persp3d-origin="0.5 : 0.33333333 : 1"
       inkscape:vp_z="1 : 0.5 : 1"
       inkscape:vp_y="0 : 1000 : 0"
       inkscape:vp_x="0 : 0.5 : 1"
       sodipodi:type="inkscape:persp3d" />
    <inkscape:perspective
       id="perspective6367-3"
       inkscape:persp3d-origin="0.5 : 0.33333333 : 1"
       inkscape:vp_z="1 : 0.5 : 1"
       inkscape:vp_y="0 : 1000 : 0"
       inkscape:vp_x="0 : 0.5 : 1"
       sodipodi:type="inkscape:persp3d" />
    <inkscape:perspective
       id="perspective6367-9"
       inkscape:persp3d-origin="0.5 : 0.33333333 : 1"
       inkscape:vp_z="1 : 0.5 : 1"
       inkscape:vp_y="0 : 1000 : 0"
       inkscape:vp_x="0 : 0.5 : 1"
       sodipodi:type="inkscape:persp3d" />
    <inkscape:perspective
       id="perspective6367-6"
       inkscape:persp3d-origin="0.5 : 0.33333333 : 1"
       inkscape:vp_z="1 : 0.5 : 1"
       inkscape:vp_y="0 : 1000 : 0"
       inkscape:vp_x="0 : 0.5 : 1"
       sodipodi:type="inkscape:persp3d" />
    <inkscape:perspective
       id="perspective6367-0"
       inkscape:persp3d-origin="0.5 : 0.33333333 : 1"
       inkscape:vp_z="1 : 0.5 : 1"
       inkscape:vp_y="0 : 1000 : 0"
       inkscape:vp_x="0 : 0.5 : 1"
       sodipodi:type="inkscape:persp3d" />
    <inkscape:perspective
       id="perspective6367-8"
       inkscape:persp3d-origin="0.5 : 0.33333333 : 1"
       inkscape:vp_z="1 : 0.5 : 1"
       inkscape:vp_y="0 : 1000 : 0"
       inkscape:vp_x="0 : 0.5 : 1"
       sodipodi:type="inkscape:persp3d" />
    <inkscape:perspective
       id="perspective6445"
       inkscape:persp3d-origin="0.5 : 0.33333333 : 1"
       inkscape:vp_z="1 : 0.5 : 1"
       inkscape:vp_y="0 : 1000 : 0"
       inkscape:vp_x="0 : 0.5 : 1"
       sodipodi:type="inkscape:persp3d" />
    <inkscape:perspective
       id="perspective6445-2"
       inkscape:persp3d-origin="0.5 : 0.33333333 : 1"
       inkscape:vp_z="1 : 0.5 : 1"
       inkscape:vp_y="0 : 1000 : 0"
       inkscape:vp_x="0 : 0.5 : 1"
       sodipodi:type="inkscape:persp3d" />
    <inkscape:perspective
       id="perspective6480"
       inkscape:persp3d-origin="0.5 : 0.33333333 : 1"
       inkscape:vp_z="1 : 0.5 : 1"
       inkscape:vp_y="0 : 1000 : 0"
       inkscape:vp_x="0 : 0.5 : 1"
       sodipodi:type="inkscape:persp3d" />
    <inkscape:perspective
       id="perspective6502"
       inkscape:persp3d-origin="0.5 : 0.33333333 : 1"
       inkscape:vp_z="1 : 0.5 : 1"
       inkscape:vp_y="0 : 1000 : 0"
       inkscape:vp_x="0 : 0.5 : 1"
       sodipodi:type="inkscape:persp3d" />
    <inkscape:perspective
       id="perspective6502-5"
       inkscape:persp3d-origin="0.5 : 0.33333333 : 1"
       inkscape:vp_z="1 : 0.5 : 1"
       inkscape:vp_y="0 : 1000 : 0"
       inkscape:vp_x="0 : 0.5 : 1"
       sodipodi:type="inkscape:persp3d" />
    <inkscape:perspective
       id="perspective6502-9"
       inkscape:persp3d-origin="0.5 : 0.33333333 : 1"
       inkscape:vp_z="1 : 0.5 : 1"
       inkscape:vp_y="0 : 1000 : 0"
       inkscape:vp_x="0 : 0.5 : 1"
       sodipodi:type="inkscape:persp3d" />
    <inkscape:perspective
       id="perspective6502-6"
       inkscape:persp3d-origin="0.5 : 0.33333333 : 1"
       inkscape:vp_z="1 : 0.5 : 1"
       inkscape:vp_y="0 : 1000 : 0"
       inkscape:vp_x="0 : 0.5 : 1"
       sodipodi:type="inkscape:persp3d" />
    <inkscape:perspective
       id="perspective6502-3"
       inkscape:persp3d-origin="0.5 : 0.33333333 : 1"
       inkscape:vp_z="1 : 0.5 : 1"
       inkscape:vp_y="0 : 1000 : 0"
       inkscape:vp_x="0 : 0.5 : 1"
       sodipodi:type="inkscape:persp3d" />
    <inkscape:perspective
       id="perspective6502-93"
       inkscape:persp3d-origin="0.5 : 0.33333333 : 1"
       inkscape:vp_z="1 : 0.5 : 1"
       inkscape:vp_y="0 : 1000 : 0"
       inkscape:vp_x="0 : 0.5 : 1"
       sodipodi:type="inkscape:persp3d" />
    <inkscape:perspective
       id="perspective3023"
       inkscape:persp3d-origin="0.5 : 0.33333333 : 1"
       inkscape:vp_z="1 : 0.5 : 1"
       inkscape:vp_y="0 : 1000 : 0"
       inkscape:vp_x="0 : 0.5 : 1"
       sodipodi:type="inkscape:persp3d" />
    <inkscape:perspective
       id="perspective3047"
       inkscape:persp3d-origin="0.5 : 0.33333333 : 1"
       inkscape:vp_z="1 : 0.5 : 1"
       inkscape:vp_y="0 : 1000 : 0"
       inkscape:vp_x="0 : 0.5 : 1"
       sodipodi:type="inkscape:persp3d" />
    <inkscape:perspective
       id="perspective3073"
       inkscape:persp3d-origin="0.5 : 0.33333333 : 1"
       inkscape:vp_z="1 : 0.5 : 1"
       inkscape:vp_y="0 : 1000 : 0"
       inkscape:vp_x="0 : 0.5 : 1"
       sodipodi:type="inkscape:persp3d" />
    <inkscape:perspective
       id="perspective3101"
       inkscape:persp3d-origin="0.5 : 0.33333333 : 1"
       inkscape:vp_z="1 : 0.5 : 1"
       inkscape:vp_y="0 : 1000 : 0"
       inkscape:vp_x="0 : 0.5 : 1"
       sodipodi:type="inkscape:persp3d" />
    <inkscape:perspective
       id="perspective3101-2"
       inkscape:persp3d-origin="0.5 : 0.33333333 : 1"
       inkscape:vp_z="1 : 0.5 : 1"
       inkscape:vp_y="0 : 1000 : 0"
       inkscape:vp_x="0 : 0.5 : 1"
       sodipodi:type="inkscape:persp3d" />
    <inkscape:perspective
       id="perspective3922"
       inkscape:persp3d-origin="0.5 : 0.33333333 : 1"
       inkscape:vp_z="1 : 0.5 : 1"
       inkscape:vp_y="0 : 1000 : 0"
       inkscape:vp_x="0 : 0.5 : 1"
       sodipodi:type="inkscape:persp3d" />
    <inkscape:perspective
       id="perspective3922-1"
       inkscape:persp3d-origin="0.5 : 0.33333333 : 1"
       inkscape:vp_z="1 : 0.5 : 1"
       inkscape:vp_y="0 : 1000 : 0"
       inkscape:vp_x="0 : 0.5 : 1"
       sodipodi:type="inkscape:persp3d" />
    <inkscape:perspective
       id="perspective3922-5"
       inkscape:persp3d-origin="0.5 : 0.33333333 : 1"
       inkscape:vp_z="1 : 0.5 : 1"
       inkscape:vp_y="0 : 1000 : 0"
       inkscape:vp_x="0 : 0.5 : 1"
       sodipodi:type="inkscape:persp3d" />
    <inkscape:perspective
       id="perspective3922-7"
       inkscape:persp3d-origin="0.5 : 0.33333333 : 1"
       inkscape:vp_z="1 : 0.5 : 1"
       inkscape:vp_y="0 : 1000 : 0"
       inkscape:vp_x="0 : 0.5 : 1"
       sodipodi:type="inkscape:persp3d" />
    <inkscape:perspective
       id="perspective3971"
       inkscape:persp3d-origin="0.5 : 0.33333333 : 1"
       inkscape:vp_z="1 : 0.5 : 1"
       inkscape:vp_y="0 : 1000 : 0"
       inkscape:vp_x="0 : 0.5 : 1"
       sodipodi:type="inkscape:persp3d" />
    <inkscape:perspective
       id="perspective3971-4"
       inkscape:persp3d-origin="0.5 : 0.33333333 : 1"
       inkscape:vp_z="1 : 0.5 : 1"
       inkscape:vp_y="0 : 1000 : 0"
       inkscape:vp_x="0 : 0.5 : 1"
       sodipodi:type="inkscape:persp3d" />
    <inkscape:perspective
       id="perspective3971-3"
       inkscape:persp3d-origin="0.5 : 0.33333333 : 1"
       inkscape:vp_z="1 : 0.5 : 1"
       inkscape:vp_y="0 : 1000 : 0"
       inkscape:vp_x="0 : 0.5 : 1"
       sodipodi:type="inkscape:persp3d" />
    <inkscape:perspective
       id="perspective4033"
       inkscape:persp3d-origin="0.5 : 0.33333333 : 1"
       inkscape:vp_z="1 : 0.5 : 1"
       inkscape:vp_y="0 : 1000 : 0"
       inkscape:vp_x="0 : 0.5 : 1"
       sodipodi:type="inkscape:persp3d" />
    <inkscape:perspective
       id="perspective3039"
       inkscape:persp3d-origin="0.5 : 0.33333333 : 1"
       inkscape:vp_z="1 : 0.5 : 1"
       inkscape:vp_y="0 : 1000 : 0"
       inkscape:vp_x="0 : 0.5 : 1"
       sodipodi:type="inkscape:persp3d" />
    <inkscape:perspective
       id="perspective3066"
       inkscape:persp3d-origin="0.5 : 0.33333333 : 1"
       inkscape:vp_z="1 : 0.5 : 1"
       inkscape:vp_y="0 : 1000 : 0"
       inkscape:vp_x="0 : 0.5 : 1"
       sodipodi:type="inkscape:persp3d" />
    <inkscape:perspective
       id="perspective3091"
       inkscape:persp3d-origin="0.5 : 0.33333333 : 1"
       inkscape:vp_z="1 : 0.5 : 1"
       inkscape:vp_y="0 : 1000 : 0"
       inkscape:vp_x="0 : 0.5 : 1"
       sodipodi:type="inkscape:persp3d" />
    <marker
       inkscape:stockid="Arrow2Mstart8"
       orient="auto"
       refY="0"
       refX="0"
       id="Arrow2Mstart8"
       style="overflow:visible">
      <path
         inkscape:connector-curvature="0"
         id="path4792"
         style="font-size:12px;fill:#0000ff;fill-rule:evenodd;stroke:#0000ff;stroke-width:0.625;stroke-linejoin:round"
         d="M 8.7185878,4.0337352 -2.2072895,0.01601326 8.7185884,-4.0017078 c -1.7454984,2.3720609 -1.7354408,5.6174519 -6e-7,8.035443 z"
         transform="scale(0.6,0.6)" />
    </marker>
    <inkscape:perspective
       sodipodi:type="inkscape:persp3d"
       inkscape:vp_x="0 : 0.5 : 1"
       inkscape:vp_y="0 : 1000 : 0"
       inkscape:vp_z="1 : 0.5 : 1"
       inkscape:persp3d-origin="0.5 : 0.33333333 : 1"
       id="perspective5194" />
    <marker
       inkscape:stockid="Arrow2Mstart8"
       orient="auto"
       refY="0"
       refX="0"
       id="Arrow2Mstart8-0"
       style="overflow:visible">
      <path
         inkscape:connector-curvature="0"
         id="path4792-9"
         style="font-size:12px;fill:#0000ff;fill-rule:evenodd;stroke:#0000ff;stroke-width:0.625;stroke-linejoin:round"
         d="M 8.7185878,4.0337352 -2.2072895,0.01601326 8.7185884,-4.0017078 c -1.7454984,2.3720609 -1.7354408,5.6174519 -6e-7,8.035443 z"
         transform="scale(0.6,0.6)" />
    </marker>
    <marker
       inkscape:stockid="Arrow2Mstart8j"
       orient="auto"
       refY="0"
       refX="0"
       id="Arrow2Mstart8j"
       style="overflow:visible">
      <path
         inkscape:connector-curvature="0"
         id="path5312"
         style="font-size:12px;fill:#000000;fill-rule:evenodd;stroke:#000000;stroke-width:0.625;stroke-linejoin:round"
         d="M 8.7185878,4.0337352 -2.2072895,0.01601326 8.7185884,-4.0017078 c -1.7454984,2.3720609 -1.7354408,5.6174519 -6e-7,8.035443 z"
         transform="scale(0.6,0.6)" />
    </marker>
    <inkscape:perspective
       id="perspective5719"
       inkscape:persp3d-origin="0.5 : 0.33333333 : 1"
       inkscape:vp_z="1 : 0.5 : 1"
       inkscape:vp_y="0 : 1000 : 0"
       inkscape:vp_x="0 : 0.5 : 1"
       sodipodi:type="inkscape:persp3d" />
    <inkscape:perspective
       id="perspective5744"
       inkscape:persp3d-origin="0.5 : 0.33333333 : 1"
       inkscape:vp_z="1 : 0.5 : 1"
       inkscape:vp_y="0 : 1000 : 0"
       inkscape:vp_x="0 : 0.5 : 1"
       sodipodi:type="inkscape:persp3d" />
    <inkscape:perspective
       sodipodi:type="inkscape:persp3d"
       inkscape:vp_x="0 : 0.5 : 1"
       inkscape:vp_y="0 : 1000 : 0"
       inkscape:vp_z="1 : 0.5 : 1"
       inkscape:persp3d-origin="0.5 : 0.33333333 : 1"
       id="perspective4422" />
    <inkscape:perspective
       sodipodi:type="inkscape:persp3d"
       inkscape:vp_x="0 : 0.5 : 1"
       inkscape:vp_y="0 : 1000 : 0"
       inkscape:vp_z="1 : 0.5 : 1"
       inkscape:persp3d-origin="0.5 : 0.33333333 : 1"
       id="perspective4444" />
    <inkscape:perspective
       id="perspective3695"
       inkscape:persp3d-origin="0.5 : 0.33333333 : 1"
       inkscape:vp_z="1 : 0.5 : 1"
       inkscape:vp_y="0 : 1000 : 0"
       inkscape:vp_x="0 : 0.5 : 1"
       sodipodi:type="inkscape:persp3d" />
    <inkscape:perspective
       id="perspective3717"
       inkscape:persp3d-origin="0.5 : 0.33333333 : 1"
       inkscape:vp_z="1 : 0.5 : 1"
       inkscape:vp_y="0 : 1000 : 0"
       inkscape:vp_x="0 : 0.5 : 1"
       sodipodi:type="inkscape:persp3d" />
    <marker
       inkscape:stockid="Arrow2Mstart81"
       orient="auto"
       refY="0"
       refX="0"
       id="Arrow2Mstart81"
       style="overflow:visible">
      <path
         inkscape:connector-curvature="0"
         id="path5327"
         style="font-size:12px;fill:#4d4d4d;fill-rule:evenodd;stroke:#4d4d4d;stroke-width:0.625;stroke-linejoin:round"
         d="M 8.7185878,4.0337352 -2.2072895,0.01601326 8.7185884,-4.0017078 c -1.7454984,2.3720609 -1.7354408,5.6174519 -6e-7,8.035443 z"
         transform="scale(0.6,0.6)" />
    </marker>
    <marker
       inkscape:stockid="Arrow2Mstart8jE"
       orient="auto"
       refY="0"
       refX="0"
       id="Arrow2Mstart8jE"
       style="overflow:visible">
      <path
         inkscape:connector-curvature="0"
         id="path5738"
         style="font-size:12px;fill:#333333;fill-rule:evenodd;stroke:#333333;stroke-width:0.625;stroke-linejoin:round"
         d="M 8.7185878,4.0337352 -2.2072895,0.01601326 8.7185884,-4.0017078 c -1.7454984,2.3720609 -1.7354408,5.6174519 -6e-7,8.035443 z"
         transform="scale(0.6,0.6)" />
    </marker>
    <marker
       inkscape:stockid="Arrow2Mstart81"
       orient="auto"
       refY="0"
       refX="0"
       id="Arrow2Mstart81-4"
       style="overflow:visible">
      <path
         inkscape:connector-curvature="0"
         id="path5327-1"
         style="font-size:12px;fill:#4d4d4d;fill-rule:evenodd;stroke:#4d4d4d;stroke-width:0.625;stroke-linejoin:round"
         d="M 8.7185878,4.0337352 -2.2072895,0.01601326 8.7185884,-4.0017078 c -1.7454984,2.3720609 -1.7354408,5.6174519 -6e-7,8.035443 z"
         transform="scale(0.6,0.6)" />
    </marker>
  </defs>
  <metadata
     id="metadata7">
    <rdf:RDF>
      <cc:Work
         rdf:about="">
        <dc:format>image/svg+xml</dc:format>
        <dc:type
           rdf:resource="http://purl.org/dc/dcmitype/StillImage" />
        <dc:title />
      </cc:Work>
    </rdf:RDF>
  </metadata>
  <g
     inkscape:label="Layer 1"
     inkscape:groupmode="layer"
     id="layer1"
     transform="translate(-7.4195322,139.98091)">
    <path
       inkscape:connector-curvature="0"
       id="path2854"
       d="m 10.056634,-29.74655 c 260.051586,-0.1824 260.051586,-0.36479 260.051586,-0.36479"
       style="fill:none;stroke:#000000;stroke-width:1;stroke-linecap:butt;stroke-linejoin:miter;stroke-miterlimit:4;stroke-opacity:1;stroke-dasharray:none" />
    <path
       inkscape:connector-curvature="0"
       id="path2860"
       d="m 10.214945,-30.30523 c 129.842855,-0.21695 113.488595,-147.52841 159.577845,-73.7642 46.08922,73.7642 80.78011,73.33029 80.78011,73.33029"
       style="fill:#eeaaff;stroke:#e580ff;stroke-width:0.60000002;stroke-linecap:butt;stroke-linejoin:miter;stroke-miterlimit:4;stroke-opacity:1;stroke-dasharray:none" />
    <path
       inkscape:connector-curvature="0"
       id="path2999"
       d="m 100.18049,-32.47105 c -0.0562,12.35784 -0.0562,12.68305 -0.0562,12.68305"
       style="fill:none;stroke:#0000ff;stroke-width:1.07012546px;stroke-linecap:butt;stroke-linejoin:miter;stroke-opacity:1" />
    <g
       ns0:preamble=""
       ns0:text="$f_X(x)$"
       word-spacing="normal"
       letter-spacing="normal"
       font-size-adjust="none"
       font-stretch="normal"
       font-weight="normal"
       font-variant="normal"
       font-style="normal"
       stroke-miterlimit="10.433"
       xml:space="preserve"
       transform="matrix(1,0,0,-1,-64.732144,584.07143)"
       id="g4674"
       style="font-style:normal;font-variant:normal;font-weight:normal;font-stretch:normal;letter-spacing:normal;word-spacing:normal;text-anchor:start;fill:#ab37c8;stroke:#000000;stroke-linecap:butt;stroke-linejoin:miter;stroke-miterlimit:10.43299961;stroke-opacity:1;stroke-dasharray:none;stroke-dashoffset:0">
<path
   inkscape:connector-curvature="0"
   id="path4676"
   d="m 227.09,711.11 h 0.86 c 0.2,0 0.29,0 0.29,0.2 0,0.11 -0.09,0.11 -0.26,0.11 h -0.83 c 0.11,0.57 0.1,0.55 0.21,1.13 0.04,0.21 0.18,0.92 0.24,1.04 0.09,0.19 0.26,0.34 0.47,0.34 0.03,0 0.29,0 0.48,-0.18 -0.43,-0.04 -0.54,-0.39 -0.54,-0.54 0,-0.23 0.19,-0.35 0.37,-0.35 0.26,0 0.55,0.22 0.55,0.6 0,0.46 -0.46,0.69 -0.86,0.69 -0.34,0 -0.97,-0.18 -1.27,-1.17 -0.06,-0.21 -0.09,-0.31 -0.33,-1.56 h -0.69 c -0.19,0 -0.29,0 -0.29,-0.19 0,-0.12 0.08,-0.12 0.27,-0.12 h 0.66 l -0.75,-3.94 c -0.18,-0.96 -0.35,-1.87 -0.86,-1.87 -0.04,0 -0.29,0 -0.48,0.18 0.46,0.03 0.55,0.39 0.55,0.54 0,0.23 -0.18,0.34 -0.37,0.34 -0.26,0 -0.55,-0.21 -0.55,-0.59 0,-0.45 0.44,-0.69 0.85,-0.69 0.54,0 0.94,0.59 1.12,0.97 0.32,0.62 0.55,1.83 0.56,1.9 z"
   style="fill:#ab37c8;stroke-width:0" />
<path
   inkscape:connector-curvature="0"
   id="path4678"
   d="m 232.18,708.29 0.67,0.67 c 0.89,0.88 1.16,1.15 1.79,1.18 0.09,0.01 0.17,0.01 0.17,0.15 0,0.08 -0.07,0.1 -0.09,0.1 -0.21,0 -0.45,-0.03 -0.66,-0.03 -0.18,0 -0.63,0.03 -0.81,0.03 -0.05,0 -0.14,-0.02 -0.14,-0.15 0,-0.01 0,-0.09 0.11,-0.1 0.06,0 0.23,-0.02 0.23,-0.17 0,-0.11 -0.1,-0.22 -0.17,-0.29 -0.06,-0.05 -0.94,-0.91 -1.2,-1.18 l -0.7,1.37 c -0.02,0.02 -0.04,0.07 -0.04,0.1 0,0.05 0.13,0.16 0.37,0.17 0.05,0 0.15,0.01 0.15,0.15 0,0.01 -0.01,0.1 -0.12,0.1 -0.15,0 -0.32,-0.02 -0.47,-0.02 -0.14,0 -0.31,-0.01 -0.45,-0.01 -0.12,0 -0.29,0 -0.41,0.01 -0.12,0.01 -0.27,0.02 -0.38,0.02 -0.04,0 -0.15,0 -0.15,-0.15 0,-0.1 0.09,-0.1 0.21,-0.1 0.4,0 0.43,-0.07 0.51,-0.21 l 0.97,-1.92 -0.39,-0.39 c -0.13,-0.13 -0.46,-0.44 -0.58,-0.57 -0.86,-0.85 -1.14,-1.14 -1.77,-1.17 -0.1,-0.01 -0.17,-0.01 -0.17,-0.15 0,-0.03 0.02,-0.1 0.09,-0.1 0.21,0 0.44,0.03 0.65,0.03 0.12,0 0.3,0 0.41,-0.01 0.13,-0.01 0.28,-0.02 0.4,-0.02 0.04,0 0.15,0 0.15,0.15 0,0.09 -0.09,0.1 -0.13,0.1 -0.07,0.01 -0.21,0.03 -0.21,0.17 0,0.12 0.09,0.21 0.24,0.36 0.47,0.47 0.94,0.93 1.42,1.39 l 0.84,-1.65 c 0.03,-0.07 0.04,-0.09 0.04,-0.1 0,-0.04 -0.12,-0.15 -0.37,-0.17 -0.06,-0.01 -0.15,-0.01 -0.15,-0.15 0,-0.01 0,-0.1 0.12,-0.1 0.14,0 0.32,0.02 0.46,0.02 0.15,0 0.31,0.01 0.46,0.01 0.12,0 0.28,0 0.41,-0.01 0.12,-0.01 0.26,-0.02 0.38,-0.02 0.03,0 0.14,0 0.14,0.15 0,0.1 -0.09,0.1 -0.2,0.1 -0.41,0 -0.44,0.08 -0.5,0.2 z"
   style="fill:#ab37c8;stroke-width:0" />
<path
   inkscape:connector-curvature="0"
   id="path4680"
   d="m 239.18,704.73 0,0.01 0,0 0,0.01 0,0 0,0 0,0 0,0.01 -0.01,0 0,0.01 0,0 0,0 0,0.01 -0.01,0 0,0.01 -0.01,0 0,0.01 -0.01,0.01 0,0 0,0.01 -0.01,0 0,0.01 0,0 -0.01,0.01 0,0 -0.01,0 0,0.01 -0.01,0 0,0.01 -0.01,0 0,0.01 -0.01,0.01 0,0 -0.01,0.01 0,0 -0.01,0.01 -0.01,0.01 0,0 -0.01,0.01 -0.01,0.01 0,0.01 -0.01,0 -0.01,0.01 c -1.25,1.26 -1.56,3.14 -1.56,4.66 0,1.74 0.37,3.47 1.6,4.72 0.13,0.12 0.13,0.14 0.13,0.16 0,0.08 -0.04,0.1 -0.1,0.1 -0.1,0 -1,-0.67 -1.58,-1.94 -0.51,-1.09 -0.63,-2.2 -0.63,-3.04 0,-0.77 0.11,-1.98 0.66,-3.1 0.59,-1.23 1.45,-1.88 1.55,-1.88 0.06,0 0.1,0.03 0.1,0.1 z"
   style="fill:#ab37c8;stroke-width:0" />
<path
   inkscape:connector-curvature="0"
   id="path4682"
   d="m 243.09,710.13 0,0.03 0.01,0.03 0.01,0.03 0.01,0.04 0.01,0.03 0.01,0.05 0.01,0.04 0.02,0.04 0.01,0.05 0.02,0.05 0.02,0.05 0.02,0.05 0.02,0.05 0.03,0.05 0.02,0.05 0.03,0.05 0.03,0.04 0.03,0.05 0.04,0.05 0.03,0.04 0.04,0.05 0.04,0.04 0.04,0.03 0.04,0.04 0.05,0.03 0.05,0.03 0.02,0.01 0.03,0.02 0.03,0.01 0.02,0.01 0.03,0.01 0.03,0 0.03,0.01 0.03,0.01 0.03,0 0.03,0 0.03,0.01 0.03,0 c 0.05,0 0.29,0 0.5,-0.13 -0.28,-0.05 -0.48,-0.3 -0.48,-0.54 0,-0.16 0.11,-0.35 0.38,-0.35 0.22,0 0.54,0.18 0.54,0.58 0,0.52 -0.59,0.66 -0.93,0.66 -0.57,0 -0.92,-0.53 -1.04,-0.76 -0.25,0.66 -0.79,0.76 -1.08,0.76 -1.03,0 -1.6,-1.29 -1.6,-1.54 0,-0.1 0.1,-0.1 0.12,-0.1 0.08,0 0.11,0.02 0.13,0.11 0.34,1.06 0.99,1.31 1.33,1.31 0.19,0 0.54,-0.09 0.54,-0.67 0,-0.31 -0.17,-0.98 -0.54,-2.37 -0.16,-0.62 -0.51,-1.04 -0.95,-1.04 -0.05,0 -0.28,0 -0.49,0.13 0.25,0.05 0.46,0.26 0.46,0.54 0,0.27 -0.21,0.35 -0.36,0.35 -0.3,0 -0.55,-0.26 -0.55,-0.58 0,-0.46 0.5,-0.66 0.94,-0.66 0.65,0 1.01,0.7 1.04,0.76 0.12,-0.37 0.48,-0.76 1.08,-0.76 1.02,0 1.59,1.29 1.59,1.54 0,0.1 -0.09,0.1 -0.12,0.1 -0.09,0 -0.11,-0.04 -0.13,-0.11 -0.33,-1.07 -1,-1.31 -1.32,-1.31 -0.39,0 -0.55,0.32 -0.55,0.66 0,0.22 0.06,0.44 0.17,0.88 z"
   style="fill:#ab37c8;stroke-width:0" />
<path
   inkscape:connector-curvature="0"
   id="path4684"
   d="m 248.33,709.61 0,0.08 0,0.07 0,0.08 0,0.08 -0.01,0.17 -0.01,0.18 -0.02,0.18 -0.02,0.19 -0.03,0.2 -0.03,0.2 -0.04,0.2 -0.05,0.21 -0.05,0.21 -0.06,0.21 -0.07,0.21 -0.08,0.22 -0.04,0.1 -0.05,0.11 -0.05,0.11 -0.05,0.1 c -0.59,1.23 -1.45,1.87 -1.55,1.87 -0.06,0 -0.1,-0.04 -0.1,-0.1 0,-0.02 0,-0.04 0.19,-0.22 0.98,-0.99 1.54,-2.57 1.54,-4.66 0,-1.7 -0.37,-3.45 -1.6,-4.71 -0.13,-0.12 -0.13,-0.14 -0.13,-0.17 0,-0.06 0.04,-0.1 0.1,-0.1 0.1,0 1,0.68 1.58,1.95 0.51,1.09 0.63,2.2 0.63,3.03 z"
   style="fill:#ab37c8;stroke-width:0" />
</g>    <path
       inkscape:connector-curvature="0"
       id="path2999-6"
       d="m 69.849529,-32.31863 c -0.0562,12.35784 -0.0562,12.68305 -0.0562,12.68305"
       style="fill:none;stroke:#0000ff;stroke-width:1.07012546px;stroke-linecap:butt;stroke-linejoin:miter;stroke-opacity:1" />
    <path
       inkscape:connector-curvature="0"
       id="path2999-6-8"
       d="m 40.117385,-32.22934 c -0.0562,12.35784 -0.0562,12.68305 -0.0562,12.68305"
       style="fill:none;stroke:#0000ff;stroke-width:1.07012546px;stroke-linecap:butt;stroke-linejoin:miter;stroke-opacity:1" />
    <path
       inkscape:connector-curvature="0"
       id="path2999-6-8-5"
       d="m 10.181822,-139.48091 c -0.0065,117.00912 -0.0065,120.08833 -0.0065,120.08833"
       style="fill:none;stroke:#000000;stroke-width:1;stroke-linecap:butt;stroke-linejoin:miter;stroke-miterlimit:4;stroke-opacity:1;stroke-dasharray:none" />
    <path
       inkscape:connector-curvature="0"
       id="path2999-9"
       d="m 129.93882,-32.22934 c -0.0562,12.35784 -0.0562,12.68305 -0.0562,12.68305"
       style="fill:none;stroke:#0000ff;stroke-width:1.07012546px;stroke-linecap:butt;stroke-linejoin:miter;stroke-opacity:1" />
    <g
       id="g4889"
       transform="matrix(0.75045432,0,0,-0.75022349,-160.60719,517.17494)"
       xml:space="preserve"
       stroke-miterlimit="10.433"
       font-style="normal"
       font-variant="normal"
       font-weight="normal"
       font-stretch="normal"
       font-size-adjust="none"
       letter-spacing="normal"
       word-spacing="normal"
       ns0:text="$b_1$"
       ns0:preamble=""
       style="font-style:normal;font-variant:normal;font-weight:normal;font-stretch:normal;letter-spacing:normal;word-spacing:normal;text-anchor:start;fill:#0000ff;stroke:#000000;stroke-linecap:butt;stroke-linejoin:miter;stroke-miterlimit:10.43299961;stroke-opacity:1;stroke-dasharray:none;stroke-dashoffset:0">
<path
   inkscape:connector-curvature="0"
   d="m 225.81,713.93 0,0 0,0 0,0 0,0 0,0 0,0.01 0,0 0,0 0,0.01 0,0 0,0.01 0,0 0,0.01 0,0 -0.01,0.01 0,0 0,0.01 -0.01,0 0,0.01 0,0 -0.01,0 0,0.01 0,0 -0.01,0 0,0 0,0.01 0,0 -0.01,0 0,0 0,0 -0.01,0 0,0.01 -0.01,0 0,0 0,0 -0.01,0 0,0 -0.01,0 0,0 -0.01,0.01 0,0 -0.01,0 0,0 -0.01,0 -0.01,0 c -0.22,0 -0.95,-0.08 -1.21,-0.1 -0.08,-0.01 -0.19,-0.02 -0.19,-0.2 0,-0.12 0.09,-0.12 0.24,-0.12 0.48,0 0.5,-0.07 0.5,-0.17 0,-0.07 -0.09,-0.41 -0.14,-0.62 l -0.82,-3.25 c -0.12,-0.49 -0.16,-0.65 -0.16,-1 0,-0.95 0.53,-1.57 1.27,-1.57 v 0.22 c -0.34,0 -0.67,0.27 -0.67,1.01 0,0.19 0,0.38 0.16,1 l 0.22,0.92 c 0.06,0.22 0.06,0.24 0.15,0.35 0.48,0.65 0.93,0.8 1.19,0.8 0.36,0 0.63,-0.3 0.63,-0.94 0,-0.59 -0.33,-1.73 -0.51,-2.11 -0.33,-0.67 -0.79,-1.03 -1.17,-1.03 v -0.22 c 1.17,0 2.4,1.49 2.4,2.92 0,0.91 -0.53,1.6 -1.33,1.6 -0.46,0 -0.86,-0.29 -1.16,-0.6 z"
   id="path4891"
   style="fill:#0000ff;stroke-width:0" />
<path
   inkscape:connector-curvature="0"
   d="m 230.04,710.07 0,0 0,0.01 0,0.01 0,0.01 0,0.01 0,0 0,0.01 0,0.01 0,0 0,0.01 0,0.01 0,0 0,0.01 0,0 0,0.01 0,0.01 0,0 0,0.01 -0.01,0 0,0.01 0,0.01 0,0.01 -0.01,0 0,0.01 -0.01,0 0,0.01 -0.01,0 -0.01,0.01 0,0 -0.01,0 -0.01,0 -0.01,0.01 0,0 -0.01,0 -0.01,0 0,0 -0.01,0 0,0 -0.01,0 -0.01,0 0,0 -0.01,0 -0.01,0 0,0 -0.01,0 -0.01,0 -0.01,0 -0.01,0 -0.01,0 0,0 c -0.45,-0.44 -1.09,-0.45 -1.37,-0.45 v -0.25 c 0.16,0 0.63,0 1.01,0.2 v -3.56 c 0,-0.23 0,-0.32 -0.7,-0.32 h -0.26 v -0.25 c 0.12,0.01 0.98,0.03 1.24,0.03 0.21,0 1.09,-0.02 1.25,-0.03 v 0.25 h -0.27 c -0.7,0 -0.7,0.09 -0.7,0.32 z"
   id="path4893"
   style="fill:#0000ff;stroke-width:0" />
</g>    <g
       style="font-style:normal;font-variant:normal;font-weight:normal;font-stretch:normal;letter-spacing:normal;word-spacing:normal;text-anchor:start;fill:#0000ff;stroke:#000000;stroke-linecap:butt;stroke-linejoin:miter;stroke-miterlimit:10.43299961;stroke-opacity:1;stroke-dasharray:none;stroke-dashoffset:0"
       ns0:preamble=""
       ns0:text="$b_2$"
       word-spacing="normal"
       letter-spacing="normal"
       font-size-adjust="none"
       font-stretch="normal"
       font-weight="normal"
       font-variant="normal"
       font-style="normal"
       stroke-miterlimit="10.433"
       xml:space="preserve"
       transform="matrix(0.75045432,0,0,-0.75022349,-129.8929,517.17494)"
       id="g5254">
<path
   inkscape:connector-curvature="0"
   id="path5256"
   d="m 225.81,713.93 0,0 0,0 0,0 0,0 0,0 0,0.01 0,0 0,0 0,0.01 0,0 0,0.01 0,0 0,0.01 0,0 -0.01,0.01 0,0 0,0.01 -0.01,0 0,0.01 0,0 -0.01,0 0,0.01 0,0 -0.01,0 0,0 0,0.01 0,0 -0.01,0 0,0 0,0 -0.01,0 0,0.01 -0.01,0 0,0 0,0 -0.01,0 0,0 -0.01,0 0,0 -0.01,0.01 0,0 -0.01,0 0,0 -0.01,0 -0.01,0 c -0.22,0 -0.95,-0.08 -1.21,-0.1 -0.08,-0.01 -0.19,-0.02 -0.19,-0.2 0,-0.12 0.09,-0.12 0.24,-0.12 0.48,0 0.5,-0.07 0.5,-0.17 0,-0.07 -0.09,-0.41 -0.14,-0.62 l -0.82,-3.25 c -0.12,-0.49 -0.16,-0.65 -0.16,-1 0,-0.95 0.53,-1.57 1.27,-1.57 v 0.22 c -0.34,0 -0.67,0.27 -0.67,1.01 0,0.19 0,0.38 0.16,1 l 0.22,0.92 c 0.06,0.22 0.06,0.24 0.15,0.35 0.48,0.65 0.93,0.8 1.19,0.8 0.36,0 0.63,-0.3 0.63,-0.94 0,-0.59 -0.33,-1.73 -0.51,-2.11 -0.33,-0.67 -0.79,-1.03 -1.17,-1.03 v -0.22 c 1.17,0 2.4,1.49 2.4,2.92 0,0.91 -0.53,1.6 -1.33,1.6 -0.46,0 -0.86,-0.29 -1.16,-0.6 z"
   style="fill:#0000ff;stroke-width:0" />
<path
   inkscape:connector-curvature="0"
   id="path5258"
   d="m 231.23,706.9 h -0.24 c -0.02,-0.15 -0.09,-0.57 -0.18,-0.63 -0.05,-0.05 -0.59,-0.05 -0.69,-0.05 h -1.28 c 0.73,0.65 0.97,0.85 1.39,1.17 0.52,0.42 1,0.85 1,1.51 0,0.84 -0.74,1.36 -1.63,1.36 -0.87,0 -1.45,-0.61 -1.45,-1.25 0,-0.35 0.3,-0.39 0.37,-0.39 0.16,0 0.37,0.12 0.37,0.37 0,0.13 -0.05,0.37 -0.41,0.37 0.21,0.5 0.68,0.65 1.01,0.65 0.7,0 1.06,-0.54 1.06,-1.11 0,-0.61 -0.43,-1.09 -0.65,-1.34 l -1.68,-1.66 c -0.07,-0.06 -0.07,-0.07 -0.07,-0.27 h 2.87 z"
   style="fill:#0000ff;stroke-width:0" />
</g>    <path
       inkscape:connector-curvature="0"
       id="path2999-9-5"
       d="m 160.0281,-32.58648 c -0.0562,12.35784 -0.0562,12.68305 -0.0562,12.68305"
       style="fill:none;stroke:#0000ff;stroke-width:1.07012546px;stroke-linecap:butt;stroke-linejoin:miter;stroke-opacity:1" />
    <path
       inkscape:connector-curvature="0"
       id="path2999-9-3"
       d="m 190.20667,-32.40791 c -0.0562,12.35784 -0.0562,12.68305 -0.0562,12.68305"
       style="fill:none;stroke:#0000ff;stroke-width:1.07012546px;stroke-linecap:butt;stroke-linejoin:miter;stroke-opacity:1" />
    <path
       inkscape:connector-curvature="0"
       id="path2999-9-2"
       d="m 220.0281,-32.22935 c -0.0562,12.35784 -0.0562,12.68305 -0.0562,12.68305"
       style="fill:none;stroke:#0000ff;stroke-width:1.07012546px;stroke-linecap:butt;stroke-linejoin:miter;stroke-opacity:1" />
    <path
       inkscape:connector-curvature="0"
       id="path2999-9-34"
       d="m 250.0281,-32.22935 c -0.0562,12.35784 -0.0562,12.68305 -0.0562,12.68305"
       style="fill:none;stroke:#0000ff;stroke-width:1.07012546px;stroke-linecap:butt;stroke-linejoin:miter;stroke-opacity:1" />
    <path
       inkscape:connector-curvature="0"
       style="fill:none;stroke:#ff0000;stroke-width:1;stroke-linecap:butt;stroke-linejoin:miter;stroke-miterlimit:4;stroke-opacity:1;stroke-dasharray:none"
       d="m 10.580357,-59.36995 c 10.491071,33.39286 14.821429,29.55357 14.821429,29.55357"
       id="path3037" />
    <path
       inkscape:connector-curvature="0"
       style="fill:none;stroke:#ff0000;stroke-width:1;stroke-linecap:butt;stroke-linejoin:miter;stroke-miterlimit:4;stroke-opacity:1;stroke-dasharray:none"
       d="M 40.000001,-59.61563 C 29.50893,-26.22277 25.178572,-30.06206 25.178572,-30.06206"
       id="path3037-7" />
    <path
       transform="matrix(0.5,0,0,0.5,-0.37745435,-71.8845)"
       sodipodi:open="true"
       sodipodi:end="6.2831679"
       sodipodi:start="0"
       d="m 53.790625,83.878426 c 0,1.534202 -1.215451,2.777919 -2.714785,2.777919 -1.499334,0 -2.714785,-1.243717 -2.714785,-2.777919 0,-1.534203 1.215451,-2.77792 2.714785,-2.77792 1.499316,0 2.714759,1.243688 2.714785,2.777871"
       sodipodi:ry="2.7779195"
       sodipodi:rx="2.7147849"
       sodipodi:cy="83.878426"
       sodipodi:cx="51.07584"
       id="path3247-6-1"
       style="fill:#000000;fill-opacity:1;fill-rule:nonzero;stroke:none"
       sodipodi:type="arc" />
    <path
       inkscape:connector-curvature="0"
       style="fill:none;stroke:#ff0000;stroke-width:1;stroke-linecap:butt;stroke-linejoin:miter;stroke-miterlimit:4;stroke-opacity:1;stroke-dasharray:none"
       d="m 40.156249,-59.62672 c 10.491071,33.39286 14.821429,29.55357 14.821429,29.55357"
       id="path3037-0" />
    <path
       inkscape:connector-curvature="0"
       style="fill:none;stroke:#ff0000;stroke-width:1;stroke-linecap:butt;stroke-linejoin:miter;stroke-miterlimit:4;stroke-opacity:1;stroke-dasharray:none"
       d="M 69.977679,-59.64918 C 59.486608,-26.25632 55.15625,-30.09561 55.15625,-30.09561"
       id="path3037-7-9" />
    <path
       transform="matrix(0.5,0,0,0.5,29.506722,-71.7556)"
       sodipodi:open="true"
       sodipodi:end="6.2831679"
       sodipodi:start="0"
       d="m 53.790625,83.878426 c 0,1.534202 -1.215451,2.777919 -2.714785,2.777919 -1.499334,0 -2.714785,-1.243717 -2.714785,-2.777919 0,-1.534203 1.215451,-2.77792 2.714785,-2.77792 1.499316,0 2.714759,1.243688 2.714785,2.777871"
       sodipodi:ry="2.7779195"
       sodipodi:rx="2.7147849"
       sodipodi:cy="83.878426"
       sodipodi:cx="51.07584"
       id="path3247-6-1-11"
       style="fill:#000000;fill-opacity:1;fill-rule:nonzero;stroke:none"
       sodipodi:type="arc" />
    <path
       inkscape:connector-curvature="0"
       style="fill:none;stroke:#ff0000;stroke-width:1;stroke-linecap:butt;stroke-linejoin:miter;stroke-miterlimit:4;stroke-opacity:1;stroke-dasharray:none"
       d="m 70.200892,-59.67136 c 10.491071,33.39286 14.821429,29.55357 14.821429,29.55357"
       id="path3037-0-8" />
    <path
       inkscape:connector-curvature="0"
       style="fill:none;stroke:#ff0000;stroke-width:1;stroke-linecap:butt;stroke-linejoin:miter;stroke-miterlimit:4;stroke-opacity:1;stroke-dasharray:none"
       d="M 99.933039,-59.64918 C 89.441965,-26.25632 85.111607,-30.09561 85.111607,-30.09561"
       id="path3037-7-9-8" />
    <path
       transform="matrix(0.5,0,0,0.5,59.640652,-71.66632)"
       sodipodi:open="true"
       sodipodi:end="6.2831679"
       sodipodi:start="0"
       d="m 53.790625,83.878426 c 0,1.534202 -1.215451,2.777919 -2.714785,2.777919 -1.499334,0 -2.714785,-1.243717 -2.714785,-2.777919 0,-1.534203 1.215451,-2.77792 2.714785,-2.77792 1.499316,0 2.714759,1.243688 2.714785,2.777871"
       sodipodi:ry="2.7779195"
       sodipodi:rx="2.7147849"
       sodipodi:cy="83.878426"
       sodipodi:cx="51.07584"
       id="path3247-6-1-1"
       style="fill:#000000;fill-opacity:1;fill-rule:nonzero;stroke:none"
       sodipodi:type="arc" />
    <path
       inkscape:connector-curvature="0"
       style="fill:none;stroke:#ff0000;stroke-width:1;stroke-linecap:butt;stroke-linejoin:miter;stroke-miterlimit:4;stroke-opacity:1;stroke-dasharray:none"
       d="m 100.15625,-59.62671 c 10.49107,33.39286 14.82143,29.55357 14.82143,29.55357"
       id="path3037-0-5" />
    <path
       inkscape:connector-curvature="0"
       style="fill:none;stroke:#ff0000;stroke-width:1;stroke-linecap:butt;stroke-linejoin:miter;stroke-miterlimit:4;stroke-opacity:1;stroke-dasharray:none"
       d="m 129.97768,-59.64917 c -10.49107,33.39286 -14.82143,29.55357 -14.82143,29.55357"
       id="path3037-7-9-1" />
    <path
       transform="matrix(0.5,0,0,0.5,89.46208,-71.97881)"
       sodipodi:open="true"
       sodipodi:end="6.2831679"
       sodipodi:start="0"
       d="m 53.790625,83.878426 c 0,1.534202 -1.215451,2.777919 -2.714785,2.777919 -1.499334,0 -2.714785,-1.243717 -2.714785,-2.777919 0,-1.534203 1.215451,-2.77792 2.714785,-2.77792 1.499316,0 2.714759,1.243688 2.714785,2.777871"
       sodipodi:ry="2.7779195"
       sodipodi:rx="2.7147849"
       sodipodi:cy="83.878426"
       sodipodi:cx="51.07584"
       id="path3247-6-1-45"
       style="fill:#000000;fill-opacity:1;fill-rule:nonzero;stroke:none"
       sodipodi:type="arc" />
    <path
       inkscape:connector-curvature="0"
       style="fill:none;stroke:#ff0000;stroke-width:1;stroke-linecap:butt;stroke-linejoin:miter;stroke-miterlimit:4;stroke-opacity:1;stroke-dasharray:none"
       d="m 159.95536,-59.57098 c -10.49107,33.39286 -14.82143,29.55357 -14.82143,29.55357"
       id="path3037-7-9-1-7" />
    <path
       inkscape:connector-curvature="0"
       style="fill:none;stroke:#ff0000;stroke-width:1;stroke-linecap:butt;stroke-linejoin:miter;stroke-miterlimit:4;stroke-opacity:1;stroke-dasharray:none"
       d="m 189.91072,-59.7049 c -10.49107,33.39286 -14.82143,29.55357 -14.82143,29.55357"
       id="path3037-7-9-1-1" />
    <path
       inkscape:connector-curvature="0"
       style="fill:none;stroke:#ff0000;stroke-width:1;stroke-linecap:butt;stroke-linejoin:miter;stroke-miterlimit:4;stroke-opacity:1;stroke-dasharray:none"
       d="m 219.91071,-59.61563 c -10.49107,33.39286 -14.82143,29.55357 -14.82143,29.55357"
       id="path3037-7-9-1-2" />
    <path
       inkscape:connector-curvature="0"
       style="fill:none;stroke:#ff0000;stroke-width:1;stroke-linecap:butt;stroke-linejoin:miter;stroke-miterlimit:4;stroke-opacity:1;stroke-dasharray:none"
       d="m 249.91072,-59.66027 c -10.49107,33.39286 -14.82143,29.55357 -14.82143,29.55357"
       id="path3037-7-9-1-6" />
    <path
       inkscape:connector-curvature="0"
       style="fill:none;stroke:#ff0000;stroke-width:1;stroke-linecap:butt;stroke-linejoin:miter;stroke-miterlimit:4;stroke-opacity:1;stroke-dasharray:none"
       d="m 130.08928,-59.48169 c 10.49107,33.39286 14.82143,29.55357 14.82143,29.55357"
       id="path3037-0-5-1" />
    <path
       transform="matrix(0.5,0,0,0.5,119.64065,-71.7556)"
       sodipodi:open="true"
       sodipodi:end="6.2831679"
       sodipodi:start="0"
       d="m 53.790625,83.878426 c 0,1.534202 -1.215451,2.777919 -2.714785,2.777919 -1.499334,0 -2.714785,-1.243717 -2.714785,-2.777919 0,-1.534203 1.215451,-2.77792 2.714785,-2.77792 1.499316,0 2.714759,1.243688 2.714785,2.777871"
       sodipodi:ry="2.7779195"
       sodipodi:rx="2.7147849"
       sodipodi:cy="83.878426"
       sodipodi:cx="51.07584"
       id="path3247-6-1-8"
       style="fill:#000000;fill-opacity:1;fill-rule:nonzero;stroke:none"
       sodipodi:type="arc" />
    <path
       inkscape:connector-curvature="0"
       style="fill:none;stroke:#ff0000;stroke-width:1;stroke-linecap:butt;stroke-linejoin:miter;stroke-miterlimit:4;stroke-opacity:1;stroke-dasharray:none"
       d="m 160.0852,-59.7183 c 10.49107,33.39286 14.82143,29.55357 14.82143,29.55357"
       id="path3037-0-5-2" />
    <path
       transform="matrix(0.5,0,0,0.5,149.64065,-71.93417)"
       sodipodi:open="true"
       sodipodi:end="6.2831679"
       sodipodi:start="0"
       d="m 53.790625,83.878426 c 0,1.534202 -1.215451,2.777919 -2.714785,2.777919 -1.499334,0 -2.714785,-1.243717 -2.714785,-2.777919 0,-1.534203 1.215451,-2.77792 2.714785,-2.77792 1.499316,0 2.714759,1.243688 2.714785,2.777871"
       sodipodi:ry="2.7779195"
       sodipodi:rx="2.7147849"
       sodipodi:cy="83.878426"
       sodipodi:cx="51.07584"
       id="path3247-6-1-0"
       style="fill:#000000;fill-opacity:1;fill-rule:nonzero;stroke:none"
       sodipodi:type="arc" />
    <path
       inkscape:connector-curvature="0"
       style="fill:none;stroke:#ff0000;stroke-width:1;stroke-linecap:butt;stroke-linejoin:miter;stroke-miterlimit:4;stroke-opacity:1;stroke-dasharray:none"
       d="m 190.02429,-59.74332 c 10.49107,33.39286 14.82143,29.55357 14.82143,29.55357"
       id="path3037-0-5-22" />
    <path
       transform="matrix(0.5,0,0,0.5,179.64065,-72.112739)"
       sodipodi:open="true"
       sodipodi:end="6.2831679"
       sodipodi:start="0"
       d="m 53.790625,83.878426 c 0,1.534202 -1.215451,2.777919 -2.714785,2.777919 -1.499334,0 -2.714785,-1.243717 -2.714785,-2.777919 0,-1.534203 1.215451,-2.77792 2.714785,-2.77792 1.499316,0 2.714759,1.243688 2.714785,2.777871"
       sodipodi:ry="2.7779195"
       sodipodi:rx="2.7147849"
       sodipodi:cy="83.878426"
       sodipodi:cx="51.07584"
       id="path3247-6-1-4"
       style="fill:#000000;fill-opacity:1;fill-rule:nonzero;stroke:none"
       sodipodi:type="arc" />
    <path
       inkscape:connector-curvature="0"
       style="fill:none;stroke:#ff0000;stroke-width:1;stroke-linecap:butt;stroke-linejoin:miter;stroke-miterlimit:4;stroke-opacity:1;stroke-dasharray:none"
       d="m 220.06301,-59.65515 c 10.49107,33.39286 14.82143,29.55357 14.82143,29.55357"
       id="path3037-0-5-22-6" />
    <path
       transform="matrix(0.5,0,0,0.5,209.64064,-71.84489)"
       sodipodi:open="true"
       sodipodi:end="6.2831679"
       sodipodi:start="0"
       d="m 53.790625,83.878426 c 0,1.534202 -1.215451,2.777919 -2.714785,2.777919 -1.499334,0 -2.714785,-1.243717 -2.714785,-2.777919 0,-1.534203 1.215451,-2.77792 2.714785,-2.77792 1.499316,0 2.714759,1.243688 2.714785,2.777871"
       sodipodi:ry="2.7779195"
       sodipodi:rx="2.7147849"
       sodipodi:cy="83.878426"
       sodipodi:cx="51.07584"
       id="path3247-6-1-4-5"
       style="fill:#000000;fill-opacity:1;fill-rule:nonzero;stroke:none"
       sodipodi:type="arc" />
    <text
       xml:space="preserve"
       style="font-size:9.73159218px;font-style:normal;font-variant:normal;font-weight:normal;font-stretch:normal;text-align:start;line-height:125%;writing-mode:lr-tb;text-anchor:start;fill:#333333;stroke:#000000;stroke-width:0.54064399px;stroke-linecap:butt;stroke-linejoin:miter;stroke-opacity:1;font-family:Times New Roman;-inkscape-font-specification:Times New Roman"
       x="7.723495"
       y="-0.11398315"
       id="text3050"
       sodipodi:linespacing="125%"><tspan
         sodipodi:role="line"
         id="tspan3052"
         x="7.723495"
         y="-0.11398315"
         style="font-size:8px;fill:#333333;stroke:none">code-vector</tspan></text>
    <path
       inkscape:connector-curvature="0"
       style="fill:none;stroke:#4d4d4d;stroke-width:1px;stroke-linecap:butt;stroke-linejoin:miter;stroke-opacity:1;marker-start:url(#Arrow2Mstart81)"
       d="m 24.843154,-18.9123 c 0,13.13198 0,13.13198 0,13.13198"
       id="path3054" />
    <text
       xml:space="preserve"
       style="font-size:9.73159218px;font-style:normal;font-variant:normal;font-weight:normal;font-stretch:normal;text-align:start;line-height:125%;writing-mode:lr-tb;text-anchor:start;fill:#333333;stroke:#000000;stroke-width:0.54064399px;stroke-linecap:butt;stroke-linejoin:miter;stroke-opacity:1;font-family:Times New Roman;-inkscape-font-specification:Times New Roman"
       x="71.247368"
       y="-3.0936182"
       id="text3050-1"
       sodipodi:linespacing="125%"><tspan
         sodipodi:role="line"
         id="tspan3052-7"
         x="71.247368"
         y="-3.0936182"
         style="font-size:8px;fill:#333333;stroke:none">partition boundary</tspan></text>
    <text
       xml:space="preserve"
       style="font-size:9.73159218px;font-style:normal;font-variant:normal;font-weight:normal;font-stretch:normal;text-align:start;line-height:125%;writing-mode:lr-tb;text-anchor:start;fill:#ab37c8;fill-opacity:1;stroke:#000000;stroke-width:0.54064399px;stroke-linecap:butt;stroke-linejoin:miter;stroke-opacity:1;font-family:Times New Roman;-inkscape-font-specification:Times New Roman"
       x="144.45016"
       y="-132.25377"
       id="text3050-1-8-4"
       sodipodi:linespacing="125%"><tspan
         sodipodi:role="line"
         id="tspan3052-7-2-5"
         x="144.45016"
         y="-132.25377"
         style="font-size:8px;fill:#ab37c8;fill-opacity:1;stroke:none">input distribution</tspan></text>
    <g
       style="font-style:normal;font-variant:normal;font-weight:normal;font-stretch:normal;letter-spacing:normal;word-spacing:normal;text-anchor:start;fill:#0000ff;stroke:#000000;stroke-linecap:butt;stroke-linejoin:miter;stroke-miterlimit:10.43299961;stroke-opacity:1;stroke-dasharray:none;stroke-dashoffset:0"
       ns0:preamble="C:\\salman\\work\\writing\\figs\\inkscapeLatex.tex"
       ns0:text="$b_{K-1}$\n"
       word-spacing="normal"
       letter-spacing="normal"
       font-size-adjust="none"
       font-stretch="normal"
       font-weight="normal"
       font-variant="normal"
       font-style="normal"
       stroke-miterlimit="10.433"
       xml:space="preserve"
       transform="matrix(0.75000036,0,0,-0.7501417,17.388512,344.66646)"
       id="g9360">
<path
   id="path9362"
   d="m 225.81,484.04 0,0 0,0 0,0 0,0 0,0 0,0.01 0,0 0,0 0,0.01 0,0 0,0.01 0,0 0,0.01 0,0 -0.01,0.01 0,0 0,0.01 -0.01,0 0,0.01 0,0 -0.01,0 0,0.01 0,0 -0.01,0 0,0 0,0.01 0,0 -0.01,0 0,0 0,0 -0.01,0 0,0.01 -0.01,0 0,0 0,0 -0.01,0 0,0 -0.01,0 0,0 -0.01,0.01 0,0 -0.01,0 0,0 -0.01,0 -0.01,0 c -0.22,0 -0.95,-0.08 -1.21,-0.1 -0.08,-0.01 -0.19,-0.02 -0.19,-0.2 0,-0.12 0.09,-0.12 0.24,-0.12 0.48,0 0.5,-0.07 0.5,-0.17 0,-0.07 -0.09,-0.41 -0.14,-0.62 l -0.82,-3.25 c -0.12,-0.49 -0.16,-0.65 -0.16,-1 0,-0.95 0.53,-1.57 1.27,-1.57 v 0.22 c -0.34,0 -0.67,0.27 -0.67,1.01 0,0.19 0,0.38 0.16,1.01 l 0.22,0.91 c 0.06,0.22 0.06,0.24 0.15,0.35 0.48,0.65 0.93,0.8 1.19,0.8 0.36,0 0.63,-0.3 0.63,-0.94 0,-0.59 -0.33,-1.73 -0.51,-2.11 -0.33,-0.67 -0.79,-1.03 -1.17,-1.03 v -0.22 c 1.17,0 2.4,1.49 2.4,2.92 0,0.91 -0.53,1.6 -1.33,1.6 -0.46,0 -0.86,-0.29 -1.16,-0.6 z"
   inkscape:connector-curvature="0"
   style="fill:#0000ff;stroke-width:0" />
<path
   id="path9364"
   d="m 231.7,478.54 -0.01,0.01 0,0 0,0.01 0,0 -0.01,0.01 0,0 0,0 0,0.01 0,0 -0.01,0.01 0,0 0,0 0,0.01 0,0 0,0 0,0 -0.01,0.01 0,0 0,0 0,0 0,0 0,0.01 0,0 0,0 0,0 0,0 0,0 0,0 0,0 0,0.01 0,0 -0.01,0 c 0,0.01 0.01,0.02 0.17,0.13 l 0.71,0.5 c 0.92,0.64 1.35,0.95 1.84,0.99 0.08,0.01 0.17,0.02 0.17,0.15 0,0.06 -0.05,0.1 -0.1,0.1 -0.14,0 -0.32,-0.02 -0.48,-0.02 -0.19,0 -0.65,0.02 -0.84,0.02 -0.04,0 -0.15,0 -0.15,-0.15 0,-0.01 0,-0.09 0.11,-0.1 0.08,-0.01 0.17,-0.02 0.17,-0.1 0,-0.12 -0.21,-0.27 -0.3,-0.34 l -2.91,-2.05 0.55,2.2 c 0.06,0.24 0.07,0.29 0.61,0.29 0.11,0 0.21,0 0.21,0.15 0,0.06 -0.04,0.1 -0.11,0.1 -0.2,0 -0.71,-0.02 -0.92,-0.02 -0.11,0 -0.36,0 -0.48,0 -0.14,0.01 -0.3,0.02 -0.44,0.02 -0.04,0 -0.14,0 -0.14,-0.15 0,-0.1 0.08,-0.1 0.23,-0.1 0.11,0 0.14,0 0.26,-0.01 0.14,-0.02 0.16,-0.03 0.16,-0.1 0,-0.01 0,-0.05 -0.03,-0.15 l -0.93,-3.71 c -0.05,-0.23 -0.07,-0.29 -0.61,-0.29 -0.13,0 -0.21,0 -0.21,-0.15 0,-0.01 0,-0.1 0.11,-0.1 0.2,0 0.71,0.03 0.91,0.03 0.11,0 0.36,0 0.48,-0.01 0.14,-0.01 0.31,-0.02 0.44,-0.02 0.05,0 0.15,0 0.15,0.15 0,0.1 -0.08,0.1 -0.22,0.1 -0.01,0 -0.14,0 -0.27,0.02 -0.16,0.01 -0.16,0.03 -0.16,0.1 0,0.06 0.07,0.31 0.33,1.34 l 1.16,0.82 1.01,-1.97 c 0.05,-0.09 0.05,-0.09 0.05,-0.13 0,-0.16 -0.2,-0.18 -0.32,-0.18 -0.09,0 -0.18,0 -0.18,-0.15 0,-0.01 0,-0.1 0.11,-0.1 0.2,0 0.7,0.03 0.9,0.03 0.21,0 0.49,-0.03 0.68,-0.03 0.09,0 0.14,0.05 0.14,0.15 0,0.1 -0.09,0.1 -0.16,0.1 -0.13,0 -0.34,0.01 -0.46,0.23 z"
   inkscape:connector-curvature="0"
   style="fill:#0000ff;stroke-width:0" />
<path
   id="path9366"
   d="m 240.08,477.32 0.01,0 0.01,0 0.01,0 0.02,0 0.02,0 0.01,0 0.01,0 0.01,0 0.02,0 0.01,0 0.01,0 0.01,0.01 0.01,0 0.01,0 0.01,0.01 0.01,0 0.01,0.01 0.01,0 0.01,0.01 0.01,0 0.01,0.01 0.01,0.01 0,0 0,0.01 0.01,0 0,0.01 0,0 0,0.01 0.01,0 0,0.01 0,0 0,0.01 0,0 0.01,0.01 0,0.01 0,0 0,0.01 0,0.01 0,0.01 0,0 c 0,0.18 -0.16,0.18 -0.28,0.18 h -4.15 c -0.12,0 -0.28,0 -0.28,-0.17 0,-0.17 0.16,-0.17 0.28,-0.17 z"
   inkscape:connector-curvature="0"
   style="fill:#0000ff;stroke-width:0" />
<path
   id="path9368"
   d="m 243.45,480.17 0,0.01 0,0.01 0,0.01 0,0.01 0,0.01 0,0 0,0.01 0,0.01 0,0 0,0.01 0,0.01 0,0 0,0.01 0,0 0,0.01 0,0.01 0,0 0,0.01 -0.01,0 0,0.01 0,0.01 0,0.01 -0.01,0 0,0.01 -0.01,0 0,0.01 -0.01,0 -0.01,0.01 0,0 -0.01,0 -0.01,0 -0.01,0.01 0,0 -0.01,0 -0.01,0 0,0 -0.01,0 0,0 -0.01,0 -0.01,0 0,0 -0.01,0 -0.01,0 0,0 -0.01,0 -0.01,0 -0.01,0 -0.01,0 -0.01,0 -0.01,0 c -0.44,-0.44 -1.08,-0.45 -1.36,-0.45 v -0.25 c 0.16,0 0.63,0 1.01,0.2 v -3.56 c 0,-0.23 0,-0.32 -0.7,-0.32 h -0.26 v -0.25 c 0.12,0.01 0.98,0.03 1.24,0.03 0.21,0 1.09,-0.02 1.25,-0.03 v 0.25 h -0.27 c -0.7,0 -0.7,0.09 -0.7,0.32 z"
   inkscape:connector-curvature="0"
   style="fill:#0000ff;stroke-width:0" />
</g>    <g
       id="g9931"
       transform="matrix(0.75000036,0,0,-0.7501417,50.433428,344.66646)"
       xml:space="preserve"
       stroke-miterlimit="10.433"
       font-style="normal"
       font-variant="normal"
       font-weight="normal"
       font-stretch="normal"
       font-size-adjust="none"
       letter-spacing="normal"
       word-spacing="normal"
       ns0:text="$b_K$\n"
       ns0:preamble="C:\\salman\\work\\writing\\figs\\inkscapeLatex.tex"
       style="font-style:normal;font-variant:normal;font-weight:normal;font-stretch:normal;letter-spacing:normal;word-spacing:normal;text-anchor:start;fill:#0000ff;stroke:#000000;stroke-linecap:butt;stroke-linejoin:miter;stroke-miterlimit:10.43299961;stroke-opacity:1;stroke-dasharray:none;stroke-dashoffset:0">
<path
   style="fill:#0000ff;stroke-width:0"
   inkscape:connector-curvature="0"
   d="m 225.81,484.04 0,0 0,0 0,0 0,0 0,0 0,0.01 0,0 0,0 0,0.01 0,0 0,0.01 0,0 0,0.01 0,0 -0.01,0.01 0,0 0,0.01 -0.01,0 0,0.01 0,0 -0.01,0 0,0.01 0,0 -0.01,0 0,0 0,0.01 0,0 -0.01,0 0,0 0,0 -0.01,0 0,0.01 -0.01,0 0,0 0,0 -0.01,0 0,0 -0.01,0 0,0 -0.01,0.01 0,0 -0.01,0 0,0 -0.01,0 -0.01,0 c -0.22,0 -0.95,-0.08 -1.21,-0.1 -0.08,-0.01 -0.19,-0.02 -0.19,-0.2 0,-0.12 0.09,-0.12 0.24,-0.12 0.48,0 0.5,-0.07 0.5,-0.17 0,-0.07 -0.09,-0.41 -0.14,-0.62 l -0.82,-3.25 c -0.12,-0.49 -0.16,-0.65 -0.16,-1 0,-0.95 0.53,-1.57 1.27,-1.57 v 0.22 c -0.34,0 -0.67,0.27 -0.67,1.01 0,0.19 0,0.38 0.16,1.01 l 0.22,0.91 c 0.06,0.22 0.06,0.24 0.15,0.35 0.48,0.65 0.93,0.8 1.19,0.8 0.36,0 0.63,-0.3 0.63,-0.94 0,-0.59 -0.33,-1.73 -0.51,-2.11 -0.33,-0.67 -0.79,-1.03 -1.17,-1.03 v -0.22 c 1.17,0 2.4,1.49 2.4,2.92 0,0.91 -0.53,1.6 -1.33,1.6 -0.46,0 -0.86,-0.29 -1.16,-0.6 z"
   id="path9933" />
<path
   style="fill:#0000ff;stroke-width:0"
   inkscape:connector-curvature="0"
   d="m 231.7,478.54 -0.01,0.01 0,0 0,0.01 0,0 -0.01,0.01 0,0 0,0 0,0.01 0,0 -0.01,0.01 0,0 0,0 0,0.01 0,0 0,0 0,0 -0.01,0.01 0,0 0,0 0,0 0,0 0,0.01 0,0 0,0 0,0 0,0 0,0 0,0 0,0 0,0.01 0,0 -0.01,0 c 0,0.01 0.01,0.02 0.17,0.13 l 0.71,0.5 c 0.92,0.64 1.35,0.95 1.84,0.99 0.08,0.01 0.17,0.02 0.17,0.15 0,0.06 -0.05,0.1 -0.1,0.1 -0.14,0 -0.32,-0.02 -0.48,-0.02 -0.19,0 -0.65,0.02 -0.84,0.02 -0.04,0 -0.15,0 -0.15,-0.15 0,-0.01 0,-0.09 0.11,-0.1 0.08,-0.01 0.17,-0.02 0.17,-0.1 0,-0.12 -0.21,-0.27 -0.3,-0.34 l -2.91,-2.05 0.55,2.2 c 0.06,0.24 0.07,0.29 0.61,0.29 0.11,0 0.21,0 0.21,0.15 0,0.06 -0.04,0.1 -0.11,0.1 -0.2,0 -0.71,-0.02 -0.92,-0.02 -0.11,0 -0.36,0 -0.48,0 -0.14,0.01 -0.3,0.02 -0.44,0.02 -0.04,0 -0.14,0 -0.14,-0.15 0,-0.1 0.08,-0.1 0.23,-0.1 0.11,0 0.14,0 0.26,-0.01 0.14,-0.02 0.16,-0.03 0.16,-0.1 0,-0.01 0,-0.05 -0.03,-0.15 l -0.93,-3.71 c -0.05,-0.23 -0.07,-0.29 -0.61,-0.29 -0.13,0 -0.21,0 -0.21,-0.15 0,-0.01 0,-0.1 0.11,-0.1 0.2,0 0.71,0.03 0.91,0.03 0.11,0 0.36,0 0.48,-0.01 0.14,-0.01 0.31,-0.02 0.44,-0.02 0.05,0 0.15,0 0.15,0.15 0,0.1 -0.08,0.1 -0.22,0.1 -0.01,0 -0.14,0 -0.27,0.02 -0.16,0.01 -0.16,0.03 -0.16,0.1 0,0.06 0.07,0.31 0.33,1.34 l 1.16,0.82 1.01,-1.97 c 0.05,-0.09 0.05,-0.09 0.05,-0.13 0,-0.16 -0.2,-0.18 -0.32,-0.18 -0.09,0 -0.18,0 -0.18,-0.15 0,-0.01 0,-0.1 0.11,-0.1 0.2,0 0.7,0.03 0.9,0.03 0.21,0 0.49,-0.03 0.68,-0.03 0.09,0 0.14,0.05 0.14,0.15 0,0.1 -0.09,0.1 -0.16,0.1 -0.13,0 -0.34,0.01 -0.46,0.23 z"
   id="path9935" />
</g>    <g
       style="font-style:normal;font-variant:normal;font-weight:normal;font-stretch:normal;letter-spacing:normal;word-spacing:normal;text-anchor:start;fill:#0000ff;stroke:#000000;stroke-linecap:butt;stroke-linejoin:miter;stroke-miterlimit:10.43299961;stroke-opacity:1;stroke-dasharray:none;stroke-dashoffset:0"
       ns0:preamble="C:\\salman\\work\\writing\\figs\\inkscapeLatex.tex"
       ns0:text="$b_{K+1}$\n\n"
       word-spacing="normal"
       letter-spacing="normal"
       font-size-adjust="none"
       font-stretch="normal"
       font-weight="normal"
       font-variant="normal"
       font-style="normal"
       stroke-miterlimit="10.433"
       xml:space="preserve"
       transform="matrix(0.75000036,0,0,-0.7501417,74.909093,344.66646)"
       id="g10525">
<path
   id="path10527"
   d="m 225.81,484.04 0,0 0,0 0,0 0,0 0,0 0,0.01 0,0 0,0 0,0.01 0,0 0,0.01 0,0 0,0.01 0,0 -0.01,0.01 0,0 0,0.01 -0.01,0 0,0.01 0,0 -0.01,0 0,0.01 0,0 -0.01,0 0,0 0,0.01 0,0 -0.01,0 0,0 0,0 -0.01,0 0,0.01 -0.01,0 0,0 0,0 -0.01,0 0,0 -0.01,0 0,0 -0.01,0.01 0,0 -0.01,0 0,0 -0.01,0 -0.01,0 c -0.22,0 -0.95,-0.08 -1.21,-0.1 -0.08,-0.01 -0.19,-0.02 -0.19,-0.2 0,-0.12 0.09,-0.12 0.24,-0.12 0.48,0 0.5,-0.07 0.5,-0.17 0,-0.07 -0.09,-0.41 -0.14,-0.62 l -0.82,-3.25 c -0.12,-0.49 -0.16,-0.65 -0.16,-1 0,-0.95 0.53,-1.57 1.27,-1.57 v 0.22 c -0.34,0 -0.67,0.27 -0.67,1.01 0,0.19 0,0.38 0.16,1.01 l 0.22,0.91 c 0.06,0.22 0.06,0.24 0.15,0.35 0.48,0.65 0.93,0.8 1.19,0.8 0.36,0 0.63,-0.3 0.63,-0.94 0,-0.59 -0.33,-1.73 -0.51,-2.11 -0.33,-0.67 -0.79,-1.03 -1.17,-1.03 v -0.22 c 1.17,0 2.4,1.49 2.4,2.92 0,0.91 -0.53,1.6 -1.33,1.6 -0.46,0 -0.86,-0.29 -1.16,-0.6 z"
   inkscape:connector-curvature="0"
   style="fill:#0000ff;stroke-width:0" />
<path
   id="path10529"
   d="m 231.7,478.54 -0.01,0.01 0,0 0,0.01 0,0 -0.01,0.01 0,0 0,0 0,0.01 0,0 -0.01,0.01 0,0 0,0 0,0.01 0,0 0,0 0,0 -0.01,0.01 0,0 0,0 0,0 0,0 0,0.01 0,0 0,0 0,0 0,0 0,0 0,0 0,0 0,0.01 0,0 -0.01,0 c 0,0.01 0.01,0.02 0.17,0.13 l 0.71,0.5 c 0.92,0.64 1.35,0.95 1.84,0.99 0.08,0.01 0.17,0.02 0.17,0.15 0,0.06 -0.05,0.1 -0.1,0.1 -0.14,0 -0.32,-0.02 -0.48,-0.02 -0.19,0 -0.65,0.02 -0.84,0.02 -0.04,0 -0.15,0 -0.15,-0.15 0,-0.01 0,-0.09 0.11,-0.1 0.08,-0.01 0.17,-0.02 0.17,-0.1 0,-0.12 -0.21,-0.27 -0.3,-0.34 l -2.91,-2.05 0.55,2.2 c 0.06,0.24 0.07,0.29 0.61,0.29 0.11,0 0.21,0 0.21,0.15 0,0.06 -0.04,0.1 -0.11,0.1 -0.2,0 -0.71,-0.02 -0.92,-0.02 -0.11,0 -0.36,0 -0.48,0 -0.14,0.01 -0.3,0.02 -0.44,0.02 -0.04,0 -0.14,0 -0.14,-0.15 0,-0.1 0.08,-0.1 0.23,-0.1 0.11,0 0.14,0 0.26,-0.01 0.14,-0.02 0.16,-0.03 0.16,-0.1 0,-0.01 0,-0.05 -0.03,-0.15 l -0.93,-3.71 c -0.05,-0.23 -0.07,-0.29 -0.61,-0.29 -0.13,0 -0.21,0 -0.21,-0.15 0,-0.01 0,-0.1 0.11,-0.1 0.2,0 0.71,0.03 0.91,0.03 0.11,0 0.36,0 0.48,-0.01 0.14,-0.01 0.31,-0.02 0.44,-0.02 0.05,0 0.15,0 0.15,0.15 0,0.1 -0.08,0.1 -0.22,0.1 -0.01,0 -0.14,0 -0.27,0.02 -0.16,0.01 -0.16,0.03 -0.16,0.1 0,0.06 0.07,0.31 0.33,1.34 l 1.16,0.82 1.01,-1.97 c 0.05,-0.09 0.05,-0.09 0.05,-0.13 0,-0.16 -0.2,-0.18 -0.32,-0.18 -0.09,0 -0.18,0 -0.18,-0.15 0,-0.01 0,-0.1 0.11,-0.1 0.2,0 0.7,0.03 0.9,0.03 0.21,0 0.49,-0.03 0.68,-0.03 0.09,0 0.14,0.05 0.14,0.15 0,0.1 -0.09,0.1 -0.16,0.1 -0.13,0 -0.34,0.01 -0.46,0.23 z"
   inkscape:connector-curvature="0"
   style="fill:#0000ff;stroke-width:0" />
<path
   id="path10531"
   d="m 238.12,477.32 h 2.14 c 0.09,0 0.25,0 0.25,0.16 0,0.18 -0.16,0.18 -0.25,0.18 h -2.14 v 2.14 c 0,0.09 0,0.26 -0.17,0.26 -0.17,0 -0.17,-0.16 -0.17,-0.26 v -2.14 h -2.14 c -0.09,0 -0.26,0 -0.26,-0.17 0,-0.17 0.16,-0.17 0.26,-0.17 h 2.14 v -2.15 c 0,-0.09 0,-0.25 0.17,-0.25 0.17,0 0.17,0.16 0.17,0.25 z"
   inkscape:connector-curvature="0"
   style="fill:#0000ff;stroke-width:0" />
<path
   id="path10533"
   d="m 243.34,480.17 0,0.01 0,0.01 0,0.01 0,0.01 0,0.01 0,0 0,0.01 0,0.01 0,0 0,0.01 0,0.01 0,0 0,0.01 0,0 0,0.01 0,0.01 -0.01,0 0,0.01 0,0 0,0.01 0,0.01 -0.01,0.01 0,0 -0.01,0.01 0,0 -0.01,0.01 0,0 -0.01,0.01 -0.01,0 0,0 -0.01,0 -0.01,0.01 -0.01,0 0,0 -0.01,0 0,0 -0.01,0 -0.01,0 0,0 -0.01,0 -0.01,0 0,0 -0.01,0 -0.01,0 -0.01,0 0,0 -0.01,0 -0.01,0 -0.01,0 -0.01,0 c -0.44,-0.44 -1.08,-0.45 -1.37,-0.45 v -0.25 c 0.17,0 0.63,0 1.02,0.2 v -3.56 c 0,-0.23 0,-0.32 -0.7,-0.32 h -0.27 v -0.25 c 0.13,0.01 0.99,0.03 1.24,0.03 0.22,0 1.1,-0.02 1.25,-0.03 v 0.25 h -0.26 c -0.7,0 -0.7,0.09 -0.7,0.32 z"
   inkscape:connector-curvature="0"
   style="fill:#0000ff;stroke-width:0" />
</g>    <g
       style="font-style:normal;font-variant:normal;font-weight:normal;font-stretch:normal;letter-spacing:normal;word-spacing:normal;text-anchor:start;fill:#000000;fill-opacity:1;fill-rule:evenodd;stroke:#000000;stroke-linecap:butt;stroke-linejoin:miter;stroke-miterlimit:10.43299961;stroke-opacity:1;stroke-dasharray:none;stroke-dashoffset:0"
       ns0:preamble=""
       ns0:text="$y_1$\n"
       word-spacing="normal"
       letter-spacing="normal"
       font-size-adjust="none"
       font-stretch="normal"
       font-weight="normal"
       font-variant="normal"
       font-style="normal"
       stroke-miterlimit="10.433"
       xml:space="preserve"
       transform="matrix(0.75045432,0,0,-0.75022349,-146.73008,507.0472)"
       id="content">
<path
   id="path3381"
   d="m 228.27,710.92 0.01,0 0,0.01 0,0.01 0,0 0,0.01 0.01,0.02 0,0.01 0,0.01 0,0 0.01,0.01 0,0.01 0,0.01 0,0.01 0,0 0.01,0.01 0,0.01 0,0 0,0.01 0,0 0,0.01 0,0.01 0,0 0,0.01 0,0.01 0,0.01 0,0.01 0,0.01 0,0 0,0.01 0,0.01 c 0,0.18 -0.13,0.27 -0.29,0.27 -0.09,0 -0.25,-0.06 -0.34,-0.21 -0.02,-0.05 -0.1,-0.36 -0.14,-0.54 -0.07,-0.26 -0.14,-0.53 -0.2,-0.8 l -0.45,-1.79 c -0.04,-0.15 -0.47,-0.85 -1.13,-0.85 -0.5,0 -0.61,0.44 -0.61,0.81 0,0.46 0.17,1.07 0.5,1.95 0.16,0.41 0.2,0.52 0.2,0.72 0,0.45 -0.31,0.82 -0.81,0.82 -0.95,0 -1.32,-1.45 -1.32,-1.54 0,-0.1 0.1,-0.1 0.12,-0.1 0.1,0 0.11,0.02 0.16,0.18 0.27,0.94 0.67,1.24 1.01,1.24 0.08,0 0.25,0 0.25,-0.32 0,-0.25 -0.1,-0.51 -0.17,-0.7 -0.4,-1.06 -0.58,-1.62 -0.58,-2.09 0,-0.89 0.63,-1.19 1.21,-1.19 0.39,0 0.73,0.17 1.01,0.45 -0.13,-0.52 -0.25,-1 -0.65,-1.53 -0.26,-0.34 -0.63,-0.63 -1.09,-0.63 -0.14,0 -0.59,0.03 -0.76,0.42 0.16,0 0.29,0 0.43,0.12 0.1,0.09 0.2,0.22 0.2,0.41 0,0.3 -0.27,0.34 -0.37,0.34 -0.23,0 -0.56,-0.16 -0.56,-0.64 0,-0.5 0.44,-0.87 1.06,-0.87 1.02,0 2.05,0.91 2.33,2.03 z"
   style="fill:#000000;stroke-width:0"
   inkscape:connector-curvature="0" />
<path
   id="path3383"
   d="m 230.65,710.07 0,0 0,0.01 0,0.01 0,0.01 0,0.01 0,0 0,0.01 0,0.01 0,0 0,0.01 0,0.01 0,0 0,0.01 0,0 0,0.01 0,0.01 -0.01,0 0,0.01 0,0 0,0.01 0,0.01 -0.01,0.01 0,0 -0.01,0.01 0,0 -0.01,0.01 0,0 -0.01,0.01 -0.01,0 0,0 -0.01,0 -0.01,0.01 -0.01,0 0,0 -0.01,0 0,0 -0.01,0 -0.01,0 0,0 -0.01,0 -0.01,0 0,0 -0.01,0 -0.01,0 -0.01,0 0,0 -0.01,0 -0.01,0 -0.01,0 -0.01,0 c -0.44,-0.44 -1.08,-0.45 -1.37,-0.45 v -0.25 c 0.17,0 0.63,0 1.02,0.2 v -3.56 c 0,-0.23 0,-0.32 -0.7,-0.32 h -0.27 v -0.25 c 0.13,0.01 0.99,0.03 1.25,0.03 0.21,0 1.09,-0.02 1.24,-0.03 v 0.25 h -0.26 c -0.7,0 -0.7,0.09 -0.7,0.32 z"
   style="fill:#000000;stroke-width:0"
   inkscape:connector-curvature="0" />
</g>    <g
       id="g3786"
       transform="matrix(0.75045432,0,0,-0.75022349,-118.00961,507.0472)"
       xml:space="preserve"
       stroke-miterlimit="10.433"
       font-style="normal"
       font-variant="normal"
       font-weight="normal"
       font-stretch="normal"
       font-size-adjust="none"
       letter-spacing="normal"
       word-spacing="normal"
       ns0:text="$y_2$\n"
       ns0:preamble=""
       style="font-style:normal;font-variant:normal;font-weight:normal;font-stretch:normal;letter-spacing:normal;word-spacing:normal;text-anchor:start;fill:#000000;fill-opacity:1;fill-rule:evenodd;stroke:#0000ff;stroke-linecap:butt;stroke-linejoin:miter;stroke-miterlimit:10.43299961;stroke-opacity:1;stroke-dasharray:none;stroke-dashoffset:0">
<path
   d="m 228.27,710.92 0.01,0 0,0.01 0,0.01 0,0 0,0.01 0.01,0.02 0,0.01 0,0.01 0,0 0.01,0.01 0,0.01 0,0.01 0,0.01 0,0 0.01,0.01 0,0.01 0,0 0,0.01 0,0 0,0.01 0,0.01 0,0 0,0.01 0,0.01 0,0.01 0,0.01 0,0.01 0,0 0,0.01 0,0.01 c 0,0.18 -0.13,0.27 -0.29,0.27 -0.09,0 -0.25,-0.06 -0.34,-0.21 -0.02,-0.05 -0.1,-0.36 -0.14,-0.54 -0.07,-0.26 -0.14,-0.53 -0.2,-0.8 l -0.45,-1.79 c -0.04,-0.15 -0.47,-0.85 -1.13,-0.85 -0.5,0 -0.61,0.44 -0.61,0.81 0,0.46 0.17,1.07 0.5,1.95 0.16,0.41 0.2,0.52 0.2,0.72 0,0.45 -0.31,0.82 -0.81,0.82 -0.95,0 -1.32,-1.45 -1.32,-1.54 0,-0.1 0.1,-0.1 0.12,-0.1 0.1,0 0.11,0.02 0.16,0.18 0.27,0.94 0.67,1.24 1.01,1.24 0.08,0 0.25,0 0.25,-0.32 0,-0.25 -0.1,-0.51 -0.17,-0.7 -0.4,-1.06 -0.58,-1.62 -0.58,-2.09 0,-0.89 0.63,-1.19 1.21,-1.19 0.39,0 0.73,0.17 1.01,0.45 -0.13,-0.52 -0.25,-1 -0.65,-1.53 -0.26,-0.34 -0.63,-0.63 -1.09,-0.63 -0.14,0 -0.59,0.03 -0.76,0.42 0.16,0 0.29,0 0.43,0.12 0.1,0.09 0.2,0.22 0.2,0.41 0,0.3 -0.27,0.34 -0.37,0.34 -0.23,0 -0.56,-0.16 -0.56,-0.64 0,-0.5 0.44,-0.87 1.06,-0.87 1.02,0 2.05,0.91 2.33,2.03 z"
   id="path3788"
   style="fill:#000000;stroke-width:0"
   inkscape:connector-curvature="0" />
<path
   d="m 231.84,706.9 h -0.24 c -0.02,-0.15 -0.09,-0.57 -0.18,-0.63 -0.06,-0.05 -0.59,-0.05 -0.69,-0.05 h -1.28 c 0.73,0.65 0.97,0.85 1.39,1.17 0.52,0.42 1,0.85 1,1.51 0,0.84 -0.74,1.36 -1.63,1.36 -0.87,0 -1.46,-0.61 -1.46,-1.25 0,-0.35 0.3,-0.39 0.37,-0.39 0.17,0 0.37,0.12 0.37,0.37 0,0.13 -0.04,0.37 -0.41,0.37 0.22,0.5 0.69,0.65 1.02,0.65 0.7,0 1.06,-0.54 1.06,-1.11 0,-0.61 -0.43,-1.09 -0.65,-1.34 l -1.69,-1.66 c -0.07,-0.06 -0.07,-0.07 -0.07,-0.27 h 2.88 z"
   id="path3790"
   style="fill:#000000;stroke-width:0"
   inkscape:connector-curvature="0" />
</g>    <g
       style="font-style:normal;font-variant:normal;font-weight:normal;font-stretch:normal;letter-spacing:normal;word-spacing:normal;text-anchor:start;fill:#000000;fill-opacity:1;fill-rule:evenodd;stroke:#000000;stroke-linecap:butt;stroke-linejoin:miter;stroke-miterlimit:10.43299961;stroke-opacity:1;stroke-dasharray:none;stroke-dashoffset:0"
       ns0:preamble=""
       ns0:text="$y_{K-1}$\n"
       word-spacing="normal"
       letter-spacing="normal"
       font-size-adjust="none"
       font-stretch="normal"
       font-weight="normal"
       font-variant="normal"
       font-style="normal"
       stroke-miterlimit="10.433"
       xml:space="preserve"
       transform="matrix(0.75045432,0,0,-0.75022349,28.105779,507.0472)"
       id="g4191">
<path
   id="path4193"
   d="m 228.27,710.92 0.01,0 0,0.01 0,0.01 0,0 0,0.01 0.01,0.02 0,0.01 0,0.01 0,0 0.01,0.01 0,0.01 0,0.01 0,0.01 0,0 0.01,0.01 0,0.01 0,0 0,0.01 0,0 0,0.01 0,0.01 0,0 0,0.01 0,0.01 0,0.01 0,0.01 0,0.01 0,0 0,0.01 0,0.01 c 0,0.18 -0.13,0.27 -0.29,0.27 -0.09,0 -0.25,-0.06 -0.34,-0.21 -0.02,-0.05 -0.1,-0.36 -0.14,-0.54 -0.07,-0.26 -0.14,-0.53 -0.2,-0.8 l -0.45,-1.79 c -0.04,-0.15 -0.47,-0.85 -1.13,-0.85 -0.5,0 -0.61,0.44 -0.61,0.81 0,0.46 0.17,1.07 0.5,1.95 0.16,0.41 0.2,0.52 0.2,0.72 0,0.45 -0.31,0.82 -0.81,0.82 -0.95,0 -1.32,-1.45 -1.32,-1.54 0,-0.1 0.1,-0.1 0.12,-0.1 0.1,0 0.11,0.02 0.16,0.18 0.27,0.94 0.67,1.24 1.01,1.24 0.08,0 0.25,0 0.25,-0.32 0,-0.25 -0.1,-0.51 -0.17,-0.7 -0.4,-1.06 -0.58,-1.62 -0.58,-2.09 0,-0.89 0.63,-1.19 1.21,-1.19 0.39,0 0.73,0.17 1.01,0.45 -0.13,-0.52 -0.25,-1 -0.65,-1.53 -0.26,-0.34 -0.63,-0.63 -1.09,-0.63 -0.14,0 -0.59,0.03 -0.76,0.42 0.16,0 0.29,0 0.43,0.12 0.1,0.09 0.2,0.22 0.2,0.41 0,0.3 -0.27,0.34 -0.37,0.34 -0.23,0 -0.56,-0.16 -0.56,-0.64 0,-0.5 0.44,-0.87 1.06,-0.87 1.02,0 2.05,0.91 2.33,2.03 z"
   style="fill:#000000;stroke-width:0"
   inkscape:connector-curvature="0" />
<path
   id="path4195"
   d="m 232.3,708.43 0,0.01 0,0 0,0.01 -0.01,0 0,0.01 0,0 0,0.01 0,0 -0.01,0 0,0.01 0,0 0,0 0,0.01 0,0 -0.01,0 0,0 0,0.01 0,0 0,0 0,0 0,0 0,0.01 0,0 -0.01,0 0,0 0,0 0,0 0,0 0,0 0,0.01 0,0 0,0 c 0,0.01 0.01,0.02 0.17,0.13 l 0.7,0.5 c 0.92,0.64 1.36,0.95 1.85,0.99 0.08,0.01 0.16,0.02 0.16,0.15 0,0.06 -0.05,0.1 -0.09,0.1 -0.15,0 -0.33,-0.03 -0.48,-0.03 -0.19,0 -0.66,0.03 -0.84,0.03 -0.05,0 -0.15,0 -0.15,-0.15 0,-0.01 0,-0.09 0.1,-0.1 0.09,0 0.18,-0.02 0.18,-0.1 0,-0.12 -0.22,-0.27 -0.31,-0.34 l -2.91,-2.05 0.56,2.2 c 0.06,0.24 0.06,0.29 0.61,0.29 0.11,0 0.21,0 0.21,0.15 0,0.06 -0.04,0.1 -0.11,0.1 -0.21,0 -0.71,-0.03 -0.92,-0.03 -0.12,0 -0.36,0 -0.48,0.01 -0.14,0.01 -0.3,0.02 -0.44,0.02 -0.04,0 -0.14,0 -0.14,-0.15 0,-0.1 0.07,-0.1 0.23,-0.1 0.11,0 0.14,0 0.26,-0.01 0.14,-0.02 0.15,-0.03 0.15,-0.1 0,-0.01 0,-0.05 -0.02,-0.15 l -0.93,-3.71 c -0.06,-0.23 -0.07,-0.29 -0.61,-0.29 -0.13,0 -0.21,0 -0.21,-0.15 0,-0.01 0,-0.1 0.11,-0.1 0.2,0 0.7,0.03 0.9,0.03 0.12,0 0.37,0 0.49,-0.01 0.13,-0.01 0.31,-0.02 0.44,-0.02 0.04,0 0.15,0 0.15,0.15 0,0.1 -0.09,0.1 -0.23,0.1 0,0 -0.13,0 -0.26,0.02 -0.16,0.01 -0.16,0.03 -0.16,0.1 0,0.05 0.07,0.31 0.33,1.34 l 1.16,0.82 1.01,-1.96 c 0.05,-0.1 0.05,-0.1 0.05,-0.14 0,-0.16 -0.2,-0.18 -0.33,-0.18 -0.08,0 -0.18,0 -0.18,-0.15 0,-0.01 0.01,-0.1 0.12,-0.1 0.2,0 0.7,0.03 0.89,0.03 0.21,0 0.49,-0.03 0.69,-0.03 0.09,0 0.14,0.05 0.14,0.15 0,0.1 -0.09,0.1 -0.16,0.1 -0.13,0 -0.34,0.01 -0.46,0.23 z"
   style="fill:#000000;stroke-width:0"
   inkscape:connector-curvature="0" />
<path
   id="path4197"
   d="m 240.69,707.21 0.01,0 0.01,0 0.01,0 0.01,0 0.03,0 0.01,0 0.01,0 0.01,0 0.01,0 0.01,0 0.02,0 0.01,0.01 0.01,0 0.01,0 0.01,0.01 0.01,0 0.01,0.01 0.01,0 0.01,0.01 0.01,0 0,0.01 0.01,0.01 0.01,0 0,0.01 0,0 0.01,0.01 0,0 0,0.01 0,0 0.01,0.01 0,0 0,0.01 0,0 0,0.01 0,0.01 0.01,0 0,0.01 0,0.01 0,0.01 0,0 c 0,0.18 -0.16,0.18 -0.28,0.18 h -4.16 c -0.11,0 -0.28,0 -0.28,-0.17 0,-0.17 0.16,-0.17 0.28,-0.17 z"
   style="fill:#000000;stroke-width:0"
   inkscape:connector-curvature="0" />
<path
   id="path4199"
   d="m 244.06,710.07 0,0 0,0.01 0,0.01 0,0.01 0,0.01 0,0 0,0.01 0,0.01 0,0 0,0.01 0,0.01 0,0 0,0.01 0,0 0,0.01 0,0.01 -0.01,0 0,0.01 0,0 0,0.01 0,0.01 -0.01,0.01 0,0 -0.01,0.01 0,0 -0.01,0.01 0,0 -0.01,0.01 -0.01,0 0,0 -0.01,0 -0.01,0.01 -0.01,0 0,0 -0.01,0 0,0 -0.01,0 -0.01,0 0,0 -0.01,0 -0.01,0 0,0 -0.01,0 -0.01,0 -0.01,0 0,0 -0.01,0 -0.01,0 -0.01,0 -0.01,0 c -0.44,-0.44 -1.08,-0.45 -1.36,-0.45 v -0.25 c 0.16,0 0.62,0 1.01,0.2 v -3.56 c 0,-0.23 0,-0.32 -0.7,-0.32 h -0.27 v -0.25 c 0.13,0.01 0.99,0.03 1.24,0.03 0.22,0 1.1,-0.02 1.25,-0.03 v 0.25 h -0.26 c -0.7,0 -0.7,0.09 -0.7,0.32 z"
   style="fill:#000000;stroke-width:0"
   inkscape:connector-curvature="0" />
</g>    <g
       id="g4602"
       transform="matrix(0.75045432,0,0,-0.75022349,62.43497,507.0472)"
       xml:space="preserve"
       stroke-miterlimit="10.433"
       font-style="normal"
       font-variant="normal"
       font-weight="normal"
       font-stretch="normal"
       font-size-adjust="none"
       letter-spacing="normal"
       word-spacing="normal"
       ns0:text="$y_K$\n\n"
       ns0:preamble=""
       style="font-style:normal;font-variant:normal;font-weight:normal;font-stretch:normal;letter-spacing:normal;word-spacing:normal;text-anchor:start;fill:#000000;fill-opacity:1;fill-rule:evenodd;stroke:#000000;stroke-linecap:butt;stroke-linejoin:miter;stroke-miterlimit:10.43299961;stroke-opacity:1;stroke-dasharray:none;stroke-dashoffset:0">
<path
   d="m 228.27,710.92 0.01,0 0,0.01 0,0.01 0,0 0,0.01 0.01,0.02 0,0.01 0,0.01 0,0 0.01,0.01 0,0.01 0,0.01 0,0.01 0,0 0.01,0.01 0,0.01 0,0 0,0.01 0,0 0,0.01 0,0.01 0,0 0,0.01 0,0.01 0,0.01 0,0.01 0,0.01 0,0 0,0.01 0,0.01 c 0,0.18 -0.13,0.27 -0.29,0.27 -0.09,0 -0.25,-0.06 -0.34,-0.21 -0.02,-0.05 -0.1,-0.36 -0.14,-0.54 -0.07,-0.26 -0.14,-0.53 -0.2,-0.8 l -0.45,-1.79 c -0.04,-0.15 -0.47,-0.85 -1.13,-0.85 -0.5,0 -0.61,0.44 -0.61,0.81 0,0.46 0.17,1.07 0.5,1.95 0.16,0.41 0.2,0.52 0.2,0.72 0,0.45 -0.31,0.82 -0.81,0.82 -0.95,0 -1.32,-1.45 -1.32,-1.54 0,-0.1 0.1,-0.1 0.12,-0.1 0.1,0 0.11,0.02 0.16,0.18 0.27,0.94 0.67,1.24 1.01,1.24 0.08,0 0.25,0 0.25,-0.32 0,-0.25 -0.1,-0.51 -0.17,-0.7 -0.4,-1.06 -0.58,-1.62 -0.58,-2.09 0,-0.89 0.63,-1.19 1.21,-1.19 0.39,0 0.73,0.17 1.01,0.45 -0.13,-0.52 -0.25,-1 -0.65,-1.53 -0.26,-0.34 -0.63,-0.63 -1.09,-0.63 -0.14,0 -0.59,0.03 -0.76,0.42 0.16,0 0.29,0 0.43,0.12 0.1,0.09 0.2,0.22 0.2,0.41 0,0.3 -0.27,0.34 -0.37,0.34 -0.23,0 -0.56,-0.16 -0.56,-0.64 0,-0.5 0.44,-0.87 1.06,-0.87 1.02,0 2.05,0.91 2.33,2.03 z"
   id="path4604"
   style="fill:#000000;stroke-width:0"
   inkscape:connector-curvature="0" />
<path
   d="m 232.3,708.43 0,0.01 0,0 0,0.01 -0.01,0 0,0.01 0,0 0,0.01 0,0 -0.01,0 0,0.01 0,0 0,0 0,0.01 0,0 -0.01,0 0,0 0,0.01 0,0 0,0 0,0 0,0 0,0.01 0,0 -0.01,0 0,0 0,0 0,0 0,0 0,0 0,0.01 0,0 0,0 c 0,0.01 0.01,0.02 0.17,0.13 l 0.7,0.5 c 0.92,0.64 1.36,0.95 1.85,0.99 0.08,0.01 0.16,0.02 0.16,0.15 0,0.06 -0.05,0.1 -0.09,0.1 -0.15,0 -0.33,-0.03 -0.48,-0.03 -0.19,0 -0.66,0.03 -0.84,0.03 -0.05,0 -0.15,0 -0.15,-0.15 0,-0.01 0,-0.09 0.1,-0.1 0.09,0 0.18,-0.02 0.18,-0.1 0,-0.12 -0.22,-0.27 -0.31,-0.34 l -2.91,-2.05 0.56,2.2 c 0.06,0.24 0.06,0.29 0.61,0.29 0.11,0 0.21,0 0.21,0.15 0,0.06 -0.04,0.1 -0.11,0.1 -0.21,0 -0.71,-0.03 -0.92,-0.03 -0.12,0 -0.36,0 -0.48,0.01 -0.14,0.01 -0.3,0.02 -0.44,0.02 -0.04,0 -0.14,0 -0.14,-0.15 0,-0.1 0.07,-0.1 0.23,-0.1 0.11,0 0.14,0 0.26,-0.01 0.14,-0.02 0.15,-0.03 0.15,-0.1 0,-0.01 0,-0.05 -0.02,-0.15 l -0.93,-3.71 c -0.06,-0.23 -0.07,-0.29 -0.61,-0.29 -0.13,0 -0.21,0 -0.21,-0.15 0,-0.01 0,-0.1 0.11,-0.1 0.2,0 0.7,0.03 0.9,0.03 0.12,0 0.37,0 0.49,-0.01 0.13,-0.01 0.31,-0.02 0.44,-0.02 0.04,0 0.15,0 0.15,0.15 0,0.1 -0.09,0.1 -0.23,0.1 0,0 -0.13,0 -0.26,0.02 -0.16,0.01 -0.16,0.03 -0.16,0.1 0,0.05 0.07,0.31 0.33,1.34 l 1.16,0.82 1.01,-1.96 c 0.05,-0.1 0.05,-0.1 0.05,-0.14 0,-0.16 -0.2,-0.18 -0.33,-0.18 -0.08,0 -0.18,0 -0.18,-0.15 0,-0.01 0.01,-0.1 0.12,-0.1 0.2,0 0.7,0.03 0.89,0.03 0.21,0 0.49,-0.03 0.69,-0.03 0.09,0 0.14,0.05 0.14,0.15 0,0.1 -0.09,0.1 -0.16,0.1 -0.13,0 -0.34,0.01 -0.46,0.23 z"
   id="path4606"
   style="fill:#000000;stroke-width:0"
   inkscape:connector-curvature="0" />
</g>    <path
       inkscape:connector-curvature="0"
       style="fill:none;stroke:#4d4d4d;stroke-width:1;stroke-linecap:butt;stroke-linejoin:miter;stroke-miterlimit:4;stroke-opacity:1;stroke-dasharray:none;marker-start:url(#Arrow2Mstart81)"
       d="m 45.450164,-12.744156 c 24.821429,7.5369688 24.642858,7.5369688 24.642858,7.5369688"
       id="path3054-4"
       sodipodi:nodetypes="cc" />
    <g
       id="g7083"
       transform="matrix(1,0,0,-1,-1.2237953,641.94158)"
       xml:space="preserve"
       stroke-miterlimit="10.433"
       font-style="normal"
       font-variant="normal"
       font-weight="normal"
       font-stretch="normal"
       font-size-adjust="none"
       letter-spacing="normal"
       word-spacing="normal"
       ns0:text="$e=(x-y_k)^2$\n"
       ns0:preamble=""
       style="font-style:normal;font-variant:normal;font-weight:normal;font-stretch:normal;letter-spacing:normal;word-spacing:normal;text-anchor:start;fill:#ff0000;fill-opacity:1;fill-rule:evenodd;stroke:#241c1c;stroke-linecap:butt;stroke-linejoin:miter;stroke-miterlimit:10.43299961;stroke-opacity:1;stroke-dasharray:none;stroke-dashoffset:0">
<path
   style="fill:#ff0000;stroke-width:0"
   inkscape:connector-curvature="0"
   d="m 225.3,709.42 0.02,0 0.04,0 0.03,0 0.03,0.01 0.04,0 0.04,0 0.04,0 0.05,0 0.04,0 0.05,0.01 0.04,0 0.05,0 0.05,0.01 0.05,0 0.11,0.01 0.11,0.01 0.1,0.02 0.11,0.02 0.11,0.02 0.11,0.02 0.05,0.02 0.05,0.01 0.05,0.02 0.05,0.02 0.05,0.01 0.05,0.02 c 0.7,0.3 0.75,0.89 0.75,1.03 0,0.44 -0.38,0.85 -1.07,0.85 v -0.22 c 0.47,0 0.74,-0.29 0.74,-0.63 0,-1.04 -1.6,-1.04 -2,-1.04 h -0.41 c 0.39,1.52 1.41,1.67 1.67,1.67 v 0.22 c -1.1,0 -2.61,-0.97 -2.61,-2.71 0,-1.02 0.59,-1.81 1.57,-1.81 1.42,0 2.26,1.06 2.26,1.18 0,0.06 -0.06,0.13 -0.12,0.13 -0.05,0 -0.07,-0.02 -0.13,-0.1 -0.79,-0.99 -1.88,-0.99 -1.99,-0.99 -0.78,0 -0.87,0.84 -0.87,1.16 0,0.12 0.01,0.43 0.16,1.03 z"
   id="path7085" />
<path
   style="fill:#ff0000;stroke-width:0"
   inkscape:connector-curvature="0"
   d="m 237.68,710.38 0.03,0 0.03,0 0.03,0 0.01,0 0.02,0 0.01,0 0.01,0.01 0.02,0 0.01,0 0.02,0 0.01,0.01 0.01,0 0.01,0.01 0.02,0 0.01,0.01 0.01,0 0.01,0.01 0.01,0.01 0.01,0 0.01,0.01 0.01,0.01 0,0.01 0,0.01 0.01,0 0,0.01 0,0 0.01,0.01 0,0.01 0,0 0,0.01 0,0.01 0,0.01 0.01,0 0,0.01 0,0.01 0,0.01 0,0.01 c 0,0.2 -0.19,0.2 -0.33,0.2 h -5.97 c -0.14,0 -0.33,0 -0.33,-0.2 0,-0.2 0.19,-0.2 0.34,-0.2 z"
   id="path7087" />
<path
   style="fill:#ff0000;stroke-width:0"
   inkscape:connector-curvature="0"
   d="m 237.69,708.45 0.03,0 0.02,0 0.03,0 0.02,0 0.01,0 0.01,0 0.02,0 0.01,0.01 0.01,0 0.02,0 0.01,0 0.01,0.01 0.02,0 0.01,0.01 0.01,0 0.01,0.01 0.01,0.01 0.01,0 0.01,0.01 0.01,0.01 0,0.01 0.01,0 0,0.01 0,0 0.01,0.01 0,0 0,0.01 0.01,0.01 0,0 0,0.01 0,0.01 0,0.01 0,0 0.01,0.01 0,0.01 0,0.01 0,0.01 0,0.01 c 0,0.2 -0.19,0.2 -0.34,0.2 h -5.95 c -0.15,0 -0.34,0 -0.34,-0.2 0,-0.2 0.19,-0.2 0.33,-0.2 z"
   id="path7089" />
<path
   style="fill:#ff0000;stroke-width:0"
   inkscape:connector-curvature="0"
   d="m 244.65,704.73 0,0.01 0,0 0,0.01 0,0 0,0 0,0 0,0.01 0,0 0,0.01 0,0 -0.01,0 0,0.01 0,0 -0.01,0.01 0,0 -0.01,0.01 0,0.01 -0.01,0 0,0.01 0,0 -0.01,0.01 0,0 0,0.01 -0.01,0 0,0 -0.01,0.01 0,0 -0.01,0.01 0,0 -0.01,0.01 0,0.01 -0.01,0 0,0.01 -0.01,0 0,0.01 -0.01,0.01 -0.01,0 0,0.01 -0.01,0.01 -0.01,0.01 -0.01,0 0,0.01 c -1.25,1.26 -1.57,3.14 -1.57,4.66 0,1.74 0.38,3.47 1.61,4.72 0.12,0.12 0.12,0.14 0.12,0.16 0,0.08 -0.03,0.1 -0.1,0.1 -0.09,0 -0.99,-0.67 -1.58,-1.94 -0.51,-1.09 -0.63,-2.2 -0.63,-3.04 0,-0.77 0.11,-1.98 0.66,-3.1 0.6,-1.23 1.46,-1.88 1.55,-1.88 0.07,0 0.1,0.03 0.1,0.1 z"
   id="path7091" />
<path
   style="fill:#ff0000;stroke-width:0"
   inkscape:connector-curvature="0"
   d="m 248.55,710.13 0.01,0.03 0.01,0.03 0.01,0.03 0.01,0.04 0.01,0.03 0.01,0.05 0.01,0.04 0.02,0.04 0.01,0.05 0.02,0.05 0.02,0.05 0.02,0.05 0.02,0.05 0.03,0.05 0.02,0.05 0.03,0.05 0.03,0.04 0.03,0.05 0.03,0.05 0.04,0.04 0.04,0.05 0.04,0.04 0.04,0.03 0.04,0.04 0.05,0.03 0.05,0.03 0.02,0.01 0.03,0.02 0.02,0.01 0.03,0.01 0.03,0.01 0.03,0 0.03,0.01 0.03,0.01 0.03,0 0.03,0 0.03,0.01 0.03,0 c 0.05,0 0.29,0 0.5,-0.13 -0.28,-0.05 -0.48,-0.3 -0.48,-0.54 0,-0.16 0.11,-0.35 0.38,-0.35 0.22,0 0.54,0.18 0.54,0.58 0,0.52 -0.59,0.66 -0.93,0.66 -0.58,0 -0.92,-0.53 -1.04,-0.76 -0.25,0.66 -0.79,0.76 -1.08,0.76 -1.04,0 -1.61,-1.29 -1.61,-1.54 0,-0.1 0.11,-0.1 0.13,-0.1 0.07,0 0.1,0.02 0.12,0.11 0.34,1.06 1,1.31 1.34,1.31 0.19,0 0.54,-0.09 0.54,-0.67 0,-0.31 -0.17,-0.98 -0.54,-2.37 -0.16,-0.62 -0.51,-1.04 -0.95,-1.04 -0.06,0 -0.29,0 -0.5,0.13 0.25,0.05 0.47,0.26 0.47,0.54 0,0.27 -0.22,0.35 -0.37,0.35 -0.3,0 -0.54,-0.26 -0.54,-0.58 0,-0.46 0.49,-0.66 0.93,-0.66 0.66,0 1.02,0.7 1.05,0.76 0.12,-0.37 0.48,-0.76 1.07,-0.76 1.03,0 1.6,1.29 1.6,1.54 0,0.1 -0.09,0.1 -0.12,0.1 -0.09,0 -0.11,-0.04 -0.13,-0.11 -0.33,-1.07 -1.01,-1.31 -1.32,-1.31 -0.39,0 -0.55,0.32 -0.55,0.66 0,0.22 0.06,0.44 0.17,0.88 z"
   id="path7093" />
<path
   style="fill:#ff0000;stroke-width:0"
   inkscape:connector-curvature="0"
   d="m 259.7,709.41 0.04,0 0.03,0 0.03,0.01 0.02,0 0.01,0 0.02,0 0.01,0 0.02,0 0.01,0 0.01,0.01 0.02,0 0.01,0 0.01,0.01 0.02,0 0.01,0.01 0.01,0.01 0.01,0 0.01,0.01 0.01,0.01 0.01,0.01 0,0.01 0.01,0 0,0.01 0,0 0.01,0.01 0,0.01 0,0 0,0.01 0.01,0.01 0,0 0,0.01 0,0.01 0,0.01 0,0.01 0,0 0,0.01 0,0.01 c 0,0.2 -0.17,0.2 -0.35,0.2 h -5.38 c -0.17,0 -0.35,0 -0.35,-0.2 0,-0.2 0.18,-0.2 0.35,-0.2 z"
   id="path7095" />
<path
   style="fill:#ff0000;stroke-width:0"
   inkscape:connector-curvature="0"
   d="m 267.94,710.92 0,0 0.01,0.01 0,0.01 0,0 0,0.01 0.01,0.02 0,0.01 0,0.01 0,0 0.01,0.01 0,0.01 0,0.01 0,0.01 0,0 0,0.01 0,0.01 0.01,0 0,0.01 0,0 0,0.01 0,0.01 0,0 0,0.01 0,0.01 0,0.01 0,0.01 0,0.01 0,0 0,0.01 0,0.01 c 0,0.18 -0.14,0.27 -0.29,0.27 -0.1,0 -0.26,-0.06 -0.35,-0.21 -0.02,-0.05 -0.1,-0.36 -0.14,-0.54 -0.06,-0.26 -0.13,-0.53 -0.19,-0.8 l -0.45,-1.79 c -0.04,-0.15 -0.47,-0.85 -1.13,-0.85 -0.51,0 -0.62,0.44 -0.62,0.81 0,0.46 0.17,1.07 0.51,1.95 0.16,0.41 0.2,0.52 0.2,0.72 0,0.45 -0.32,0.82 -0.82,0.82 -0.94,0 -1.31,-1.45 -1.31,-1.54 0,-0.1 0.1,-0.1 0.12,-0.1 0.1,0 0.11,0.02 0.16,0.18 0.27,0.94 0.66,1.24 1,1.24 0.08,0 0.25,0 0.25,-0.32 0,-0.25 -0.1,-0.51 -0.17,-0.7 -0.39,-1.06 -0.57,-1.62 -0.57,-2.09 0,-0.89 0.62,-1.19 1.21,-1.19 0.39,0 0.73,0.17 1.01,0.45 -0.13,-0.52 -0.25,-1 -0.65,-1.53 -0.26,-0.34 -0.64,-0.63 -1.1,-0.63 -0.13,0 -0.58,0.03 -0.75,0.42 0.16,0 0.29,0 0.43,0.12 0.09,0.09 0.19,0.22 0.19,0.41 0,0.3 -0.26,0.34 -0.36,0.34 -0.23,0 -0.56,-0.16 -0.56,-0.64 0,-0.5 0.44,-0.87 1.05,-0.87 1.03,0 2.06,0.91 2.33,2.03 z"
   id="path7097" />
<path
   style="fill:#ff0000;stroke-width:0"
   inkscape:connector-curvature="0"
   d="m 270.17,710.26 0,0 0,0 0,0 0,0 0,0.01 0,0 0,0 0,0 0,0 0,0.01 0,0 0,0 0,0.01 0,0 0.01,0.01 0,0 0,0.01 0,0 0,0.01 0,0.01 0,0 0.01,0.01 0,0 0,0.01 0,0 0,0 0,0.01 0,0 0,0 0,0 0,0 0,0.01 0,0 0,0 0,0 0,0 0,0 0,0 0,0 0,0 c 0,0.04 -0.02,0.1 -0.11,0.1 -0.14,0 -0.72,-0.06 -0.89,-0.07 -0.06,-0.01 -0.15,-0.01 -0.15,-0.16 0,-0.1 0.09,-0.1 0.18,-0.1 0.33,0 0.33,-0.05 0.33,-0.1 0,-0.05 -0.01,-0.09 -0.03,-0.16 l -0.98,-3.94 c -0.03,-0.13 -0.03,-0.14 -0.03,-0.16 0,-0.1 0.08,-0.22 0.23,-0.22 0.19,0 0.28,0.14 0.32,0.29 0.02,0.03 0.32,1.26 0.34,1.36 0.5,-0.05 0.9,-0.21 0.9,-0.58 0,-0.03 0,-0.06 -0.02,-0.14 -0.02,-0.1 -0.02,-0.14 -0.02,-0.21 0,-0.5 0.4,-0.72 0.73,-0.72 0.68,0 0.89,1.06 0.89,1.07 0,0.09 -0.09,0.09 -0.11,0.09 -0.1,0 -0.1,-0.04 -0.14,-0.17 -0.08,-0.3 -0.27,-0.79 -0.61,-0.79 -0.19,0 -0.25,0.17 -0.25,0.36 0,0.12 0,0.13 0.04,0.31 0.01,0.02 0.04,0.14 0.04,0.22 0,0.62 -0.84,0.72 -1.13,0.74 0.2,0.12 0.46,0.35 0.58,0.46 0.35,0.33 0.7,0.66 1.09,0.66 0.09,0 0.18,-0.02 0.23,-0.09 -0.3,-0.05 -0.36,-0.29 -0.36,-0.39 0,-0.15 0.12,-0.26 0.28,-0.26 0.19,0 0.4,0.15 0.4,0.45 0,0.23 -0.17,0.49 -0.54,0.49 -0.4,0 -0.76,-0.29 -1.12,-0.62 -0.29,-0.28 -0.52,-0.49 -0.8,-0.61 z"
   id="path7099" />
<path
   style="fill:#ff0000;stroke-width:0"
   inkscape:connector-curvature="0"
   d="m 275.77,709.61 0,0.08 0,0.07 -0.01,0.08 0,0.08 -0.01,0.17 -0.01,0.18 -0.02,0.18 -0.02,0.19 -0.02,0.2 -0.04,0.2 -0.04,0.2 -0.04,0.21 -0.06,0.21 -0.06,0.21 -0.07,0.21 -0.08,0.22 -0.04,0.1 -0.04,0.11 -0.05,0.11 -0.05,0.1 c -0.6,1.23 -1.46,1.87 -1.56,1.87 -0.06,0 -0.1,-0.04 -0.1,-0.1 0,-0.02 0,-0.04 0.19,-0.22 0.98,-0.99 1.55,-2.57 1.55,-4.66 0,-1.7 -0.37,-3.45 -1.61,-4.71 -0.13,-0.12 -0.13,-0.14 -0.13,-0.17 0,-0.06 0.04,-0.1 0.1,-0.1 0.1,0 1,0.68 1.59,1.95 0.51,1.09 0.63,2.2 0.63,3.03 z"
   id="path7101" />
<path
   style="fill:#ff0000;stroke-width:0"
   inkscape:connector-curvature="0"
   d="m 280.28,712.01 h -0.24 c -0.02,-0.16 -0.09,-0.57 -0.18,-0.64 -0.06,-0.04 -0.59,-0.04 -0.69,-0.04 h -1.28 c 0.73,0.65 0.97,0.84 1.39,1.17 0.52,0.41 1,0.85 1,1.51 0,0.84 -0.74,1.36 -1.63,1.36 -0.87,0 -1.45,-0.61 -1.45,-1.25 0,-0.36 0.3,-0.39 0.37,-0.39 0.16,0 0.37,0.12 0.37,0.37 0,0.12 -0.05,0.37 -0.42,0.37 0.22,0.49 0.69,0.65 1.02,0.65 0.7,0 1.06,-0.55 1.06,-1.11 0,-0.61 -0.43,-1.09 -0.65,-1.34 l -1.68,-1.66 c -0.07,-0.06 -0.07,-0.08 -0.07,-0.27 h 2.87 z"
   id="path7103" />
</g>    <g
       style="font-style:normal;font-variant:normal;font-weight:normal;font-stretch:normal;letter-spacing:normal;word-spacing:normal;text-anchor:start;fill:#ff0000;fill-opacity:1;fill-rule:evenodd;stroke:#241c1c;stroke-linecap:butt;stroke-linejoin:miter;stroke-miterlimit:10.43299961;stroke-opacity:1;stroke-dasharray:none;stroke-dashoffset:0"
       ns0:preamble=""
       ns0:text="$x$\n"
       word-spacing="normal"
       letter-spacing="normal"
       font-size-adjust="none"
       font-stretch="normal"
       font-weight="normal"
       font-variant="normal"
       font-style="normal"
       stroke-miterlimit="10.433"
       xml:space="preserve"
       transform="matrix(1,0,0,-1,48.191675,678.88764)"
       id="g3441">
<path
   id="path3443"
   d="m 226.76,710.13 0.01,0.03 0,0.03 0.01,0.03 0.01,0.04 0.01,0.03 0.01,0.05 0.02,0.04 0.01,0.04 0.02,0.05 0.01,0.05 0.02,0.05 0.02,0.05 0.03,0.05 0.02,0.05 0.03,0.05 0.02,0.05 0.03,0.04 0.03,0.05 0.04,0.05 0.03,0.04 0.04,0.05 0.04,0.04 0.04,0.03 0.05,0.04 0.04,0.03 0.05,0.03 0.03,0.01 0.02,0.02 0.03,0.01 0.03,0.01 0.02,0.01 0.03,0 0.03,0.01 0.03,0.01 0.03,0 0.03,0 0.03,0.01 0.04,0 c 0.05,0 0.29,0 0.49,-0.13 -0.28,-0.05 -0.47,-0.3 -0.47,-0.54 0,-0.16 0.11,-0.35 0.38,-0.35 0.21,0 0.53,0.18 0.53,0.58 0,0.52 -0.58,0.66 -0.92,0.66 -0.58,0 -0.93,-0.53 -1.05,-0.76 -0.25,0.66 -0.79,0.76 -1.08,0.76 -1.03,0 -1.6,-1.29 -1.6,-1.54 0,-0.1 0.1,-0.1 0.12,-0.1 0.08,0 0.11,0.02 0.13,0.11 0.34,1.06 1,1.31 1.33,1.31 0.19,0 0.54,-0.09 0.54,-0.67 0,-0.31 -0.17,-0.98 -0.54,-2.37 -0.15,-0.62 -0.5,-1.04 -0.94,-1.04 -0.06,0 -0.29,0 -0.5,0.13 0.25,0.05 0.47,0.26 0.47,0.54 0,0.27 -0.22,0.35 -0.37,0.35 -0.3,0 -0.55,-0.26 -0.55,-0.58 0,-0.46 0.5,-0.66 0.94,-0.66 0.66,0 1.01,0.7 1.04,0.76 0.12,-0.37 0.48,-0.76 1.08,-0.76 1.03,0 1.59,1.29 1.59,1.54 0,0.1 -0.09,0.1 -0.12,0.1 -0.09,0 -0.1,-0.04 -0.12,-0.11 -0.33,-1.07 -1.01,-1.31 -1.33,-1.31 -0.39,0 -0.55,0.32 -0.55,0.66 0,0.22 0.06,0.44 0.17,0.88 z"
   inkscape:connector-curvature="0"
   style="fill:#000000;stroke-width:0" />
</g>  </g>
</svg>
